<?xml version="1.0" standalone="no"?>
<!DOCTYPE svg PUBLIC "-//W3C//DTD SVG 20010904//EN"
 "http://www.w3.org/TR/2001/REC-SVG-20010904/DTD/svg10.dtd">
<svg version="1.0" xmlns="http://www.w3.org/2000/svg"
 width="700.000000pt" height="700.000000pt" viewBox="0 0 700.000000 700.000000"
 preserveAspectRatio="xMidYMid meet">
<metadata>
Created by potrace 1.14, written by Peter Selinger 2001-2017
</metadata>
<g transform="translate(0.000000,700.000000) scale(0.100000,-0.100000)"
fill="#000000" stroke="none">
<path d="M2830 6987 c-83 -45 -104 -79 -125 -203 -9 -49 -18 -100 -21 -114 -6
-35 -72 -397 -79 -440 -3 -19 -10 -53 -15 -75 -5 -22 -11 -60 -15 -85 -3 -25
-8 -52 -10 -60 -2 -8 -7 -31 -10 -50 -3 -19 -12 -69 -20 -110 -8 -41 -17 -95
-20 -120 -4 -24 -8 -47 -10 -50 -2 -3 -6 -23 -9 -45 -3 -22 -11 -62 -16 -90
-5 -27 -12 -63 -15 -80 -23 -135 -38 -222 -40 -235 -7 -35 -35 -187 -39 -210
-2 -14 -7 -42 -11 -62 l-7 -38 1130 0 1130 0 11 48 c6 26 13 63 15 82 3 19 10
58 15 85 6 28 13 67 16 87 2 21 9 57 14 80 6 24 13 64 16 89 l6 47 -138 45
c-250 83 -489 137 -708 162 -27 3 -66 8 -85 10 -163 18 -510 24 -653 11 -63
-6 -68 -5 -64 11 5 16 12 57 23 123 2 14 7 36 10 50 6 26 7 31 20 115 4 28 8
52 9 55 1 6 15 83 22 120 2 14 13 72 23 130 22 116 25 138 40 225 5 33 12 71
15 85 10 48 7 105 -7 140 -16 37 -211 236 -254 258 -38 20 -115 25 -144 9z"/>
<path d="M5674 6981 c-72 -33 -103 -80 -119 -185 -4 -21 -9 -48 -11 -60 -2
-11 -13 -70 -24 -131 -11 -60 -22 -120 -24 -131 -6 -27 -17 -93 -21 -119 -4
-24 -43 -239 -50 -275 -3 -14 -12 -63 -20 -110 -8 -47 -17 -96 -20 -110 -3
-14 -8 -40 -11 -59 -3 -18 -8 -43 -10 -55 -2 -11 -6 -34 -9 -51 -6 -37 -11
-61 -36 -200 -11 -60 -21 -119 -23 -130 -2 -11 -13 -72 -25 -135 -11 -63 -23
-126 -25 -140 -3 -14 -14 -79 -26 -145 -12 -66 -24 -133 -26 -150 -3 -16 -9
-50 -14 -75 -5 -25 -12 -61 -14 -80 -3 -19 -10 -60 -16 -90 -6 -30 -13 -68
-16 -85 -11 -65 -66 -371 -69 -390 -2 -11 -8 -45 -14 -75 -6 -30 -13 -71 -16
-90 -3 -19 -14 -82 -25 -140 -11 -58 -22 -118 -25 -135 -23 -129 -36 -204 -40
-230 -3 -16 -10 -52 -15 -80 -5 -27 -12 -66 -15 -85 -3 -19 -8 -42 -10 -50 -2
-8 -6 -31 -9 -50 -3 -19 -13 -75 -21 -125 -9 -49 -18 -99 -20 -110 -9 -60 -47
-271 -50 -275 -2 -3 -6 -30 -10 -60 -4 -30 -9 -58 -10 -61 -2 -3 -7 -28 -10
-55 -4 -27 -8 -57 -11 -66 -6 -19 -9 -36 -19 -98 -4 -25 -9 -54 -11 -65 -4
-21 -23 -125 -29 -160 -4 -28 -24 -135 -30 -165 -5 -24 -18 -99 -30 -165 -2
-16 -7 -40 -9 -51 -2 -12 -7 -37 -10 -55 -3 -19 -8 -45 -10 -59 -9 -46 -45
-254 -51 -290 -3 -19 -8 -42 -10 -50 -2 -8 -6 -33 -10 -55 -3 -22 -7 -47 -10
-55 -2 -8 -6 -31 -9 -50 -8 -54 -42 -246 -51 -290 -3 -14 -9 -50 -15 -80 -24
-139 -71 -407 -76 -430 -3 -14 -7 -38 -9 -55 -3 -16 -7 -42 -11 -58 -7 -36 -3
-35 149 12 171 53 334 119 512 207 83 41 154 74 159 74 5 0 304 -97 665 -216
361 -118 671 -220 689 -226 41 -13 115 -5 167 17 50 20 89 57 123 115 23 38
27 57 27 115 -1 41 -8 90 -19 120 -10 28 -114 336 -232 685 l-215 635 37 75
c96 198 189 507 209 691 4 30 8 59 10 66 23 71 22 507 0 625 -3 13 -8 48 -11
78 -3 30 -7 57 -9 61 -2 3 -7 19 -9 35 -29 157 -80 322 -153 494 -135 317
-322 593 -583 861 l-110 114 10 50 c6 27 17 88 25 135 8 47 17 99 20 115 9 44
83 454 90 495 3 19 8 49 12 65 3 17 7 39 9 50 3 24 112 640 119 675 3 14 7 39
10 55 3 17 7 41 10 55 3 14 7 41 10 60 3 19 8 48 11 63 3 15 0 51 -7 80 -11
46 -23 62 -122 160 -60 59 -123 115 -139 123 -46 24 -107 26 -154 5z"/>
<path d="M1820 5318 c-67 -30 -277 -150 -380 -217 -209 -136 -305 -215 -505
-416 -325 -324 -531 -654 -670 -1070 -37 -110 -82 -293 -91 -369 -3 -23 -7
-51 -9 -63 -20 -91 -28 -484 -12 -607 6 -56 10 -78 22 -151 3 -16 8 -46 11
-65 10 -65 53 -225 87 -325 115 -337 290 -636 542 -924 56 -65 236 -243 241
-239 2 2 6 21 10 42 3 21 8 48 10 60 16 82 44 239 49 276 4 24 8 47 10 50 3 5
7 27 21 118 3 20 14 82 24 137 11 55 22 116 25 135 3 19 13 73 21 120 9 47 18
96 20 110 2 14 6 34 9 46 3 12 7 39 10 60 3 21 10 59 15 84 5 25 14 73 20 107
16 95 23 139 36 208 3 11 16 85 30 165 44 247 63 351 83 465 11 61 23 126 26
145 3 19 10 58 15 85 5 28 12 66 15 85 3 19 8 42 10 50 2 8 7 31 10 50 3 19
15 87 26 150 12 63 23 129 25 145 3 17 14 75 24 130 10 55 21 114 24 130 3 17
12 71 21 120 9 50 18 104 20 120 3 17 9 53 15 80 5 28 12 66 15 85 3 19 9 55
15 80 7 36 68 379 95 535 3 17 10 53 15 80 5 28 12 68 16 90 3 22 9 57 14 78
9 40 7 41 -30 25z"/>
<path d="M2239 4159 c-5 -3 -18 -57 -29 -120 -11 -63 -22 -125 -25 -139 -3
-14 -9 -50 -14 -80 -6 -30 -17 -95 -26 -145 -9 -49 -19 -103 -21 -120 -3 -16
-18 -97 -33 -180 -15 -82 -27 -152 -25 -155 1 -3 510 -5 1130 -5 l1129 0 17
95 c18 94 25 132 33 180 3 14 20 111 39 215 19 105 37 206 40 225 3 19 10 60
16 90 6 30 13 68 16 84 3 16 7 33 10 38 3 4 -2 11 -10 14 -20 8 -2235 11
-2247 3z"/>
<path d="M1925 2448 c-2 -7 -17 -92 -34 -188 -17 -96 -33 -185 -35 -196 -2
-12 -7 -39 -10 -60 -4 -22 -18 -100 -31 -174 -13 -74 -27 -151 -30 -170 -3
-19 -8 -42 -10 -50 -2 -8 -7 -33 -10 -55 l-5 -41 1130 0 c1008 0 1130 2 1134
16 3 8 8 33 11 55 4 22 13 72 20 110 8 39 17 90 20 115 3 25 13 77 20 115 14
68 29 154 40 225 3 19 8 46 10 60 3 14 8 36 10 50 3 14 8 40 11 59 3 18 8 43
10 55 2 11 7 36 10 54 l6 32 -1131 0 c-897 0 -1132 -3 -1136 -12z"/>
<path d="M1625 750 c-2 -4 -7 -22 -10 -41 -3 -19 -7 -45 -10 -59 -32 -173 -33
-162 16 -189 154 -82 405 -201 426 -201 4 0 20 -7 36 -15 42 -22 338 -116 407
-130 8 -2 42 -10 75 -19 51 -13 215 -44 320 -60 51 -8 146 -18 255 -25 104 -8
537 -5 575 3 11 2 25 5 31 5 6 1 11 7 11 14 1 10 41 232 56 312 6 27 15 82 22
125 3 19 12 69 20 110 8 41 18 93 21 115 3 22 7 45 7 50 2 11 -2251 16 -2258
5z"/>
</g>
</svg>
