<svg fill="none" height="900" viewBox="0 0 1440 900" width="1440" xmlns="http://www.w3.org/2000/svg"><g stroke="#e9e8ed" stroke-width="4"><path d="m-102 157v-316c0-105.486 85.5136-191 191-191h119c105.486 0 191 85.514 191 191v316c0 105.486-85.514 191-191 191h-119c-105.4864 0-191-85.514-191-191z"/><rect height="619" rx="198" width="407" x="-124" y="590"/><rect height="164" rx="82" transform="matrix(0 1 -1 0 401 -91)" width="262" x="246" y="155"/><rect fill="#e9e8ed" height="52" rx="7.5" width="15" x="238" y="250"/></g><rect fill="#e9e8ed" height="36" rx="18" width="65" x="47" y="572"/><rect height="282" rx="141" stroke="#e9e8ed" stroke-width="4" width="755" x="585" y="845"/><rect height="162" rx="81" stroke="#e9e8ed" stroke-width="4" width="569" x="1023" y="304"/><rect height="253" rx="101" stroke="#e9e8ed" stroke-width="4" transform="matrix(0 1 -1 0 1909 -1087)" width="312" x="1498" y="411"/><rect fill="#e9e8ed" height="36" rx="18" transform="matrix(-1 0 0 -1 2364 968)" width="88" x="1182" y="484"/><rect height="373" rx="151" stroke="#e9e8ed" stroke-width="4" width="1253" x="828" y="-283"/><rect fill="#e9e8ed" height="48" rx="24" transform="matrix(-1 0 0 -1 2416 226)" width="155" x="1208" y="113"/><rect fill="#e9e8ed" height="44" rx="22" stroke="#e9e8ed" stroke-width="4" transform="matrix(0 -1 1 0 -614 1138)" width="78" x="262" y="876"/></svg>