<svg fill="none" height="900" viewBox="0 0 1440 900" width="1440" xmlns="http://www.w3.org/2000/svg"><g opacity=".5"><path d="m-5 157v-316c0-105.486 85.5136-191 191-191h22c105.486 0 191 85.514 191 191v316c0 105.486-85.514 191-191 191h-22c-105.4864 0-191-85.514-191-191z" stroke="#484782" stroke-width="4"/><rect height="619" rx="203.5" stroke="#484782" stroke-width="4" width="407" x="-125" y="537"/><rect height="281" rx="140.5" stroke="#484782" stroke-width="4" transform="matrix(0 1 -1 0 553 -415)" width="448" x="484" y="69"/><rect fill="#484782" height="151.961" rx="30.277" stroke="#484782" stroke-width="4" width="60.5539" x="456" y="259"/><rect fill="#484782" height="36" rx="18" width="65" x="46" y="519"/><rect height="282" rx="141" stroke="#484782" stroke-width="4" width="673" x="416" y="739"/><rect height="162" rx="81" stroke="#484782" stroke-width="4" width="569" x="938" y="467"/><rect height="377" rx="188.5" stroke="#484782" stroke-width="4" transform="matrix(0 1 -1 0 1962 -1282)" width="666" x="1622" y="340"/><rect fill="#484782" height="36" rx="18" transform="matrix(-1 0 0 -1 2194 1294)" width="88" x="1097" y="647"/><rect height="373" rx="151" stroke="#484782" stroke-width="4" width="1253" x="633" y="-175"/><g fill="#484782"><rect height="48" rx="24" transform="matrix(-1 0 0 -1 2026 442)" width="155" x="1013" y="221"/><rect height="48" rx="24" transform="matrix(0 -1 1 0 443 2003)" width="54" x="1223" y="780"/><rect height="48" rx="24" transform="matrix(0 -1 1 0 -198 552)" width="54" x="177" y="375"/><rect height="22" rx="11" width="82" x="532" y="726"/><rect height="47" rx="13" width="26" x="620" y="20"/></g></g></svg>