<svg fill="none" height="135" viewBox="0 0 479 135" width="479" xmlns="http://www.w3.org/2000/svg" xmlns:xlink="http://www.w3.org/1999/xlink"><clipPath id="a"><path d="m0 0h479v135h-479z"/></clipPath><g clip-path="url(#a)"><path d="m0 0h479v135h-479z" fill="#f8f8fa"/><path d="m310.492 594v-425.851c0-6.432 5.215-11.647 11.647-11.647 13.178 0 23.861-10.683 23.861-23.861v-.889c0-13.669-11.081-24.75-24.75-24.75h-177.5c-18.364 0-33.25-14.8864-33.25-33.2498 0-18.3634 14.886-33.2499 33.25-33.2499h156.25c27.062 0 49-21.938 49-48.99999v-339.00231" stroke="#484782" stroke-width="4"/><rect fill="#55d6da" height="15.8157" rx="7.90787" width="35.3888" x="234" y="99.0039"/><path d="m-294.126 32h335.626c21.8152 0 39.5-17.6848 39.5-39.5 0-21.8152-17.6847-39.5-39.5-39.5h-440.5" stroke="#484782" stroke-width="4"/><rect fill="#e14963" height="16" rx="8" transform="matrix(-1 0 0 -1 88 80)" width="18" x="44" y="40"/><path d="m396 163c0-34.242 27.758-62 62-62h415" stroke="#e14963" stroke-width="3.98933"/><path d="m447.069 108.05c-3.124 3.124-8.19 3.124-11.314 0s-3.124-8.1893 0-11.3135 8.19-3.1242 11.314 0 3.124 8.1895 0 11.3135z" fill="#f6992c"/></g></svg>