<svg fill="none" height="20" viewBox="0 0 20 20" width="20" xmlns="http://www.w3.org/2000/svg"><g fill="#e14963"><path d="m7.94579 8.91408c.45337-.90076 1.43329-1.40922 2.43081-1.2613 1.0185.15104 1.8183.95079 1.9693 1.96934.148.99748-.3605 1.97748-1.2613 2.43078-.9007.4534-1.99068.278-2.70374-.435-.71306-.7131-.88845-1.80307-.43507-2.70382z"/><path clip-rule="evenodd" d="m6.10421 2.20703c-2.15161 0-3.89584 1.74423-3.89584 3.89583v7.79164c0 2.1516 1.74423 3.8959 3.89584 3.8959h7.79169c2.1516 0 3.8958-1.7443 3.8958-3.8959v-7.79164c0-2.1516-1.7442-3.89583-3.8958-3.89583zm4.50099 3.90427c-1.66254-.24653-3.29575.60091-4.05137 2.10217-.75563 1.50126-.46331 3.31783.72512 4.50633 1.18844 1.1884 3.00505 1.4807 4.50635.7251 1.5012-.7556 2.3486-2.3888 2.1021-4.05136-.2517-1.69759-1.5846-3.03051-3.2822-3.28224z" fill-rule="evenodd"/></g></svg>