<svg fill="none" height="20" viewBox="0 0 20 20" width="20" xmlns="http://www.w3.org/2000/svg"><g fill="#e14963"><path d="m5.32529 4.54271c0 .86064-.69769 1.55833-1.55834 1.55833-.86064 0-1.55833-.69769-1.55833-1.55833 0-.86065.69769-1.55833 1.55833-1.55833.86065 0 1.55834.69768 1.55834 1.55833z"/><path d="m12.3377 7.65933c1.2399 0 2.429.49254 3.3057 1.36927.8767.87674 1.3693 2.0658 1.3693 3.3057v5.4542h-3.1167v-5.4542c0-.4133-.1642-.8096-.4564-1.1019-.2922-.2922-.6886-.4564-1.1019-.4564s-.8097.1642-1.1019.4564c-.2923.2923-.4564.6886-.4564 1.1019v5.4542h-3.11671v-5.4542c0-1.2399.49254-2.42896 1.36928-3.3057.87673-.87673 2.06583-1.36927 3.30573-1.36927z"/><path d="m5.32529 17.7884v-9.34995h-3.11667v9.34995z"/></g></svg>