<svg viewBox="0 0 1440 900" xmlns="http://www.w3.org/2000/svg" xmlns:xlink="http://www.w3.org/1999/xlink"><clipPath id="a"><path d="m0 0h1440v900h-1440z"/></clipPath><clipPath id="b"><path d="m61 57h90v90h-90z"/></clipPath><g clip-path="url(#a)"><g clip-path="url(#b)" fill="#484782"><path d="m63.35 110.52a34.27 34.27 0 0 0 11.65 25.36l10.14-57.5c-12.99 6.16-21.79 18.24-21.79 32.14z"/><path d="m81.52 140.74a45 45 0 0 0 23.16 6.26c1.5 0 3-.07 4.44-.2l1.67-9.53h-28.71z"/><path d="m120.23 83.77 1.2-6.62a45.94 45.94 0 0 0 -16.71-3.15 32 32 0 0 0 -4.17.18l2.1-12.3a2.4 2.4 0 0 0 -.07-1.16 2.49 2.49 0 0 0 -.61-1l-2.17-2.1a2.52 2.52 0 0 0 -1.2-.62 2.31 2.31 0 0 0 -1.71.38 2.27 2.27 0 0 0 -1 1.47l-1.29 7.29-3.11 17.6z"/><path d="m148.43 143.12v-.12l-.09-.35-5.8-17.42.19-.4a32.65 32.65 0 0 0 3.29-14.3 34.23 34.23 0 0 0 -11.33-25.1l2-11.12 2.12-12.31a2.45 2.45 0 0 0 -.08-1.17 2.31 2.31 0 0 0 -.62-1l-2.17-2.15a2.32 2.32 0 0 0 -1.2-.62 2.28 2.28 0 0 0 -1.7.37 2.3 2.3 0 0 0 -.94 1.47l-3.86 21.6-11.45 64.89a43.85 43.85 0 0 0 10.37-4.27l17 5.68h.12a3.25 3.25 0 0 0 3.06-.71 3.23 3.23 0 0 0 .92-1.33 3.31 3.31 0 0 0 .17-1.64z"/><path d="m83.84 127.58h28.66l2.15-12.17h-28.65z"/><path d="m89.85 93.49-2.15 12.17h28.67l2.15-12.17z"/></g><g stroke-width="4"><path d="m-799.5 799h1321a102 102 0 0 0 102-102v-255a102 102 0 0 1 102-102h411.5a102 102 0 0 0 102-102v-1018.5" fill="none" stroke="#484782"/><path d="m-5 157v-316c0-105.49 85.51-191 191-191h22c105.49 0 191 85.51 191 191v316c0 105.49-85.51 191-191 191h-22c-105.49 0-191-85.51-191-191z" fill="none" stroke="#e14963"/><path d="m78.5 537c112.39 0 203.5 91.11 203.5 203.5v40c0 112.39-91.11 203.5-203.5 203.5-112.39 0-203.5-91.11-203.5-203.5v-40c0-112.39 91.11-203.5 203.5-203.5z" fill="none" stroke="#484782"/><path d="m484 209.5v167a140.49 140.49 0 0 1 -140.5 140.5 140.49 140.49 0 0 1 -140.5-140.5v-167a140.49 140.49 0 0 1 140.5-140.5 140.49 140.49 0 0 1 140.5 140.5z" fill="none" stroke="#f6992c"/><path d="m486.28 259a30.28 30.28 0 0 1 30.27 30.28v91.4a30.27 30.27 0 0 1 -30.27 30.32 30.28 30.28 0 0 1 -30.28-30.32v-91.4a30.28 30.28 0 0 1 30.28-30.28z" fill="#5d52b1" stroke="#5d52b1"/></g><path d="m64 519h29a18 18 0 0 1 18 18 18 18 0 0 1 -18 18h-29a18 18 0 0 1 -18-18 18 18 0 0 1 18-18z" fill="#32bcc1"/><path d="m557 739h391a141 141 0 0 1 141 141 141 141 0 0 1 -141 141h-391a141 141 0 0 1 -141-141 141 141 0 0 1 141-141z" fill="none" stroke="#e14963" stroke-width="4"/><path d="m637 597v22a15 15 0 0 1 -15 15 15 15 0 0 1 -15-15v-22a15 15 0 0 1 15-15 15 15 0 0 1 15 15z" fill="#32bcc1"/><path d="m1019 467h407a81 81 0 0 1 81 81 81 81 0 0 1 -81 81h-407a81 81 0 0 1 -81-81 81 81 0 0 1 81-81z" fill="none" stroke="#f6992c" stroke-width="4"/><rect fill="none" height="469" rx="83" stroke="#484782" stroke-width="4" width="377" x="1245" y="537"/><path d="m1079 647h-52a18 18 0 0 1 -18-18 18 18 0 0 1 18-18h52a18 18 0 0 1 18 18 18 18 0 0 1 -18 18z" fill="#5d52b1"/><rect fill="none" height="373" rx="151" stroke="#32bcc1" stroke-width="4" width="1253" x="633" y="-175"/><path d="m1239 257a27 27 0 0 1 -27-27v-56a27 27 0 0 1 27-27 27 27 0 0 1 27 27v56a27 27 0 0 1 -27 27z" fill="#f6992c"/><path d="m989 221h-107a24 24 0 0 1 -24-24 24 24 0 0 1 24-24h107a24 24 0 0 1 24 24 24 24 0 0 1 -24 24z" fill="#e14963"/><path d="m261 801v-34a22 22 0 0 1 22-22 22 22 0 0 1 22 22v34a22 22 0 0 1 -22 22 22 22 0 0 1 -22-22z" fill="#e14963" stroke="#e14963" stroke-width="4"/><path d="m633 20a13 13 0 0 1 13 13v21a13 13 0 0 1 -13 13 13 13 0 0 1 -13-13v-21a13 13 0 0 1 13-13z" fill="#5d52b1"/></g></svg>