<svg enable-background="new 0 0 287 37" viewBox="0 0 287 37" xmlns="http://www.w3.org/2000/svg"><g fill="#5d52b1"><path d="m182.9 8.9c1 0 2 .1 2.9.4.8.3 1.6.7 2.3 1.2.6.5 1.2 1.1 1.6 1.8.3.5.5.9.7 1.5v.1.3c0 .1 0 .2-.1.3s-.1.2-.2.2c-.1.1-.2.1-.3.1l-2.8.8c-.2.1-.4 0-.6 0-.2-.1-.3-.2-.4-.4-.5-.9-.8-1.5-1.1-1.8-.6-.5-1.3-.8-2.1-.8-.9 0-1.5.2-2 .7-.2.3-.4.6-.5.9s-.2.7-.1 1c0 .3.1.6.2.9s.3.5.6.7c.6.5 1.3.9 2 1.3.8.4 1.7.9 2.6 1.3.9.5 1.8 1 2.6 1.7.8.6 1.5 1.4 2 2.3.6 1 .8 2.1.8 3.2 0 1-.2 1.9-.6 2.8-.4.8-.9 1.6-1.6 2.1-.7.6-1.6 1.1-2.6 1.4-1.1.3-2.3.5-3.4.5-1.8 0-3.7-.5-5.2-1.6-.8-.6-1.8-2-2.7-4.2 0-.1 0-.1-.1-.2 0-.1 0-.2 0-.3s.1-.2.1-.3.1-.2.2-.2c.1-.1.2-.1.3-.1l3-.6c.2 0 .4 0 .6.1s.3.3.4.5c.1.4.2.7.4 1.1.2.5.6.9.9 1.2s.7.5 1.1.7c.4.1.7.2 1.1.2.8 0 1.5-.2 2.1-.7.3-.3.5-.6.7-1 .1-.4.2-.8.2-1.1 0-.4-.1-.7-.2-1s-.3-.6-.6-.9c-.6-.6-1.3-1.1-2-1.5-.8-.5-1.7-.9-2.6-1.4-.9-.4-1.8-1-2.6-1.6s-1.5-1.2-2-2c-.6-.8-.8-1.8-.8-2.8 0-2.1.6-3.7 1.9-4.9 1.5-1.4 3.4-1.9 5.9-1.9z"/><path d="m278.1 8.9c1 0 2 .1 2.9.4.8.3 1.6.7 2.3 1.2.6.5 1.2 1.1 1.6 1.8.3.5.5.9.7 1.5v.1.3c0 .1 0 .2-.1.3s-.1.2-.2.2c-.1.1-.2.1-.3.1l-2.8.8c-.2.1-.4 0-.6 0-.2-.1-.3-.2-.4-.4-.5-.9-.8-1.5-1.1-1.8-.6-.5-1.3-.8-2.1-.8-.9 0-1.5.2-2 .7-.2.3-.4.6-.5.9s-.2.7-.1 1c0 .3.1.6.2.9s.3.5.6.7c.6.5 1.3.9 2 1.3.8.4 1.7.9 2.6 1.3.9.5 1.8 1 2.6 1.7.8.6 1.5 1.4 2 2.3.6 1 .8 2.1.8 3.2 0 1-.2 1.9-.5 2.8-.4.8-.9 1.6-1.6 2.1-.7.6-1.6 1.1-2.5 1.4-1.1.3-2.3.5-3.4.5-1.8 0-3.7-.5-5.2-1.6-.8-.6-1.8-2-2.7-4.2 0-.1 0-.1-.1-.2 0-.1 0-.2 0-.3s.1-.2.1-.3c.1-.1.1-.2.2-.2s.2-.1.3-.1l3-.6c.2 0 .4 0 .6.1s.3.3.4.5c.1.4.2.7.4 1.1.2.5.6.9.9 1.2s.7.5 1.1.7c.4.1.7.2 1.1.2.8 0 1.5-.2 2.1-.7.3-.3.5-.6.7-1 .1-.4.2-.8.2-1.1 0-.4-.1-.7-.2-1s-.3-.6-.6-.9c-.6-.6-1.3-1.1-2-1.5-.8-.5-1.7-.9-2.6-1.4-.9-.4-1.8-1-2.6-1.6s-1.5-1.2-2-2c-.6-.8-.8-1.8-.8-2.8 0-2.1.6-3.7 1.9-4.9 1.3-1.3 3.2-1.9 5.7-1.9z"/><path d="m241.3 8.9c1.1 0 2.2.1 3.2.4.9.3 1.8.7 2.5 1.4s1.3 1.5 1.7 2.5c.3.7.5 1.9.6 3.7v.1h-4.2c-.2 0-.3-.1-.5-.2-.1-.1-.2-.3-.2-.5 0-1.3-.3-2.2-.8-2.7s-1.3-.7-2.3-.7-1.8.2-2.3.7c-.6.5-.8 1.4-.8 2.7v9.7c0 1.3.3 2.2.8 2.7.6.5 1.3.7 2.3.7s1.8-.2 2.3-.7.8-1.4.8-2.7v-.8c0-.2.1-.4.2-.6s.4-.2.6-.2h3.2c.2 0 .4.1.6.2s.2.4.2.6v.2c0 1.3-.2 2.5-.6 3.7-.3.9-.9 1.8-1.7 2.5-.7.6-1.6 1.1-2.5 1.4-1.1.3-2.1.4-3.2.4s-2.2-.1-3.2-.4c-.9-.3-1.8-.7-2.5-1.4s-1.3-1.5-1.7-2.5c-.4-1.2-.6-2.5-.6-3.7v-8.5c0-1.3.2-2.5.6-3.7.3-.9.9-1.8 1.7-2.5.7-.6 1.6-1.1 2.5-1.4 1.1-.3 2.2-.5 3.3-.4z"/><path d="m5.9 9.2c.2 0 .4.1.5.2s.2.3.3.4l4 15h.1l4.1-15c0-.2.2-.3.3-.4s.3-.2.5-.2h5c.2 0 .4.1.6.2.2.2.2.4.2.6v22.2c0 .2-.1.4-.2.6-.2.2-.4.2-.6.2h-2.3c-.2 0-.4-.1-.6-.2-.2-.2-.2-.4-.2-.6v-17.9h-.1l-4.8 18.1c0 .2-.1.3-.3.4s-.3.2-.5.2h-2.2c-.2 0-.4-.1-.5-.2s-.2-.3-.3-.4l-4.8-18.1h-.1v17.9c0 .2-.1.4-.2.6-.2.1-.4.2-.6.2h-2.4c-.2 0-.4-.1-.6-.2-.1-.2-.2-.4-.2-.6v-22.2c0-.2.1-.4.2-.6.2-.2.4-.2.6-.2z"/><path d="m38.5 9.2c.2 0 .4.1.6.2.2.2.2.4.2.6v2.4c0 .2-.1.4-.2.6-.2.2-.4.2-.6.2h-7.3v5.5h5.3c.2 0 .4.1.6.2s.2.4.2.6v2.4c0 .2-.1.4-.2.6s-.4.2-.6.2h-5.3v6.3h7.6c.2 0 .4.1.6.2s.2.4.2.6v2.4c0 .2-.1.4-.2.6-.2.1-.4.2-.6.2h-11.4c-.2 0-.4-.1-.6-.2-.2-.2-.2-.4-.2-.6v-22.2c0-.2.1-.4.2-.6.2-.2.4-.2.6-.2z"/><path d="m48.2 9.2c.2 0 .3 0 .4.1s.2.2.3.4l6.3 13.6h.1v-13.3c0-.2.1-.4.2-.6.2-.2.4-.2.6-.2h2.6c.2 0 .4.1.6.2s.2.4.2.6v22.2c0 .2-.1.4-.2.6-.2.2-.4.2-.6.2h-3.1c-.2 0-.3 0-.4-.1s-.2-.2-.3-.4l-3.3-7.2-3.6-7.7h-.1v14.6c0 .2-.1.4-.2.6-.2.2-.4.2-.6.2h-2.6c-.2 0-.4-.1-.6-.2-.2-.2-.2-.4-.2-.6v-22.2c0-.2.1-.4.2-.6.2-.2.4-.2.6-.2z"/><path d="m77.8 9.2c.2 0 .4.1.6.2.2.2.2.4.2.6v2.4c0 .2-.1.4-.2.6-.2.2-.4.2-.6.2h-4.6v19c0 .2-.1.4-.2.6-.2.2-.4.2-.6.2h-3c-.2 0-.4-.1-.6-.2-.2-.2-.2-.4-.2-.6v-19h-4.6c-.2 0-.4-.1-.6-.2-.2-.2-.2-.4-.2-.6v-2.4c0-.2.1-.4.2-.6.2-.2.4-.2.6-.2z"/><path d="m265.7 9.2c.2 0 .4.1.6.2.2.2.2.4.2.6v2.4c0 .2-.1.4-.2.6-.2.2-.4.2-.6.2h-7.6v5.5h5.6c.2 0 .4.1.6.2.2.2.2.4.2.6v2.4c0 .2-.1.4-.2.6-.2.2-.4.2-.6.2h-5.6v6.3h8c.2 0 .4.1.6.2s.2.4.2.6v2.4c0 .2-.1.4-.2.6-.2.2-.4.2-.6.2h-12c-.2 0-.4-.1-.6-.2-.2-.2-.2-.4-.2-.6v-22.2c0-.2.1-.4.2-.6.2-.2.4-.2.6-.2z"/><path d="m88.7 8.9c1.1 0 2.1.1 3.1.4.9.3 1.7.7 2.4 1.4s1.3 1.5 1.6 2.5c.4 1.2.6 2.5.6 3.7v8.5c0 1.3-.2 2.5-.6 3.7-.3.9-.9 1.8-1.6 2.5-.7.6-1.5 1.1-2.4 1.4-1 .3-2.1.4-3.1.4-1.1 0-2.1-.1-3.1-.4-.9-.3-1.7-.7-2.4-1.4s-1.3-1.5-1.6-2.5c-.4-1.2-.6-2.5-.6-3.7v-8.5c0-1.3.2-2.5.6-3.7.3-.9.9-1.8 1.6-2.5.7-.6 1.5-1.1 2.4-1.4 1-.3 2.1-.5 3.1-.4zm0 4c-.9 0-1.7.2-2.2.7s-.8 1.4-.8 2.7v9.9c0 1.2.3 2.1.8 2.5s1.3.7 2.2.7 1.7-.2 2.2-.7.8-1.4.8-2.7v-9.9c0-1.2-.3-2.1-.8-2.5-.5-.5-1.2-.7-2.2-.7z"/><path d="m223.7 9.2c.2 0 .4.1.5.2s.2.3.3.4l5.7 22.2v.2c0 .2-.1.4-.2.6-.2.2-.4.2-.6.2h-2.9c-.2 0-.4-.1-.5-.2s-.2-.3-.3-.5l-1.1-4.4h-6.7l-1.2 4.4c0 .2-.2.3-.3.4s-.3.2-.5.2h-3c-.1 0-.1 0-.2 0s-.2-.1-.3-.1c-.1-.1-.2-.1-.2-.2-.1-.1-.1-.2-.1-.3s0-.2 0-.3l5.9-22.2c0-.2.1-.3.3-.4.1-.1.3-.2.5-.2zm-2.4 5.1-2.5 9.6h4.8z"/><path d="m202.5 9.2c3 0 5.2.6 6.7 1.9 1.5 1.2 2.2 3 2.2 5.3s-.7 4-2.2 5.3c-1.5 1.2-3.7 1.9-6.7 1.9h-2.1v8.7c0 .2-.1.4-.2.6-.2.2-.4.2-.6.2h-3.2c-.2 0-.4-.1-.6-.2-.2-.2-.2-.4-.2-.6v-22.3c0-.2.1-.4.2-.6.2-.2.4-.2.6-.2zm.4 3.7h-2.6v6.7h2.6c2.4 0 3.6-1.1 3.6-3.4s-1.2-3.3-3.6-3.3z"/><path d="m107.5 9.2c2.8 0 4.9.6 6.2 1.9 1.3 1.2 2 3 2 5.3 0 1.3-.3 2.6-.9 3.8-.6 1-1.5 1.8-2.8 2.3l4.1 9.5c0 .1.1.2.1.3 0 .2-.1.4-.2.6-.2.2-.4.2-.6.2h-3.2c-.2 0-.3 0-.5-.1-.1-.1-.2-.2-.3-.4l-3.8-9.2h-2.2v8.9c0 .2-.1.4-.2.6-.2.2-.4.2-.6.2h-3c-.2 0-.4-.1-.6-.2-.2-.2-.2-.4-.2-.6v-22.3c0-.2.1-.4.2-.6.2-.2.4-.2.6-.2zm-.3 3.7h-2.4v6.6h2.4c1 0 1.8-.3 2.4-.8s.9-1.4.9-2.5c0-1.2-.3-2-.9-2.5-.5-.5-1.4-.8-2.4-.8z"/><path d="m157.6 0c.2 0 .4.1.5.3l.9.9c.1.1.2.3.3.4.1.2.1.3 0 .5l-.9 5-.8 4.6c2.9 2.7 4.7 6.3 4.7 10.3 0 2-.5 4-1.3 5.8l-.1.3 2.4 7.1v.1.1c0 .2 0 .4-.1.7s-.2.4-.4.5-.4.3-.6.3c-.2.1-.4.1-.7 0h-.1l-7.1-2.3c-1.4.8-2.8 1.3-4.3 1.7l4.8-26.6 1.6-8.9c0-.2.2-.5.4-.6.2-.2.5-.2.8-.2z"/><path d="m147.6 32.9-.7 3.9c-.6.1-1.2.1-1.8.1-3.4 0-6.7-.9-9.6-2.6l.3-1.4z"/><path d="m136.9 8.8-4.2 23.6c-3-2.7-4.8-6.4-4.8-10.4 0-5.8 3.6-10.7 9-13.2z"/><path d="m149.2 23.9-.9 5h-11.9l.9-5z"/><path d="m150.8 15-.9 5h-11.9l.9-5z"/><path d="m142.5 0c.2 0 .4.1.5.3l.9.9c.1.1.2.3.2.4s.1.3 0 .5l-.9 5c.6 0 1.1-.1 1.7-.1 2.4 0 4.7.4 7 1.3l-.5 2.7h-11.9l1.3-7.2.6-3c0-.2.2-.5.4-.6.2-.2.5-.2.7-.2z"/></g></svg>