<svg fill="none" height="116" viewBox="0 0 116 116" width="116" xmlns="http://www.w3.org/2000/svg" xmlns:xlink="http://www.w3.org/1999/xlink"><clipPath id="a"><path d="m0 0h116v116h-116z"/></clipPath><mask id="b" height="90" maskUnits="userSpaceOnUse" width="86" x="4" y="26"><path d="m4.7611 103.97 28.3834-77.0403s14.5 20.7143 26.9286 31.0714c12.4286 10.3572 29 18.6429 29 18.6429l-72.3808 38.201c-1.4387.759-3.0766 1.079-4.4682.237-.9896-.599-2.3019-1.589-3.93671-3.224-1.99295-1.993-3.02717-3.506-3.56388-4.54-.54339-1.048-.37024-2.241.03759-3.348z" fill="#8856c7"/></mask><g clip-path="url(#a)"><path d="m67.2415 44.7692c14.7996 12.9999 24.1146 26.8351 21.5792 31.7673 0 0-31.7746-13.152-35.2496-16.2044-3.043-2.673-20.232-33.1085-20.2202-33.099 4.9791-2.5092 19.4921 4.8885 33.8906 17.5361z" fill="#f19d39"/><g clip-rule="evenodd" fill-rule="evenodd"><path d="m107.204 55.8958c-14.7885-1.8394-30.1609 5.5029-44.2029 19.5338l-5.8566-5.8613c14.958-14.9461 32.7285-24.1777 51.0825-21.8949 2.271.2824 3.882 2.352 3.6 4.6225-.283 2.2706-2.352 3.8823-4.623 3.5999z" fill="#45c6cb"/><path d="m40.0202 14.8124c8.1145 12.4999 8.2245 29.5354 1.7366 48.2958l7.8306 2.708c6.9112-19.9841 7.4532-40.002-2.6175-55.5153-1.2458-1.91914-3.8115-2.46495-5.7306-1.21913-1.9191 1.24583-2.4649 3.81153-1.2191 5.73063z" fill="#e14963"/><path d="m107.713 8.28906c2.288 0 4.143 1.85484 4.143 4.14284v6.9363c0 5.5048-5.269 9.4792-10.562 7.9669l2.276-7.9669v-6.9363c0-2.288 1.855-4.14284 4.143-4.14284zm-18.6427 17.92084c0-5.5048 5.2689-9.4792 10.562-7.9669l3.9377 1.1252-2.276 7.9669-3.938-1.1252v3.5154c0 5.5049-5.2689 9.4792-10.5619 7.9669l-3.9381-1.1251v9.0077c0 2.288-1.8548 4.1428-4.1428 4.1428-2.2881 0-4.1429-1.8548-4.1429-4.1428v-9.0077c0-5.5049 5.2689-9.4792 10.562-7.9669l3.938 1.1251-1.1381 3.9835 1.1381-3.9835z" fill="#e14963"/><path d="m16.4562 48.7307c2.1591.757 4.5232-.3797 5.2802-2.5389l2.9803-8.5003c1.8213-5.1949-1.8359-10.6887-7.3312-11.0128l-.4879 8.2713-2.9803 8.5004c-.757 2.1592.3797 4.5232 2.5389 5.2803zm-10.97828-25.0345c-1.82133 5.1948 1.8359 10.6886 7.33118 11.0127l4.0885.2411.4879-8.2713-4.0885-.2411 2.9803-8.5004c.757-2.1592-.3797-4.5232-2.5389-5.2803-2.1591-.757-4.52318.3797-5.2802 2.5389z" fill="#45c6cb"/></g><circle cx="78.4554" cy="94.7679" fill="#ffde69" r="4.14286"/><circle cx="100.205" cy="67.5804" fill="#7dc0f1" r="4.14286"/><circle cx="94.7679" cy="87.5179" fill="#ffc9d2" r="4.14286"/><ellipse cx="66.2874" cy="33.1429" fill="#989eda" rx="4.14286" ry="4.14286"/><ellipse cx="82.8577" cy="16.5725" fill="#ffde69" rx="4.14286" ry="4.14286"/><ellipse cx="62.1429" cy="13.2054" fill="#7dc0f1" rx="4.14286" ry="4.14286"/><ellipse cx="12.428" cy="58.0022" fill="#989eda" rx="4.14286" ry="4.14286"/><ellipse cx="28.9983" cy="20.7132" fill="#ffc9d2" rx="4.14286" ry="4.14286"/><path d="m4.7611 103.97 28.3834-77.0403s14.5 20.7143 26.9286 31.0714c12.4286 10.3572 29 18.6429 29 18.6429l-72.3808 38.201c-1.4387.759-3.0766 1.079-4.4682.237-.9896-.599-2.3019-1.589-3.93671-3.224-1.99295-1.993-3.02717-3.506-3.56388-4.54-.54339-1.048-.37024-2.241.03759-3.348z" fill="#ffba69"/><g clip-rule="evenodd" fill="#8856c7" fill-rule="evenodd" mask="url(#b)"><path d="m4.50853 31.5725s-.00123-.0026 4.83426-2.1889c4.83551-2.1862 4.83451-2.1883 4.83451-2.1883l.0142.0297.0756.1552c.0713.145.1845.3723.3404.6763.312.6081.7949 1.5229 1.4554 2.7005 1.3214 2.3559 3.3514 5.7596 6.1434 9.8622 5.5884 8.2115 14.2032 19.184 26.2649 30.1557 11.9526 10.8724 24.8058 18.4363 34.7061 23.2855 4.9399 2.4196 9.1171 4.1498 12.0393 5.2688 1.4603.5592 2.6049.9648 3.3721 1.2268.3835.131.6724.226.859.287l.2021.064.0416.013s.0011 0-1.5874 4.98-1.5913 4.979-1.5913 4.979l-.0122-.004-.0253-.008-.0815-.025-.2835-.091c-.2416-.078-.5872-.192-1.0289-.343-.8833-.301-2.1518-.752-3.7427-1.361-3.1801-1.218-7.6572-3.074-12.9247-5.654-10.5148-5.1503-24.29-13.2375-37.1905-24.9721-12.7915-11.6355-21.9289-23.2701-27.8795-32.0139-2.9774-4.3751-5.16364-8.0361-6.61603-10.6255-.72638-1.2951-1.2698-2.3231-1.63739-3.0396-.18381-.3583-.32372-.6388-.42061-.836l-.1132-.2325-.03261-.0682-.01036-.0218z"/><path d="m-16.3086 51.2015s-.0012-.0026 4.8343-2.1888c4.83546-2.1862 4.83447-2.1883 4.83447-2.1883l.01423.0297.07556.1551c.07128.1451.18448.3723.34046.6764.31198.6081.79486 1.5228 1.45537 2.7004 1.32139 2.3559 3.35137 5.7596 6.14342 9.8623 5.58834 8.2115 14.20309 19.184 26.26479 30.1556 11.9526 10.8721 24.8058 18.4361 34.7061 23.2851 4.9399 2.42 9.1171 4.15 12.0393 5.269 1.4603.56 2.605.965 3.3721 1.227.3835.131.6724.226.859.287l.2022.064.0416.013s.001.001-1.5875 4.98c-1.5885 4.98-1.5913 4.979-1.5913 4.979l-.0122-.004-.0253-.008-.0815-.025-.2835-.091c-.2416-.078-.5872-.192-1.0289-.343-.8833-.301-2.1518-.752-3.7426-1.361-3.1802-1.218-7.6572-3.074-12.9248-5.654-10.5148-5.15-24.2899-13.237-37.1904-24.9721-12.79149-11.6354-21.92894-23.27-27.87955-32.0139-2.97745-4.375-5.16365-8.036-6.61595-10.6254-.7264-1.2951-1.2699-2.3231-1.6375-3.0397-.1838-.3583-.3237-.6388-.4206-.8359l-.1132-.2326-.0326-.0681-.0103-.0218z"/></g></g></svg>