<svg fill="none" height="377" viewBox="0 0 377 377" width="377" xmlns="http://www.w3.org/2000/svg" xmlns:xlink="http://www.w3.org/1999/xlink"><clipPath id="a"><path d="m0 16c0-8.83656 7.16344-16 16-16h345c8.837 0 16 7.16344 16 16v345c0 8.837-7.163 16-16 16h-345c-8.83656 0-16-7.163-16-16z"/></clipPath><g clip-path="url(#a)"><path d="m0 0h377v377h-377z"/><path d="m244.375 715v-428.332c0-5.062 4.104-9.166 9.166-9.166 10.372 0 18.78-8.408 18.78-18.78v-5.97c0-13.669-11.081-24.75-24.75-24.75h-127.351c-18.364 0-33.2503-14.887-33.2503-33.25 0-18.364 14.8863-33.25 33.2503-33.25h105.463c27.062 0 49-21.938 49-49v-339.002" opacity=".08" stroke="#484782" stroke-width="4"/><rect fill="#e0edef" height="15.8157" rx="7.90787" width="35.3888" x="183" y="220.001"/><path d="m-231.493 32h255.7449c21.8152 0 39.5-17.6848 39.5-39.5 0-21.8152-17.6847-39.5-39.5-39.5h-338.2869" opacity=".08" stroke="#484782" stroke-width="4"/><rect fill="#ffc9d2" height="16" rx="8" transform="matrix(-1 0 0 -1 88 80)" width="18" x="44" y="40"/><path d="m294 405c0-34.242 27.758-62 62-62h415" opacity=".08" stroke="#e14963" stroke-width="3.98933"/><path d="m345.069 350.051c-3.124 3.124-8.19 3.124-11.314 0-3.124-3.124-3.124-8.189 0-11.314 3.124-3.124 8.19-3.124 11.314 0 3.124 3.125 3.124 8.19 0 11.314z" fill="#fcf5e8"/></g></svg>