<svg fill="none" height="312" viewBox="0 0 112 312" width="112" xmlns="http://www.w3.org/2000/svg"><g stroke="#484782" stroke-width="4"><path d="m229 178h81c11.598 0 21-9.402 21-21 0-11.598-9.402-21-21-21h-228.4981c-36.808 0-66.7235-29.693-66.9982-66.5-.2776-37.1975 29.7997-67.5 66.9982-67.5l115.4981-.00001"/><path d="m-6 181h81c12.1503 0 22 9.85 22 22 0 12.15-9.8497 22-22 22h-97"/><rect height="309" rx="39" transform="matrix(0 -1 1 0 -437 277)" width="78" x="-80" y="357"/></g><circle cx="53.5" cy="128.5" fill="#f6992c" r="11" transform="matrix(0 -1 1 0 -75 182)"/></svg>