<svg fill="none" height="108" viewBox="0 0 557 108" width="557" xmlns="http://www.w3.org/2000/svg"><g stroke-width="4"><g stroke="#484782"><path d="m555 119.001v-89"/><path d="m279 161.832v-114.832c0-19.8823 16.118-36 36-36 19.882 0 36 16.1177 36 36v137"/><path d="m213-66.2026v-96.6214c0-13.904-11.272-25.176-25.176-25.176-13.905 0-25.176 11.272-25.176 25.176v176.9009c0 44.1286-35.6 79.9936-79.7271 80.3216-44.5937.3315-80.92088-35.7266-80.92088-80.3216l-.00001-42.0685"/><path d="m160.5 184.5v-71c0-12.15 9.85-22 22-22 12.15 0 22 9.85 22 22v77"/></g><circle cx="351" cy="107" fill="#2fabaf" r="9" stroke="#2fabaf" transform="matrix(0 -1 1 0 244 458)"/></g></svg>