<svg width="20" height="20" viewBox="0 0 20 20" fill="none" xmlns="http://www.w3.org/2000/svg">
<path fill-rule="evenodd" clip-rule="evenodd" d="M17.9167 0.833333C17.9167 0.373096 17.5436 0 17.0833 0C16.6231 0 16.25 0.373096 16.25 0.833333V2.08333H15C14.5398 2.08333 14.1667 2.45643 14.1667 2.91667C14.1667 3.3769 14.5398 3.75 15 3.75H16.25V5C16.25 5.46024 16.6231 5.83333 17.0833 5.83333C17.5436 5.83333 17.9167 5.46024 17.9167 5V3.75H19.1667C19.6269 3.75 20 3.3769 20 2.91667C20 2.45643 19.6269 2.08333 19.1667 2.08333H17.9167V0.833333ZM10.2917 8.91667H9.5C9.29004 8.91667 9.08867 8.83326 8.94021 8.68479C8.79174 8.53633 8.70833 8.33496 8.70833 8.125C8.70833 7.91504 8.79174 7.71367 8.94021 7.56521C9.08867 7.41674 9.29004 7.33333 9.5 7.33333H10.2917C10.5016 7.33333 10.703 7.41674 10.8515 7.56521C10.9999 7.71367 11.0833 7.91504 11.0833 8.125C11.0833 8.33496 10.9999 8.53633 10.8515 8.68479C10.703 8.83326 10.5016 8.91667 10.2917 8.91667ZM10.2917 12.0833H9.5C9.29004 12.0833 9.08867 11.9999 8.94021 11.8515C8.79174 11.703 8.70833 11.5016 8.70833 11.2917C8.70833 11.0817 8.79174 10.8803 8.94021 10.7319C9.08867 10.5834 9.29004 10.5 9.5 10.5H10.2917C10.5016 10.5 10.703 10.5834 10.8515 10.7319C10.9999 10.8803 11.0833 11.0817 11.0833 11.2917C11.0833 11.5016 10.9999 11.703 10.8515 11.8515C10.703 11.9999 10.5016 12.0833 10.2917 12.0833ZM6.33333 8.91667H5.54167C5.3317 8.91667 5.13034 8.83326 4.98187 8.68479C4.83341 8.53633 4.75 8.33496 4.75 8.125C4.75 7.91504 4.83341 7.71367 4.98187 7.56521C5.13034 7.41674 5.3317 7.33333 5.54167 7.33333H6.33333C6.5433 7.33333 6.74466 7.41674 6.89313 7.56521C7.04159 7.71367 7.125 7.91504 7.125 8.125C7.125 8.33496 7.04159 8.53633 6.89313 8.68479C6.74466 8.83326 6.5433 8.91667 6.33333 8.91667ZM6.33333 12.0833H5.54167C5.3317 12.0833 5.13034 11.9999 4.98187 11.8515C4.83341 11.703 4.75 11.5016 4.75 11.2917C4.75 11.0817 4.83341 10.8803 4.98187 10.7319C5.13034 10.5834 5.3317 10.5 5.54167 10.5H6.33333C6.5433 10.5 6.74466 10.5834 6.89313 10.7319C7.04159 10.8803 7.125 11.0817 7.125 11.2917C7.125 11.5016 7.04159 11.703 6.89313 11.8515C6.74466 11.9999 6.5433 12.0833 6.33333 12.0833ZM14.25 18.4167H15.0417C15.2516 18.4167 15.453 18.5001 15.6015 18.6485C15.7499 18.797 15.8333 18.9984 15.8333 19.2083C15.8333 19.4183 15.7499 19.6197 15.6015 19.7681C15.453 19.9166 15.2516 20 15.0417 20H0.791667C0.581704 20 0.38034 19.9166 0.231874 19.7681C0.0834075 19.6197 0 19.4183 0 19.2083C0 18.9984 0.0834075 18.797 0.231874 18.6485C0.38034 18.5001 0.581704 18.4167 0.791667 18.4167H1.58333V4.95833C1.58333 4.74837 1.66674 4.54701 1.81521 4.39854C1.96367 4.25007 2.16504 4.16667 2.375 4.16667H13.4583C13.6683 4.16667 13.8697 4.25007 14.0181 4.39854C14.1666 4.54701 14.25 4.74837 14.25 4.95833V18.4167ZM7.125 18.4167H8.70833V15.25H7.125V18.4167ZM10.2917 18.4167H12.6667V5.75H3.16667V18.4167H5.54167V14.4583C5.54167 14.2484 5.62507 14.047 5.77354 13.8985C5.92201 13.7501 6.12337 13.6667 6.33333 13.6667H9.5C9.70996 13.6667 9.91133 13.7501 10.0598 13.8985C10.2083 14.047 10.2917 14.2484 10.2917 14.4583V18.4167Z" fill="white"/>
</svg>
