<svg width="24" height="24" viewBox="0 0 24 24" fill="none" xmlns="http://www.w3.org/2000/svg">
<path fill-rule="evenodd" clip-rule="evenodd" d="M11.9988 0.897461C11.4832 0.897461 10.9763 1.03035 10.527 1.2833C10.0777 1.53626 9.70121 1.90074 9.4338 2.34158L9.43093 2.34633L0.960933 16.4863L0.95281 16.5001C0.690862 16.9538 0.55226 17.4681 0.550793 17.9919C0.549326 18.5158 0.685046 19.0308 0.944449 19.4859C1.20385 19.941 1.5779 20.3203 2.02937 20.5859C2.47936 20.8507 2.99064 20.9935 3.51266 21.0001L3.51781 21.0002L20.4688 21.0003L20.4798 21.0001C21.0036 20.9944 21.5168 20.8516 21.9682 20.5859C22.4197 20.3203 22.7937 19.941 23.0532 19.4859C23.3126 19.0308 23.4483 18.5158 23.4468 17.9919C23.4453 17.4681 23.3067 16.9538 23.0448 16.5001L14.5667 2.34633L14.5638 2.34158C14.2964 1.90074 13.9199 1.53626 13.4706 1.2833C13.0213 1.03035 12.5144 0.897461 11.9988 0.897461ZM11 8C11 7.44775 11.4477 7 12 7C12.5523 7 13 7.44775 13 8V12C13 12.5522 12.5523 13 12 13C11.4477 13 11 12.5522 11 12V8ZM11 16C11 15.4478 11.4477 15 12 15C12.5523 15 13 15.4478 13 16C13 16.5522 12.5523 17 12 17C11.4477 17 11 16.5522 11 16Z" fill="#F6992C"/>
</svg>
