<svg width="32" height="32" viewBox="0 0 32 32" fill="none" xmlns="http://www.w3.org/2000/svg">
<path fill-rule="evenodd" clip-rule="evenodd" d="M10.4807 1.33333C10.127 1.33333 9.78789 1.4738 9.53784 1.72385L1.72451 9.53719C1.47446 9.78723 1.33398 10.1264 1.33398 10.48V21.52C1.33398 21.8736 1.47446 22.2128 1.72451 22.4628L9.53784 30.2761C9.78789 30.5262 10.127 30.6667 10.4807 30.6667H21.5206C21.8743 30.6667 22.2134 30.5262 22.4635 30.2761L30.2768 22.4628C30.5268 22.2128 30.6673 21.8736 30.6673 21.52V10.48C30.6673 10.1264 30.5268 9.78723 30.2768 9.53719L22.4635 1.72385C22.2134 1.4738 21.8743 1.33333 21.5206 1.33333H10.4807ZM14.6807 16C14.6807 16.7364 15.2776 17.3333 16.014 17.3333C16.7504 17.3333 17.3473 16.7364 17.3473 16L17.3473 10.6667C17.3473 9.93028 16.7504 9.33333 16.014 9.33333C15.2776 9.33333 14.6807 9.93028 14.6807 10.6667L14.6807 16ZM17.3473 21.3333C17.3473 22.0697 16.7504 22.6667 16.014 22.6667H16.0007C15.2643 22.6667 14.6673 22.0697 14.6673 21.3333C14.6673 20.5969 15.2643 20 16.0007 20H16.014C16.7504 20 17.3473 20.5969 17.3473 21.3333Z" fill="#C03950"/>
</svg>
