<svg width="24" height="24" viewBox="0 0 24 24" fill="none" xmlns="http://www.w3.org/2000/svg">
<path d="M5 10.9959H16.59L11.29 5.70913C11.1017 5.52094 10.9959 5.2657 10.9959 4.99957C10.9959 4.73343 11.1017 4.47819 11.29 4.29C11.4783 4.10182 11.7337 3.99609 12 3.99609C12.2663 3.99609 12.5217 4.10182 12.71 4.29L19.71 11.2857C19.801 11.3807 19.8724 11.4928 19.92 11.6155C20.02 11.8588 20.02 12.1317 19.92 12.375C19.8724 12.4977 19.801 12.6098 19.71 12.7048L12.71 19.7005C12.617 19.7941 12.5064 19.8685 12.3846 19.9192C12.2627 19.97 12.132 19.9961 12 19.9961C11.868 19.9961 11.7373 19.97 11.6154 19.9192C11.4936 19.8685 11.383 19.7941 11.29 19.7005C11.1963 19.6076 11.1219 19.497 11.0711 19.3753C11.0203 19.2535 10.9942 19.1228 10.9942 18.9909C10.9942 18.859 11.0203 18.7284 11.0711 18.6066C11.1219 18.4848 11.1963 18.3743 11.29 18.2814L16.59 12.9946H5C4.73478 12.9946 4.48043 12.8893 4.29289 12.7019C4.10536 12.5145 4 12.2603 4 11.9952C4 11.7302 4.10536 11.476 4.29289 11.2886C4.48043 11.1012 4.73478 10.9959 5 10.9959Z" fill="#211F30"/>
</svg>
