<svg width="14" height="14" viewBox="0 0 14 14" fill="none" xmlns="http://www.w3.org/2000/svg">
<path d="M12.7752 6.17498H3.21343L7.58593 1.81073C7.74128 1.65538 7.82856 1.44468 7.82856 1.22498C7.82856 1.00528 7.74128 0.794583 7.58593 0.639232C7.43058 0.483882 7.21988 0.396606 7.00018 0.396606C6.78048 0.396606 6.56978 0.483882 6.41443 0.639232L0.639433 6.41423C0.564325 6.49269 0.505448 6.58521 0.466183 6.68648C0.383668 6.88734 0.383668 7.11263 0.466183 7.31348C0.505448 7.41475 0.564325 7.50727 0.639433 7.58573L6.41443 13.3607C6.49113 13.4381 6.58237 13.4994 6.68291 13.5413C6.78344 13.5832 6.89127 13.6048 7.00018 13.6048C7.10909 13.6048 7.21693 13.5832 7.31746 13.5413C7.41799 13.4994 7.50924 13.4381 7.58593 13.3607C7.66326 13.284 7.72463 13.1928 7.76652 13.0923C7.8084 12.9917 7.82997 12.8839 7.82997 12.775C7.82997 12.6661 7.8084 12.5582 7.76652 12.4577C7.72463 12.3572 7.66326 12.2659 7.58593 12.1892L3.21343 7.82498H12.7752C12.994 7.82498 13.2038 7.73806 13.3585 7.58334C13.5133 7.42863 13.6002 7.21878 13.6002 6.99998C13.6002 6.78118 13.5133 6.57134 13.3585 6.41662C13.2038 6.2619 12.994 6.17498 12.7752 6.17498Z" fill="#211F30"/>
</svg>
