<svg width="24" height="24" viewBox="0 0 24 24" fill="none" xmlns="http://www.w3.org/2000/svg">
<path d="M10.3499 9.38307C10.3499 8.06696 11.2862 7.19101 12.3931 7.19101C13.5 7.19101 14.5 8.06696 14.5 9.38307V10.8783C14.5 12.1944 13.5 13.0001 12.3931 13C11.5 13 10.3499 12.1944 10.3499 10.8783V9.38307Z" fill="#211F30"/>
<path d="M10.6231 14.0917C11.2149 13.7858 11.8529 13.6266 12.5 13.6266C13.147 13.6266 13.7851 13.7858 14.3769 14.0917C14.9683 14.3974 15.4997 14.8425 15.9436 15.3964C16.3874 15.9503 16.736 16.6033 16.9727 17.3165C17.0248 17.4737 17.0015 17.6478 16.9099 17.7836C16.8184 17.9194 16.67 18 16.5119 18H8.48812C8.32997 18 8.18163 17.9194 8.09009 17.7836C7.99854 17.6478 7.97516 17.4737 8.02733 17.3165C8.26404 16.6033 8.6126 15.9503 9.05637 15.3964C9.50026 14.8425 10.0317 14.3974 10.6231 14.0917Z" fill="#211F30"/>
<path fill-rule="evenodd" clip-rule="evenodd" d="M23 19C23 20.6569 21.6569 22 20 22H4C2.34315 22 1 20.6569 1 19V6C1 4.34315 2.34315 3 4 3H20C21.6569 3 23 4.34315 23 6V19ZM4 5C3.44772 5 3 5.44772 3 6V19C3 19.5523 3.44772 20 4 20H20C20.5523 20 21 19.5523 21 19V6C21 5.44772 20.5523 5 20 5H4Z" fill="#211F30"/>
</svg>
