<svg width="51" height="50" viewBox="0 0 51 50" fill="none" xmlns="http://www.w3.org/2000/svg">
<path d="M0.5 25C0.5 11.1929 11.6929 0 25.5 0V0C39.3071 0 50.5 11.1929 50.5 25V25C50.5 38.8071 39.3071 50 25.5 50V50C11.6929 50 0.5 38.8071 0.5 25V25Z" fill="#E14963"/>
<g clip-path="url(#clip0_4950_28616)">
<path fill-rule="evenodd" clip-rule="evenodd" d="M35.7929 13.2929C36.1834 12.9024 36.8166 12.9024 37.2071 13.2929C37.5976 13.6834 37.5976 14.3166 37.2071 14.7071L31.9198 19.9945L32.5 21.0011C32.5002 24.3531 33.2172 26.4348 33.8779 27.6462C34.2097 28.2544 34.5328 28.6535 34.7572 28.8904C34.8697 29.0091 34.9581 29.0878 35.0113 29.1322C35.0379 29.1544 35.0558 29.168 35.0635 29.1737L35.0664 29.1758C35.4248 29.4221 35.5835 29.8725 35.4571 30.2898C35.3294 30.7116 34.9407 31 34.5 31H20.9142L15.2071 36.7071C14.8166 37.0976 14.1834 37.0976 13.7929 36.7071C13.4024 36.3166 13.4024 35.6834 13.7929 35.2929L30.5208 18.565C30.5291 18.5564 30.5376 18.5479 30.5462 18.5396L35.7929 13.2929ZM30.5034 21.4108C30.5597 24.83 31.3149 27.1239 32.1221 28.6039C32.1982 28.7434 32.2746 28.8753 32.3507 29H22.9142L30.5034 21.4108Z" fill="#F7F7FD"/>
<path d="M25.8373 13.9992C24.5706 13.9381 23.3112 14.2222 22.1935 14.8212C21.0758 15.4202 20.1418 16.3116 19.4913 17.4001C18.8407 18.4886 18.4981 19.7334 18.5 21.0015C18.5 21.0102 18.5001 21.0188 18.5003 21.0275C18.5247 22.6173 18.3244 24.2026 17.9054 25.7365C17.7598 26.2693 18.0738 26.8191 18.6065 26.9647C19.1393 27.1102 19.6892 26.7963 19.8347 26.2635C20.3041 24.5451 20.5281 22.7689 20.5 20.9877C20.5006 20.0857 20.7452 19.2005 21.208 18.4261C21.6727 17.6486 22.3398 17.0119 23.1382 16.584C23.9366 16.1562 24.8362 15.9533 25.7409 15.9969C26.6456 16.0405 27.5215 16.3291 28.275 16.8318C28.7344 17.1384 29.3553 17.0144 29.6618 16.555C29.9683 16.0956 29.8444 15.4747 29.385 15.1681C28.3301 14.4643 27.1039 14.0603 25.8373 13.9992Z" fill="#F7F7FD"/>
<path d="M27.7318 33.135C27.2541 32.8579 26.6422 33.0205 26.3651 33.4982C26.2772 33.6497 26.151 33.7755 25.9992 33.863C25.8474 33.9504 25.6753 33.9964 25.5001 33.9964C25.3249 33.9964 25.1528 33.9504 25.0009 33.863C24.8491 33.7755 24.723 33.6497 24.6351 33.4982C24.3579 33.0205 23.746 32.8579 23.2683 33.135C22.7906 33.4121 22.6279 34.024 22.9051 34.5018C23.1688 34.9564 23.5473 35.3337 24.0027 35.596C24.4581 35.8584 24.9745 35.9964 25.5001 35.9964C26.0256 35.9964 26.542 35.8584 26.9974 35.596C27.4528 35.3337 27.8313 34.9564 28.0951 34.5018C28.3722 34.024 28.2096 33.4121 27.7318 33.135Z" fill="#F7F7FD"/>
</g>
<defs>
<clipPath id="clip0_4950_28616">
<rect width="24" height="24" fill="white" transform="translate(13.5 13)"/>
</clipPath>
</defs>
</svg>
