<svg width="24" height="24" viewBox="0 0 24 24" fill="none" xmlns="http://www.w3.org/2000/svg">
<g clip-path="url(#clip0_37_13356)">
<path fill-rule="evenodd" clip-rule="evenodd" d="M22.2929 0.292893C22.6834 -0.0976311 23.3166 -0.0976311 23.7071 0.292893C24.0976 0.683417 24.0976 1.31658 23.7071 1.70711L18.4198 6.99446L19 8.00109C19.0002 11.3531 19.7172 13.4348 20.3779 14.6462C20.7097 15.2544 21.0328 15.6535 21.2572 15.8904C21.3697 16.0091 21.4581 16.0878 21.5113 16.1322C21.5379 16.1544 21.5558 16.168 21.5635 16.1737L21.5664 16.1758C21.9248 16.4221 22.0835 16.8725 21.9571 17.2898C21.8294 17.7116 21.4407 18 21 18H7.4142L1.70711 23.7071C1.31658 24.0976 0.683418 24.0976 0.292892 23.7071C-0.0976315 23.3166 -0.0976315 22.6834 0.292892 22.2929L17.0208 5.56496C17.0291 5.55636 17.0376 5.5479 17.0462 5.53958L22.2929 0.292893ZM17.0034 8.41082C17.0597 11.83 17.8149 14.1239 18.6221 15.6039C18.6982 15.7434 18.7746 15.8753 18.8507 16H9.4142L17.0034 8.41082Z" fill="#211F30"/>
<path d="M12.3373 0.999221C11.0706 0.938119 9.81121 1.22224 8.6935 1.82122C7.57579 2.42021 6.64178 3.31157 5.99125 4.40008C5.34072 5.4886 4.99809 6.73338 4.99997 8.00148C4.99999 8.01017 5.00011 8.01884 5.00034 8.02748C5.02467 9.61731 4.82437 11.2026 4.40538 12.7365C4.25985 13.2693 4.57376 13.8191 5.10653 13.9647C5.63929 14.1102 6.18916 13.7963 6.33469 13.2635C6.80411 11.5451 7.02808 9.76888 6.99997 7.98771C7.00058 7.08567 7.2452 6.20051 7.70803 5.42608C8.17269 4.64857 8.83984 4.01189 9.6382 3.58404C10.4366 3.15619 11.3362 2.95325 12.2409 2.9969C13.1456 3.04054 14.0215 3.32913 14.775 3.83184C15.2344 4.13836 15.8553 4.01441 16.1618 3.55499C16.4683 3.09558 16.3444 2.47466 15.885 2.16814C14.8301 1.46435 13.6039 1.06032 12.3373 0.999221Z" fill="#211F30"/>
<path d="M14.2318 20.135C13.7541 19.8579 13.1422 20.0205 12.8651 20.4982C12.7772 20.6497 12.651 20.7755 12.4992 20.863C12.3474 20.9504 12.1753 20.9964 12.0001 20.9964C11.8249 20.9964 11.6528 20.9504 11.5009 20.863C11.3491 20.7755 11.223 20.6497 11.1351 20.4982C10.8579 20.0205 10.246 19.8579 9.76829 20.135C9.29056 20.4121 9.12794 21.024 9.40506 21.5018C9.66878 21.9564 10.0473 22.3337 10.5027 22.596C10.9581 22.8584 11.4745 22.9964 12.0001 22.9964C12.5256 22.9964 13.042 22.8584 13.4974 22.596C13.9528 22.3337 14.3313 21.9564 14.5951 21.5018C14.8722 21.024 14.7096 20.4121 14.2318 20.135Z" fill="#211F30"/>
</g>
<defs>
<clipPath id="clip0_37_13356">
<rect width="24" height="24" fill="white"/>
</clipPath>
</defs>
</svg>
