<svg width="24" height="24" viewBox="0 0 24 24" fill="none" xmlns="http://www.w3.org/2000/svg">
<path d="M6 13C5.4 13 5 13.4 5 14C5 14.6 5.4 15 6 15C6.6 15 7 14.6 7 14C7 13.4 6.6 13 6 13ZM6 17C5.4 17 5 17.5 5 18C5 18.5 5.4 19 6 19C6.6 19 7 18.5 7 18C7 17.5 6.6 17 6 17ZM6 9C5.4 9 5 9.4 5 10C5 10.6 5.4 11 6 11C6.6 11 7 10.6 7 10C7 9.4 6.6 9 6 9ZM3 9.5C2.7 9.5 2.5 9.7 2.5 10C2.5 10.3 2.7 10.5 3 10.5C3.3 10.5 3.5 10.3 3.5 10C3.5 9.7 3.3 9.5 3 9.5ZM6 5C5.4 5 5 5.4 5 6C5 6.6 5.4 7 6 7C6.6 7 7 6.6 7 6C7 5.4 6.6 5 6 5ZM21 10.5C21.3 10.5 21.5 10.3 21.5 10C21.5 9.7 21.3 9.5 21 9.5C20.7 9.5 20.5 9.7 20.5 10C20.5 10.3 20.7 10.5 21 10.5ZM14 7C14.6 7 15 6.6 15 6C15 5.4 14.6 5 14 5C13.4 5 13 5.4 13 6C13 6.6 13.4 7 14 7ZM14 3.5C14.3 3.5 14.5 3.3 14.5 3C14.5 2.7 14.3 2.5 14 2.5C13.7 2.5 13.5 2.7 13.5 3C13.5 3.3 13.7 3.5 14 3.5ZM3 13.5C2.7 13.5 2.5 13.7 2.5 14C2.5 14.3 2.7 14.5 3 14.5C3.3 14.5 3.5 14.3 3.5 14C3.5 13.7 3.3 13.5 3 13.5ZM10 20.5C9.7 20.5 9.5 20.7 9.5 21C9.5 21.3 9.7 21.5 10 21.5C10.3 21.5 10.5 21.3 10.5 21C10.5 20.7 10.3 20.5 10 20.5ZM10 3.5C10.3 3.5 10.5 3.3 10.5 3C10.5 2.7 10.3 2.5 10 2.5C9.7 2.5 9.5 2.7 9.5 3C9.5 3.3 9.7 3.5 10 3.5ZM10 7C10.6 7 11 6.6 11 6C11 5.4 10.6 5 10 5C9.4 5 9 5.4 9 6C9 6.6 9.4 7 10 7ZM10 12.5C9.2 12.5 8.5 13.2 8.5 14C8.5 14.8 9.2 15.5 10 15.5C10.8 15.5 11.5 14.8 11.5 14C11.5 13.2 10.8 12.5 10 12.5ZM18 13C17.5 13 17 13.4 17 14C17 14.6 17.5 15 18 15C18.5 15 19 14.6 19 14C19 13.4 18.5 13 18 13ZM18 17C17.5 17 17 17.5 17 18C17 18.5 17.5 19 18 19C18.5 19 19 18.5 19 18C19 17.5 18.5 17 18 17ZM18 9C17.5 9 17 9.4 17 10C17 10.6 17.5 11 18 11C18.5 11 19 10.6 19 10C19 9.4 18.5 9 18 9ZM18 5C17.5 5 17 5.4 17 6C17 6.6 17.5 7 18 7C18.5 7 19 6.6 19 6C19 5.4 18.5 5 18 5ZM21 13.5C20.7 13.5 20.5 13.7 20.5 14C20.5 14.3 20.7 14.5 21 14.5C21.3 14.5 21.5 14.3 21.5 14C21.5 13.7 21.3 13.5 21 13.5ZM14 17C13.4 17 13 17.5 13 18C13 18.5 13.4 19 14 19C14.6 19 15 18.5 15 18C15 17.5 14.6 17 14 17ZM14 20.5C13.7 20.5 13.5 20.7 13.5 21C13.5 21.3 13.7 21.5 14 21.5C14.3 21.5 14.5 21.3 14.5 21C14.5 20.7 14.3 20.5 14 20.5ZM10 8.5C9.2 8.5 8.5 9.2 8.5 10C8.5 10.8 9.2 11.5 10 11.5C10.8 11.5 11.5 10.8 11.5 10C11.5 9.2 10.8 8.5 10 8.5ZM10 17C9.4 17 9 17.5 9 18C9 18.5 9.4 19 10 19C10.6 19 11 18.5 11 18C11 17.5 10.6 17 10 17ZM14 12.5C13.2 12.5 12.5 13.2 12.5 14C12.5 14.8 13.2 15.5 14 15.5C14.8 15.5 15.5 14.8 15.5 14C15.5 13.2 14.8 12.5 14 12.5ZM14 8.5C13.2 8.5 12.5 9.2 12.5 10C12.5 10.8 13.2 11.5 14 11.5C14.8 11.5 15.5 10.8 15.5 10C15.5 9.2 14.8 8.5 14 8.5Z" fill="black"/>
</svg>
