<svg width="24" height="24" viewBox="0 0 24 24" fill="none" xmlns="http://www.w3.org/2000/svg">
<path d="M0 12C0 5.37258 5.37258 0 12 0C18.6274 0 24 5.37258 24 12C24 18.6274 18.6274 24 12 24C5.37258 24 0 18.6274 0 12Z" fill="#E5E4E9"/>
<path fill-rule="evenodd" clip-rule="evenodd" d="M9.25059 7.6C9.10472 7.6 8.96482 7.65795 8.86168 7.76109C8.75853 7.86424 8.70059 8.00413 8.70059 8.15V15.8812L11.6809 13.7524C11.8721 13.6158 12.129 13.6158 12.3203 13.7524L15.3006 15.8812V8.15C15.3006 8.00413 15.2426 7.86424 15.1395 7.76109C15.0364 7.65795 14.8965 7.6 14.7506 7.6H9.25059ZM8.08386 6.98327C8.39329 6.67384 8.81298 6.5 9.25059 6.5H14.7506C15.1882 6.5 15.6079 6.67384 15.9173 6.98327C16.2267 7.29271 16.4006 7.71239 16.4006 8.15V16.95C16.4006 17.156 16.2854 17.3448 16.1023 17.439C15.9191 17.5333 15.6986 17.5173 15.5309 17.3976L12.0006 14.8759L8.47027 17.3976C8.30262 17.5173 8.08211 17.5333 7.89892 17.439C7.71573 17.3448 7.60059 17.156 7.60059 16.95V8.15C7.60059 7.71239 7.77442 7.29271 8.08386 6.98327Z" fill="#000000"/>
</svg>
