<svg width="14" height="14" viewBox="0 0 14 14" fill="none" xmlns="http://www.w3.org/2000/svg">
<path fill-rule="evenodd" clip-rule="evenodd" d="M4.25059 2.6C4.10472 2.6 3.96482 2.65795 3.86168 2.76109C3.75853 2.86424 3.70059 3.00413 3.70059 3.15V10.8812L6.68091 8.75245C6.87214 8.61585 7.12903 8.61585 7.32027 8.75245L10.3006 10.8812V3.15C10.3006 3.00413 10.2426 2.86424 10.1395 2.76109C10.0364 2.65795 9.89646 2.6 9.75059 2.6H4.25059ZM3.08386 1.98327C3.39329 1.67384 3.81298 1.5 4.25059 1.5H9.75059C10.1882 1.5 10.6079 1.67384 10.9173 1.98327C11.2267 2.29271 11.4006 2.71239 11.4006 3.15V11.95C11.4006 12.156 11.2854 12.3448 11.1023 12.439C10.9191 12.5333 10.6986 12.5173 10.5309 12.3976L7.00059 9.8759L3.47027 12.3976C3.30262 12.5173 3.08211 12.5333 2.89892 12.439C2.71573 12.3448 2.60059 12.156 2.60059 11.95V3.15C2.60059 2.71239 2.77442 2.29271 3.08386 1.98327Z" fill="#000000"/>
</svg>
