<svg width="18" height="18" viewBox="0 0 18 18" fill="none" xmlns="http://www.w3.org/2000/svg">
<path fill-rule="evenodd" clip-rule="evenodd" d="M13.5 2.25L14.25 2.25C15.4926 2.25 16.5 3.25736 16.5 4.5L16.5 15C16.5 16.2426 15.4926 17.25 14.25 17.25L3.75 17.25C2.50736 17.25 1.5 16.2426 1.5 15L1.5 4.5C1.5 3.25736 2.50736 2.25 3.75 2.25L4.5 2.25V1.5C4.5 1.08579 4.83579 0.75 5.25 0.75C5.66421 0.75 6 1.08579 6 1.5L6 2.25L12 2.25V1.5C12 1.08579 12.3358 0.75 12.75 0.75C13.1642 0.75 13.5 1.08579 13.5 1.5V2.25ZM14.25 3.75C14.6642 3.75 15 4.08579 15 4.5V6.75L3 6.75L3 4.5C3 4.08579 3.33579 3.75 3.75 3.75H4.5L4.5 4.5C4.5 4.91421 4.83579 5.25 5.25 5.25C5.66421 5.25 6 4.91421 6 4.5V3.75L12 3.75V4.5C12 4.91421 12.3358 5.25 12.75 5.25C13.1642 5.25 13.5 4.91421 13.5 4.5V3.75H14.25ZM3 8.25L15 8.25L15 15C15 15.4142 14.6642 15.75 14.25 15.75L3.75 15.75C3.33579 15.75 3 15.4142 3 15L3 8.25Z" fill="#7E7C90"/>
</svg>
