<svg width="32" height="32" viewBox="0 0 32 32" fill="none" xmlns="http://www.w3.org/2000/svg">
<path fill-rule="evenodd" clip-rule="evenodd" d="M16.0007 30.6666C24.1008 30.6666 30.6673 24.1002 30.6673 16C30.6673 7.8998 24.1008 1.33331 16.0007 1.33331C7.90047 1.33331 1.33398 7.8998 1.33398 16C1.33398 24.1002 7.90047 30.6666 16.0007 30.6666ZM25.1838 11.8405C25.8321 11.1871 25.828 10.1318 25.1745 9.48352C24.5211 8.83521 23.4658 8.83934 22.8175 9.49276L13.4168 18.9675L9.18326 14.7044C8.53466 14.0512 7.47939 14.0476 6.82625 14.6962C6.17312 15.3448 6.16944 16.4 6.81804 17.0532L12.2347 22.5077C12.5477 22.8229 12.9735 23.0001 13.4177 23C13.8618 22.9999 14.2876 22.8225 14.6004 22.5072L25.1838 11.8405Z" fill="#24A292"/>
</svg>
