<svg width="12" height="12" viewBox="0 0 12 12" fill="none" xmlns="http://www.w3.org/2000/svg">
<path d="M11.5335 1.63346C11.8556 1.31128 11.8556 0.788917 11.5335 0.466735C11.2113 0.144552 10.6889 0.144552 10.3667 0.466735L6.0001 4.83337L1.63346 0.466735C1.31128 0.144552 0.788917 0.144552 0.466735 0.466735C0.144552 0.788917 0.144552 1.31128 0.466735 1.63346L4.83337 6.0001L0.466735 10.3667C0.144552 10.6889 0.144552 11.2113 0.466735 11.5335C0.788917 11.8556 1.31128 11.8556 1.63346 11.5335L6.0001 7.16682L10.3667 11.5335C10.6889 11.8556 11.2113 11.8556 11.5335 11.5335C11.8556 11.2113 11.8556 10.6889 11.5335 10.3667L7.16682 6.0001L11.5335 1.63346Z" fill="#211F30"/>
</svg>
