<svg width="16" height="16" viewBox="0 0 16 16" fill="none" xmlns="http://www.w3.org/2000/svg">
<path fill-rule="evenodd" clip-rule="evenodd" d="M9.5 4.75H10.25C10.4489 4.75 10.6397 4.67098 10.7803 4.53033C10.921 4.38968 11 4.19891 11 4C11 3.80109 10.921 3.61032 10.7803 3.46967C10.6397 3.32902 10.4489 3.25 10.25 3.25H9.5C9.30109 3.25 9.11032 3.32902 8.96967 3.46967C8.82902 3.61032 8.75 3.80109 8.75 4C8.75 4.19891 8.82902 4.38968 8.96967 4.53033C9.11032 4.67098 9.30109 4.75 9.5 4.75ZM9.5 7.75H10.25C10.4489 7.75 10.6397 7.67098 10.7803 7.53033C10.921 7.38968 11 7.19891 11 7C11 6.80109 10.921 6.61032 10.7803 6.46967C10.6397 6.32902 10.4489 6.25 10.25 6.25H9.5C9.30109 6.25 9.11032 6.32902 8.96967 6.46967C8.82902 6.61032 8.75 6.80109 8.75 7C8.75 7.19891 8.82902 7.38968 8.96967 7.53033C9.11032 7.67098 9.30109 7.75 9.5 7.75ZM5.75 4.75H6.5C6.69891 4.75 6.88968 4.67098 7.03033 4.53033C7.17098 4.38968 7.25 4.19891 7.25 4C7.25 3.80109 7.17098 3.61032 7.03033 3.46967C6.88968 3.32902 6.69891 3.25 6.5 3.25H5.75C5.55109 3.25 5.36032 3.32902 5.21967 3.46967C5.07902 3.61032 5 3.80109 5 4C5 4.19891 5.07902 4.38968 5.21967 4.53033C5.36032 4.67098 5.55109 4.75 5.75 4.75ZM5.75 7.75H6.5C6.69891 7.75 6.88968 7.67098 7.03033 7.53033C7.17098 7.38968 7.25 7.19891 7.25 7C7.25 6.80109 7.17098 6.61032 7.03033 6.46967C6.88968 6.32902 6.69891 6.25 6.5 6.25H5.75C5.55109 6.25 5.36032 6.32902 5.21967 6.46967C5.07902 6.61032 5 6.80109 5 7C5 7.19891 5.07902 7.38968 5.21967 7.53033C5.36032 7.67098 5.55109 7.75 5.75 7.75ZM14.75 13.75H14V1C14 0.801088 13.921 0.610322 13.7803 0.46967C13.6397 0.329018 13.4489 0.25 13.25 0.25H2.75C2.55109 0.25 2.36032 0.329018 2.21967 0.46967C2.07902 0.610322 2 0.801088 2 1V13.75H1.25C1.05109 13.75 0.860322 13.829 0.71967 13.9697C0.579018 14.1103 0.5 14.3011 0.5 14.5C0.5 14.6989 0.579018 14.8897 0.71967 15.0303C0.860322 15.171 1.05109 15.25 1.25 15.25H14.75C14.9489 15.25 15.1397 15.171 15.2803 15.0303C15.421 14.8897 15.5 14.6989 15.5 14.5C15.5 14.3011 15.421 14.1103 15.2803 13.9697C15.1397 13.829 14.9489 13.75 14.75 13.75ZM8.75 13.75H7.25V10.75H8.75V13.75ZM12.5 13.75H10.25V10C10.25 9.80109 10.171 9.61032 10.0303 9.46967C9.88968 9.32902 9.69891 9.25 9.5 9.25H6.5C6.30109 9.25 6.11032 9.32902 5.96967 9.46967C5.82902 9.61032 5.75 9.80109 5.75 10V13.75H3.5V1.75H12.5V13.75Z" fill="#7E7C90"/>
</svg>
