<svg width="24" height="24" viewBox="0 0 24 24" fill="none" xmlns="http://www.w3.org/2000/svg">
<path fill-rule="evenodd" clip-rule="evenodd" d="M20.92 14.62C20.8694 14.4988 20.7983 14.3872 20.71 14.29L15.71 9.29C15.5217 9.1017 15.2663 8.99591 15 8.99591C14.7337 8.99591 14.4783 9.1017 14.29 9.29C14.1017 9.4783 13.9959 9.7337 13.9959 10C13.9959 10.2663 14.1017 10.5217 14.29 10.71L17.59 14H8C7.20435 14 6.44129 13.6839 5.87868 13.1213C5.31607 12.5587 5 11.7956 5 11V4C5 3.73478 4.89464 3.48043 4.70711 3.29289C4.51957 3.10536 4.26522 3 4 3C3.73478 3 3.48043 3.10536 3.29289 3.29289C3.10536 3.48043 3 3.73478 3 4V11C3 12.3261 3.52678 13.5979 4.46447 14.5355C5.40215 15.4732 6.67392 16 8 16H17.59L14.29 19.29C14.1017 19.4783 13.9959 19.7337 13.9959 20C13.9959 20.2663 14.1017 20.5217 14.29 20.71C14.4783 20.8983 14.7337 21.0041 15 21.0041C15.2663 21.0041 15.5217 20.8983 15.71 20.71L20.71 15.71C20.7983 15.6128 20.8694 15.5012 20.92 15.38C21.02 15.1365 21.02 14.8635 20.92 14.62Z" fill="#7E7C90"/>
</svg>
