<svg width="18" height="15" viewBox="0 0 18 15" fill="none" xmlns="http://www.w3.org/2000/svg">
<path fill-rule="evenodd" clip-rule="evenodd" d="M7.1627 1.37959C7.72534 -0.211215 9.93873 -0.307368 10.6372 1.22864L12.5913 5.52592C12.6724 5.70408 12.8753 5.78766 13.0543 5.7256C13.058 5.72286 13.0627 5.71919 13.0688 5.71434L14.262 4.75207C14.3461 4.68422 14.4732 4.59135 14.6384 4.52394C16.069 3.94014 17.5915 5.2743 17.1376 6.79553L15.767 13.3726C15.7616 13.3986 15.7549 13.4242 15.7468 13.4494C15.4973 14.2245 14.7761 14.75 13.9619 14.75H3.66981C2.83016 14.75 2.09287 14.1918 1.86511 13.3836C1.85797 13.3582 1.85216 13.3325 1.84772 13.3066L0.696513 6.57392C0.309146 5.07677 1.80078 3.7971 3.21051 4.36726C3.33196 4.41637 3.42929 4.47788 3.495 4.52268L5.22185 5.70011C5.22679 5.70347 5.23055 5.70594 5.23328 5.7077C5.42532 5.77697 5.64275 5.67707 5.71268 5.47936L7.1627 1.37959ZM9.27176 1.84956C9.13206 1.54236 8.68939 1.56159 8.57686 1.87975L7.12683 5.97952C6.76897 6.99133 5.6439 7.48794 4.6639 7.09573C4.54046 7.04632 4.44201 6.98388 4.37684 6.93944L2.64998 5.76201C2.64437 5.75818 2.64024 5.75549 2.63737 5.75368C2.35901 5.6507 2.06819 5.91301 2.15176 6.20952C2.1589 6.23488 2.16471 6.26059 2.16915 6.28656L3.31781 13.0043C3.3716 13.1509 3.51162 13.25 3.66981 13.25H13.9619C14.115 13.25 14.2516 13.1571 14.3089 13.0173L15.6763 6.45497C15.6817 6.42904 15.6885 6.40342 15.6966 6.37821C15.7926 6.08007 15.5006 5.80595 15.2198 5.90712C15.2158 5.91002 15.2105 5.91408 15.2036 5.91968L14.0104 6.88195C13.9271 6.94911 13.7985 7.04361 13.6302 7.11124C12.7105 7.48066 11.645 7.06844 11.2259 6.14684L9.27176 1.84956Z" fill="#7E7C90"/>
</svg>
