<svg width="18" height="18" viewBox="0 0 18 18" fill="none" xmlns="http://www.w3.org/2000/svg">
<path fill-rule="evenodd" clip-rule="evenodd" d="M13.5 1.4082C12.8791 1.4082 12.2837 1.65484 11.8447 2.09386L2.46969 11.4689C2.37357 11.565 2.30538 11.6854 2.27241 11.8173L1.52241 14.8173C1.45851 15.0729 1.5334 15.3432 1.71969 15.5295C1.90597 15.7158 2.17634 15.7907 2.43192 15.7268L5.43192 14.9768C5.56379 14.9438 5.68423 14.8756 5.78035 14.7795L15.1553 5.40452C15.3727 5.18714 15.5452 4.92907 15.6628 4.64505C15.7805 4.36103 15.841 4.05662 15.841 3.74919C15.841 3.44177 15.7805 3.13736 15.6628 2.85333C15.5452 2.56931 15.3727 2.31124 15.1553 2.09386C14.938 1.87648 14.6799 1.70405 14.3959 1.5864C14.1119 1.46875 13.8074 1.4082 13.5 1.4082ZM12.9053 3.15452C13.0631 2.99681 13.277 2.9082 13.5 2.9082C13.6105 2.9082 13.7198 2.92996 13.8218 2.97222C13.9239 3.01448 14.0166 3.07643 14.0947 3.15452C14.1728 3.23262 14.2347 3.32533 14.277 3.42736C14.3193 3.52939 14.341 3.63875 14.341 3.74919C14.341 3.85963 14.3193 3.96899 14.277 4.07103C14.2347 4.17306 14.1728 4.26577 14.0947 4.34386L4.86658 13.572L3.28079 13.9684L3.67724 12.3826L12.9053 3.15452Z" fill="#7E7C90"/>
<path d="M9 14.2492C8.58579 14.2492 8.25 14.585 8.25 14.9992C8.25 15.4134 8.58579 15.7492 9 15.7492H15.75C16.1642 15.7492 16.5 15.4134 16.5 14.9992C16.5 14.585 16.1642 14.2492 15.75 14.2492H9Z" fill="#7E7C90"/>
</svg>
