<svg width="16" height="15" viewBox="0 0 16 15" fill="none" xmlns="http://www.w3.org/2000/svg">
<path fill-rule="evenodd" clip-rule="evenodd" d="M12.5 0.408936C11.8791 0.408936 11.2837 0.655575 10.8447 1.0946L1.46969 10.4696C1.37357 10.5657 1.30538 10.6861 1.27241 10.818L0.522409 13.818C0.458514 14.0736 0.533401 14.344 0.719686 14.5303C0.905971 14.7165 1.17634 14.7914 1.43192 14.7275L4.43192 13.9775C4.56379 13.9446 4.68423 13.8764 4.78035 13.7803L14.1553 4.40526C14.3727 4.18788 14.5452 3.92981 14.6628 3.64578C14.7805 3.36176 14.841 3.05735 14.841 2.74993C14.841 2.4425 14.7805 2.13809 14.6628 1.85407C14.5452 1.57004 14.3727 1.31198 14.1553 1.0946C13.938 0.877215 13.6799 0.704779 13.3959 0.587133C13.1119 0.469487 12.8074 0.408936 12.5 0.408936ZM11.9053 2.15526C12.0631 1.99754 12.277 1.90894 12.5 1.90894C12.6105 1.90894 12.7198 1.93069 12.8218 1.97295C12.9239 2.01522 13.0166 2.07716 13.0947 2.15526C13.1728 2.23335 13.2347 2.32606 13.277 2.42809C13.3193 2.53013 13.341 2.63949 13.341 2.74993C13.341 2.86037 13.3193 2.96972 13.277 3.07176C13.2347 3.17379 13.1728 3.2665 13.0947 3.3446L3.86658 12.5727L2.28079 12.9691L2.67724 11.3834L11.9053 2.15526Z" fill="#7E7C90"/>
<path d="M8 13.2499C7.58579 13.2499 7.25 13.5857 7.25 13.9999C7.25 14.4142 7.58579 14.7499 8 14.7499H14.75C15.1642 14.7499 15.5 14.4142 15.5 13.9999C15.5 13.5857 15.1642 13.2499 14.75 13.2499H8Z" fill="#7E7C90"/>
</svg>
