<svg width="19" height="18" viewBox="0 0 19 18" fill="none" xmlns="http://www.w3.org/2000/svg">
<path fill-rule="evenodd" clip-rule="evenodd" d="M10.1908 15.6667C9.84756 16.6377 8.92152 17.3334 7.83301 17.3334C6.74449 17.3334 5.81846 16.6377 5.47526 15.6667H1.16634C0.706104 15.6667 0.333008 15.2936 0.333008 14.8334C0.333008 14.3731 0.706104 14 1.16634 14H5.47526C5.81846 13.029 6.74449 12.3334 7.83301 12.3334C8.92152 12.3334 9.84756 13.029 10.1908 14H17.833C18.2932 14 18.6663 14.3731 18.6663 14.8334C18.6663 15.2936 18.2932 15.6667 17.833 15.6667H10.1908ZM6.99967 14.8334C6.99967 14.3731 7.37277 14 7.83301 14C8.29324 14 8.66634 14.3731 8.66634 14.8334C8.66634 15.2936 8.29324 15.6667 7.83301 15.6667C7.37277 15.6667 6.99967 15.2936 6.99967 14.8334Z" fill="#E14963"/>
<path fill-rule="evenodd" clip-rule="evenodd" d="M7.69075 4.00002C7.34756 4.97101 6.42152 5.66669 5.33301 5.66669C4.24449 5.66669 3.31846 4.97101 2.97526 4.00002H1.16634C0.706104 4.00002 0.333008 3.62692 0.333008 3.16669C0.333008 2.70645 0.706104 2.33335 1.16634 2.33335H2.97526C3.31846 1.36236 4.24449 0.666687 5.33301 0.666687C6.42152 0.666687 7.34756 1.36236 7.69075 2.33335H17.833C18.2932 2.33335 18.6663 2.70645 18.6663 3.16669C18.6663 3.62692 18.2932 4.00002 17.833 4.00002H7.69075ZM4.49967 3.16669C4.49967 2.70645 4.87277 2.33335 5.33301 2.33335C5.79324 2.33335 6.16634 2.70645 6.16634 3.16669C6.16634 3.62692 5.79324 4.00002 5.33301 4.00002C4.87277 4.00002 4.49967 3.62692 4.49967 3.16669Z" fill="#E14963"/>
<path fill-rule="evenodd" clip-rule="evenodd" d="M16.0241 9.83335C15.6809 10.8043 14.7549 11.5 13.6663 11.5C12.5778 11.5 11.6518 10.8043 11.3086 9.83335H1.16634C0.706104 9.83335 0.333008 9.46026 0.333008 9.00002C0.333008 8.53978 0.706104 8.16669 1.16634 8.16669H11.3086C11.6518 7.19569 12.5778 6.50002 13.6663 6.50002C14.7549 6.50002 15.6809 7.19569 16.0241 8.16669H17.833C18.2932 8.16669 18.6663 8.53978 18.6663 9.00002C18.6663 9.46026 18.2932 9.83335 17.833 9.83335H16.0241ZM12.833 9.00002C12.833 8.53978 13.2061 8.16669 13.6663 8.16669C14.1266 8.16669 14.4997 8.53978 14.4997 9.00002C14.4997 9.46026 14.1266 9.83335 13.6663 9.83335C13.2061 9.83335 12.833 9.46026 12.833 9.00002Z" fill="#E14963"/>
</svg>
