<svg width="24" height="24" viewBox="0 0 24 24" fill="none" xmlns="http://www.w3.org/2000/svg">
<path d="M10.3987 4.28683C10.7926 3.89974 11.4257 3.90528 11.8128 4.2992L13.8761 6.39883C14.2632 6.79275 14.2576 7.42589 13.8637 7.81299L11.7641 9.87622C11.3701 10.2633 10.737 10.2578 10.3499 9.86385C9.96282 9.46993 9.96835 8.83679 10.3623 8.44969L10.5492 8.26599C10.4542 8.30292 10.3603 8.34356 10.2679 8.38787C9.54676 8.73367 8.94562 9.28741 8.54189 9.9778C8.13815 10.6682 7.95031 11.4636 8.00254 12.2617C8.03292 12.7259 8.14371 13.1786 8.32757 13.6005C8.34834 13.6482 8.36657 13.6969 8.38218 13.7464C8.40054 13.8045 8.41529 13.8637 8.4263 13.9232C8.50512 14.3497 8.39289 14.7988 8.04724 15.067C7.6122 15.4045 6.97739 15.3282 6.71647 14.8434C6.63799 14.6975 6.56566 14.5487 6.49963 14.3971C6.48869 14.372 6.47792 14.3469 6.46733 14.3216C6.21126 13.7113 6.0565 13.0595 6.01281 12.3919C5.93459 11.1966 6.21593 10.0052 6.82062 8.97122C7.42531 7.93719 8.32566 7.10783 9.40576 6.58991C9.85176 6.37605 10.32 6.21933 10.7994 6.12141L10.3863 5.70099C9.99922 5.30707 10.0048 4.67393 10.3987 4.28683Z" fill="#211F30"/>
<path d="M11.35 14.0465C11.7371 13.6526 12.3702 13.6471 12.7642 14.0341C13.1581 14.4212 13.1636 15.0544 12.7765 15.4483L12.2179 16.0168C12.2292 16.0142 12.2406 16.0116 12.252 16.0092C12.3027 15.9986 12.3541 15.9906 12.4059 15.9853C12.8637 15.9387 13.3126 15.8133 13.7321 15.6121C14.4532 15.2663 15.0544 14.7126 15.4581 14.0222C15.8618 13.3318 16.0497 12.5364 15.9975 11.7383C15.9671 11.2741 15.8563 10.8214 15.6724 10.3995C15.6517 10.3518 15.6334 10.3031 15.6178 10.2536C15.5995 10.1955 15.5847 10.1363 15.5737 10.0768C15.4949 9.65034 15.6071 9.20123 15.9528 8.93305C16.3878 8.59551 17.0226 8.67176 17.2835 9.15664C17.362 9.30246 17.4343 9.45134 17.5004 9.60287C17.5113 9.62797 17.5221 9.65314 17.5327 9.67838C17.7887 10.2887 17.9435 10.9405 17.9872 11.6081C18.0654 12.8034 17.7841 13.9948 17.1794 15.0288C16.5747 16.0628 15.6743 16.8922 14.5942 17.4101C13.9909 17.6994 13.347 17.8841 12.6895 17.9602C12.6624 17.9633 12.6351 17.9663 12.6079 17.969C12.596 17.9703 12.5841 17.9714 12.5722 17.9726L12.8006 18.197C13.1945 18.5841 13.2 19.2172 12.8129 19.6112C12.4258 20.0051 11.7927 20.0106 11.3988 19.6235L9.29914 17.5603C8.90522 17.1732 8.89968 16.5401 9.28678 16.1461L11.35 14.0465Z" fill="#211F30"/>
<path fill-rule="evenodd" clip-rule="evenodd" d="M1 12C1 5.92487 5.92487 1 12 1C18.0751 1 23 5.92487 23 12C23 18.0751 18.0751 23 12 23C5.92487 23 1 18.0751 1 12ZM12 3C7.02944 3 3 7.02944 3 12C3 16.9706 7.02944 21 12 21C16.9706 21 21 16.9706 21 12C21 7.02944 16.9706 3 12 3Z" fill="#211F30"/>
</svg>
