<svg width="18" height="16" viewBox="0 0 18 16" fill="none" xmlns="http://www.w3.org/2000/svg">
<path fill-rule="evenodd" clip-rule="evenodd" d="M3 2C2.80109 2 2.61032 2.07902 2.46967 2.21967C2.32902 2.36032 2.25 2.55109 2.25 2.75V13.25C2.25 13.4489 2.32902 13.6397 2.46967 13.7803C2.61032 13.921 2.80109 14 3 14H15C15.1989 14 15.3897 13.921 15.5303 13.7803C15.671 13.6397 15.75 13.4489 15.75 13.25V5C15.75 4.80109 15.671 4.61032 15.5303 4.46967C15.3897 4.32902 15.1989 4.25 15 4.25H8.25C7.99924 4.25 7.76506 4.12467 7.62596 3.91602L6.34861 2H3ZM1.40901 1.15901C1.83097 0.737053 2.40326 0.5 3 0.5H6.75C7.00076 0.5 7.23494 0.625326 7.37404 0.833975L8.65139 2.75H15C15.5967 2.75 16.169 2.98705 16.591 3.40901C17.0129 3.83097 17.25 4.40326 17.25 5V13.25C17.25 13.8467 17.0129 14.419 16.591 14.841C16.169 15.2629 15.5967 15.5 15 15.5H3C2.40326 15.5 1.83097 15.2629 1.40901 14.841C0.987053 14.419 0.75 13.8467 0.75 13.25V2.75C0.75 2.15326 0.987053 1.58097 1.40901 1.15901Z" fill="#7E7C90"/>
</svg>
