<svg width="19" height="18" viewBox="0 0 19 18" fill="none" xmlns="http://www.w3.org/2000/svg">
<path fill-rule="evenodd" clip-rule="evenodd" d="M17.2766 1.46483C18.3308 2.42117 18.3437 4.03332 17.3152 5.00566L13.7008 8.6517C13.516 8.8381 13.2882 8.97618 13.0374 9.05377L10.6745 9.78488C10.0854 9.96718 9.44386 9.79462 9.02565 9.34134C8.60744 8.88807 8.48699 8.23478 8.71603 7.66215L9.51603 5.66214C9.60356 5.44331 9.73836 5.24652 9.91078 5.08584L13.7808 1.47934L13.7966 1.46483C14.7738 0.578373 16.2995 0.578373 17.2766 1.46483ZM16.2016 2.64986C15.8343 2.3167 15.2389 2.3167 14.8716 2.64986L11.0016 6.25637L10.2016 8.25638L12.5645 7.52526L16.2016 3.85637C16.5689 3.5232 16.5689 2.98303 16.2016 2.64986Z" fill="white"/>
<path d="M1.44401 17.8566C1.31347 17.8636 1.18322 17.8384 1.06466 17.7834C0.946095 17.7283 0.842826 17.6451 0.763889 17.5409C0.684952 17.4367 0.63275 17.3147 0.611852 17.1857C0.590954 17.0566 0.601995 16.9244 0.64401 16.8006L2.06001 12.5527C1.64184 11.5746 1.43205 10.5202 1.44401 9.45665C1.44346 8.04496 1.83611 6.66102 2.57794 5.45996C3.31978 4.2589 4.38147 3.28819 5.64401 2.65665C6.69673 2.12103 7.8629 1.84663 9.04401 1.85665H9.44401C9.44401 1.85665 10.2016 1.85691 10.2016 2.65665C10.2016 3.45638 9.39601 3.45665 9.39601 3.45665H9.02801C8.10289 3.45685 7.19063 3.67327 6.36401 4.08865C4.94036 4.79947 3.85738 6.04669 3.35329 7.55597C2.84919 9.06525 2.96528 10.713 3.67601 12.1367C3.72445 12.231 3.75364 12.3341 3.76188 12.4398C3.77012 12.5456 3.75725 12.6519 3.72401 12.7527L2.70801 15.7926L5.74801 14.7766C5.84874 14.7434 5.95508 14.7305 6.06083 14.7388C6.16658 14.747 6.26964 14.7762 6.36401 14.8246C7.19082 15.2551 8.112 15.4723 9.04401 15.4566C10.6353 15.4566 12.1614 14.8245 13.2867 13.6993C14.4119 12.5741 15.044 11.0479 15.044 9.45665V9.05665C15.044 9.05665 15.0865 8.25638 15.844 8.25638C16.6016 8.25638 16.644 9.00865 16.644 9.00865V9.45665C16.6452 10.6368 16.3713 11.8009 15.844 12.8567C15.218 14.1214 14.2474 15.1836 13.044 15.9206C11.8376 16.6532 10.4554 17.0457 9.04401 17.0567C7.9854 17.0552 6.93886 16.8318 5.97201 16.4007L1.70001 17.8566C1.61507 17.8682 1.52895 17.8682 1.44401 17.8566Z" fill="white"/>
</svg>
