<svg width="40" height="40" viewBox="0 0 40 40" fill="none" xmlns="http://www.w3.org/2000/svg">
<path d="M0 20C0 8.95431 8.95431 0 20 0C31.0457 0 40 8.95431 40 20C40 31.0457 31.0457 40 20 40C8.95431 40 0 31.0457 0 20Z" fill="#FAF1F3"/>
<path fill-rule="evenodd" clip-rule="evenodd" d="M12.6667 15.6458C12.6667 13.4942 14.4109 11.75 16.5625 11.75C18.7141 11.75 20.4583 13.4942 20.4583 15.6458V18.0903C20.4583 20.2419 18.7141 21.9861 16.5625 21.9861C14.4109 21.9861 12.6667 20.2419 12.6667 18.0903V15.6458ZM16.5625 13.4306C15.339 13.4306 14.3472 14.4224 14.3472 15.6458V18.0903C14.3472 19.3137 15.339 20.3056 16.5625 20.3056C17.786 20.3056 18.7778 19.3137 18.7778 18.0903V15.6458C18.7778 14.4224 17.786 13.4306 16.5625 13.4306Z" fill="#C03950"/>
<path fill-rule="evenodd" clip-rule="evenodd" d="M13.5156 23.3437C14.5343 22.8436 15.6327 22.5833 16.7466 22.5833C17.8604 22.5833 18.9588 22.8436 19.9775 23.3437C20.9956 23.8434 21.9105 24.571 22.6746 25.4766C23.4386 26.382 24.0386 27.4496 24.4461 28.6156C24.5359 28.8726 24.4956 29.1572 24.338 29.3792C24.1805 29.6012 23.9251 29.7331 23.6528 29.7331H9.84028C9.56804 29.7331 9.31266 29.6012 9.15508 29.3792C8.99749 29.1572 8.95723 28.8726 9.04705 28.6156C9.45454 27.4496 10.0546 26.382 10.8185 25.4766C11.5826 24.571 12.4976 23.8434 13.5156 23.3437ZM16.7466 24.2638C15.8971 24.2638 15.0514 24.4619 14.2562 24.8522C13.4603 25.243 12.7271 25.8206 12.1029 26.5604C11.7253 27.0079 11.3928 27.5088 11.1128 28.0525H22.3803C22.1004 27.5088 21.7678 27.0079 21.3902 26.5604C20.766 25.8206 20.0328 25.243 19.2369 24.8522C18.4418 24.4619 17.596 24.2638 16.7466 24.2638Z" fill="#C03950"/>
<path d="M26.4167 11.75C26.9229 11.75 27.3333 12.1604 27.3333 12.6667V14.5H29.1667C29.6729 14.5 30.0833 14.9104 30.0833 15.4167C30.0833 15.9229 29.6729 16.3333 29.1667 16.3333H27.3333V18.1667C27.3333 18.6729 26.9229 19.0833 26.4167 19.0833C25.9104 19.0833 25.5 18.6729 25.5 18.1667V16.3333H23.6667C23.1604 16.3333 22.75 15.9229 22.75 15.4167C22.75 14.9104 23.1604 14.5 23.6667 14.5H25.5V12.6667C25.5 12.1604 25.9104 11.75 26.4167 11.75Z" fill="#C03950"/>
</svg>
