<svg width="18" height="18" viewBox="0 0 18 18" fill="none" xmlns="http://www.w3.org/2000/svg">
<path fill-rule="evenodd" clip-rule="evenodd" d="M9 2.25C5.27208 2.25 2.25 5.27208 2.25 9C2.25 12.7279 5.27208 15.75 9 15.75C12.7279 15.75 15.75 12.7279 15.75 9C15.75 5.27208 12.7279 2.25 9 2.25ZM0.75 9C0.75 4.44365 4.44365 0.75 9 0.75C13.5563 0.75 17.25 4.44365 17.25 9C17.25 13.5563 13.5563 17.25 9 17.25C4.44365 17.25 0.75 13.5563 0.75 9ZM8.25 12.75C8.25 12.3358 8.58579 12 9 12H9.0075C9.42171 12 9.7575 12.3358 9.7575 12.75C9.7575 13.1642 9.42171 13.5 9.0075 13.5H9C8.58579 13.5 8.25 13.1642 8.25 12.75ZM8.17997 6.20342C8.48537 6.02393 8.84444 5.95832 9.19358 6.01821C9.54272 6.0781 9.8594 6.25962 10.0875 6.53062C10.3157 6.80162 10.4405 7.14462 10.44 7.49885L10.44 7.49997C10.44 7.85182 10.1662 8.21863 9.64897 8.56343C9.41319 8.72062 9.17208 8.84171 8.98695 8.92399C8.89546 8.96465 8.82025 8.99468 8.76968 9.01395C8.74445 9.02356 8.72554 9.03042 8.71401 9.03452L8.70204 9.03872C8.30959 9.17001 8.09758 9.59445 8.22848 9.98714C8.35947 10.3801 8.78421 10.5925 9.17717 10.4615L9.30367 10.4157C9.37615 10.3881 9.47672 10.3478 9.59616 10.2947C9.83291 10.1895 10.1543 10.0293 10.481 9.81151C11.0887 9.40639 11.9397 8.64842 11.94 7.50066C11.9409 6.79233 11.6912 6.10651 11.2351 5.56462C10.7788 5.02261 10.1455 4.65957 9.44717 4.5398C8.74889 4.42003 8.03075 4.55125 7.41995 4.91022C6.80915 5.2692 6.3451 5.83276 6.10999 6.50109C5.97254 6.89183 6.17787 7.32002 6.56861 7.45747C6.95935 7.59493 7.38754 7.3896 7.525 6.99885C7.64255 6.66469 7.87457 6.38291 8.17997 6.20342Z" fill="#7E7C90"/>
</svg>
