<svg width="45" height="41" viewBox="0 0 45 41" fill="none" xmlns="http://www.w3.org/2000/svg">
<path d="M12 0C5.37258 0 0 5.37258 0 12V23C0 29.4919 5.15513 34.7798 11.5951 34.9933C13.4158 37.266 17.9346 40.9748 19.5674 40.1661C20.7306 39.5901 20.5613 38.6229 20.341 37.3642C20.2179 36.6613 20.0789 35.8674 20.1473 35H33C39.6274 35 45 29.6274 45 23V12C45 5.37258 39.6274 0 33 0H12Z" fill="#32BCC1"/>
<path fill-rule="evenodd" clip-rule="evenodd" d="M33.111 20.4349C32.7989 21.2023 33.168 22.0773 33.9354 22.3892C34.7028 22.7012 35.578 22.332 35.8901 21.5646C36.1436 20.9413 36.3495 20.0108 36.5199 19.0521C36.6972 18.0542 36.8576 16.8949 36.9915 15.7388C37.2565 13.4514 37.4317 11.0565 37.4122 9.87335C37.3985 9.04508 36.7159 8.38483 35.8875 8.39865C35.0592 8.41247 34.3988 9.09511 34.4124 9.92338C34.4285 10.8995 34.2733 13.1321 34.0113 15.3941C33.8817 16.5127 33.7294 17.6084 33.566 18.5278C33.3957 19.4862 33.233 20.1351 33.111 20.4349ZM21.7549 11.1088C21.9926 10.3152 21.542 9.47921 20.7484 9.24159C19.9548 9.00396 19.1187 9.45467 18.881 10.2483C18.2517 12.3495 17.8879 14.8707 17.7774 17.3491C16.2247 17.7351 14.3738 18.1925 12.7388 18.5908L12.4362 18.6645C12.041 16.0701 11.9314 13.399 12.2425 11.222C12.3597 10.4019 11.7899 9.64209 10.9698 9.5249C10.1497 9.40771 9.3899 9.97752 9.27271 10.7976C8.89745 13.4237 9.05422 16.5043 9.50883 19.3631C9.30267 19.4104 9.12853 19.4495 8.9906 19.4794C8.88233 19.5028 8.80534 19.5185 8.75636 19.5278L8.74795 19.5293C7.99206 19.6066 7.40234 20.2452 7.40234 21.0215C7.40234 21.8499 8.07392 22.5215 8.90234 22.5215C9.08067 22.5215 9.26905 22.4843 9.30635 22.477L9.31168 22.4759C9.3995 22.4594 9.50667 22.4371 9.62492 22.4115C9.75836 22.3827 9.91741 22.3471 10.0979 22.3058C10.6087 24.4052 11.2804 26.3108 12.0432 27.6826C12.4458 28.4066 13.3591 28.6672 14.0831 28.2646C14.8072 27.862 15.0677 26.9487 14.6651 26.2246C14.0694 25.1533 13.4825 23.5227 13.0163 21.6108L13.449 21.5056C14.8401 21.1666 16.3858 20.7854 17.7725 20.4415C17.8759 22.8431 18.2405 25.1359 18.9335 26.7924C19.2532 27.5566 20.1319 27.9169 20.8962 27.5971C21.6605 27.2774 22.0208 26.3986 21.7011 25.6344C21.1311 24.2718 20.7845 22.0285 20.745 19.4614C21.0875 19.1017 21.244 18.5798 21.1147 18.0623C21.0534 17.817 20.9349 17.6011 20.7771 17.4251C20.8819 15.1595 21.2149 12.9117 21.7549 11.1088ZM8.70658 19.5363C8.70709 19.5361 8.71462 19.5348 8.72762 19.533C8.71257 19.5356 8.70606 19.5365 8.70658 19.5363ZM26.1527 15.8261C26.9747 15.9289 27.5577 16.6786 27.4549 17.5006C27.3364 18.4485 27.1925 20.0121 27.1507 21.5814C27.1075 23.2058 27.1817 24.6358 27.4088 25.4303C27.6364 26.2268 27.1753 27.0571 26.3788 27.2848C25.5822 27.5125 24.752 27.0513 24.5243 26.2548C24.1579 24.9729 24.1085 23.1276 24.1518 21.5015C24.1965 19.8202 24.3494 18.158 24.4781 17.1283C24.5809 16.3063 25.3306 15.7233 26.1527 15.8261ZM26.1249 11.3749C26.9479 11.2809 27.6914 11.872 27.7854 12.695L27.8277 13.0658C27.9217 13.8889 27.3307 14.6323 26.5076 14.7263C25.6845 14.8203 24.9411 14.2293 24.8471 13.4062L24.8047 13.0354C24.7107 12.2123 25.3018 11.4689 26.1249 11.3749ZM31.5026 26.5783C31.3803 27.3976 31.9454 28.1608 32.7648 28.283C33.5841 28.4052 34.3475 27.84 34.4699 27.0207L34.525 26.6516C34.6473 25.8322 34.0822 25.069 33.2628 24.9468C32.4434 24.8247 31.68 25.3898 31.5577 26.2092L31.5026 26.5783Z" fill="white"/>
</svg>
