<svg width="32" height="32" viewBox="0 0 32 32" fill="none" xmlns="http://www.w3.org/2000/svg">
<path fill-rule="evenodd" clip-rule="evenodd" d="M16.0007 30.6667C24.1008 30.6667 30.6673 24.1002 30.6673 16C30.6673 7.89983 24.1008 1.33334 16.0007 1.33334C7.90047 1.33334 1.33398 7.89983 1.33398 16C1.33398 24.1002 7.90047 30.6667 16.0007 30.6667ZM14.6673 10.6667C14.6673 9.9303 15.2643 9.33334 16.0007 9.33334H16.014C16.7504 9.33334 17.3473 9.9303 17.3473 10.6667C17.3473 11.4031 16.7504 12 16.014 12H16.0007C15.2643 12 14.6673 11.4031 14.6673 10.6667ZM17.334 16C17.334 15.2636 16.737 14.6667 16.0007 14.6667C15.2643 14.6667 14.6673 15.2636 14.6673 16V21.3333C14.6673 22.0697 15.2643 22.6667 16.0007 22.6667C16.737 22.6667 17.334 22.0697 17.334 21.3333V16Z" fill="#5D52B1"/>
</svg>
