<svg width="24" height="24" viewBox="0 0 24 24" fill="none" xmlns="http://www.w3.org/2000/svg">
<path fill-rule="evenodd" clip-rule="evenodd" d="M12 2C10.1435 2 8.36301 2.7375 7.05025 4.05025C5.7375 5.36301 5 7.14348 5 9C5 10.5827 5.7957 11.6727 6.51957 12.4815C6.68929 12.6711 6.86262 12.8533 7.02165 13.0205L7.05047 13.0508C7.22151 13.2306 7.37478 13.3925 7.51506 13.5523C7.74043 13.8091 7.8982 14.0231 8.00066 14.218C8.00557 15.0043 8.03885 15.6614 8.13209 16.1954C8.23349 16.7762 8.4264 17.3406 8.85539 17.7696C9.29457 18.2088 9.84173 18.3676 10.3406 18.436C10.8076 18.5001 11.3662 18.5001 11.9457 18.5H12.0542C12.6337 18.5001 13.1924 18.5001 13.6594 18.436C14.1583 18.3676 14.7054 18.2088 15.1446 17.7696C15.5736 17.3406 15.7665 16.7762 15.8679 16.1954C15.9614 15.6597 15.9946 15 15.9994 14.2104C16.0952 14.0229 16.2473 13.8136 16.471 13.5588C16.6097 13.4008 16.7622 13.2401 16.9332 13.0612L16.9723 13.0203C17.1285 12.857 17.2988 12.6789 17.4656 12.4938C18.193 11.6869 19 10.5934 19 9C19 7.14349 18.2625 5.36301 16.9497 4.05025C15.637 2.7375 13.8565 2 12 2ZM8.46447 5.46447C9.40215 4.52678 10.6739 4 12 4C13.3261 4 14.5979 4.52678 15.5355 5.46447C16.4732 6.40215 17 7.67392 17 9C17 9.84035 16.6041 10.4624 15.9801 11.1548C15.8339 11.3169 15.6833 11.4745 15.5233 11.6418L15.4875 11.6792C15.3185 11.856 15.1383 12.0453 14.9679 12.2394C14.6322 12.6219 14.277 13.0858 14.0648 13.6458C14.022 13.759 14 13.879 14 14C14 14.8664 13.9679 15.4497 13.8977 15.8514C13.8272 16.2551 13.7388 16.347 13.7302 16.3555C13.7265 16.3593 13.7142 16.3716 13.6713 16.389C13.6213 16.4094 13.5347 16.4344 13.3875 16.4546C13.0722 16.4979 12.6511 16.5 12 16.5C11.3489 16.5 10.9278 16.4979 10.6125 16.4546C10.4653 16.4344 10.3787 16.4094 10.3287 16.389C10.2858 16.3716 10.2733 16.3591 10.2696 16.3554C10.2611 16.3469 10.1728 16.2551 10.1023 15.8514C10.0321 15.4497 10 14.8664 10 14C10 13.8736 9.97602 13.7483 9.92933 13.6308C9.70926 13.0769 9.3543 12.6159 9.01805 12.2329C8.84767 12.0388 8.66791 11.8493 8.49965 11.6724L8.47651 11.6481C8.31265 11.4758 8.15863 11.3139 8.00986 11.1477C7.39059 10.4558 7 9.83531 7 9C7 7.67392 7.52678 6.40215 8.46447 5.46447Z" fill="#F6992C"/>
<path d="M10.3162 19.8675C9.79228 19.6929 9.22597 19.9761 9.05132 20.5C8.87667 21.0239 9.15983 21.5903 9.68377 21.7649C11.389 22.3333 13.111 22.3333 14.8162 21.7649C15.3402 21.5903 15.6233 21.0239 15.4487 20.5C15.274 19.9761 14.7077 19.6929 14.1838 19.8675C12.889 20.2991 11.611 20.2991 10.3162 19.8675Z" fill="#F6992C"/>
</svg>
