<svg width="15" height="16" viewBox="0 0 15 16" fill="none" xmlns="http://www.w3.org/2000/svg">
<path fill-rule="evenodd" clip-rule="evenodd" d="M3.75 6.75V4.875C3.75 3.88044 4.14509 2.92661 4.84835 2.22335C5.55161 1.52009 6.50544 1.125 7.5 1.125C8.49456 1.125 9.44839 1.52009 10.1517 2.22335C10.8549 2.92661 11.25 3.88044 11.25 4.875V6.75H11.875C12.9105 6.75 13.75 7.58947 13.75 8.625V13C13.75 14.0355 12.9105 14.875 11.875 14.875H3.125C2.08947 14.875 1.25 14.0355 1.25 13V8.625C1.25 7.58947 2.08947 6.75 3.125 6.75H3.75ZM5.73223 3.10723C6.20107 2.63839 6.83696 2.375 7.5 2.375C8.16304 2.375 8.79893 2.63839 9.26777 3.10723C9.73661 3.57607 10 4.21196 10 4.875V6.75H5V4.875C5 4.21196 5.26339 3.57607 5.73223 3.10723ZM3.125 8C2.77982 8 2.5 8.27982 2.5 8.625V13C2.5 13.3452 2.77982 13.625 3.125 13.625H11.875C12.2202 13.625 12.5 13.3452 12.5 13V8.625C12.5 8.27982 12.2202 8 11.875 8H3.125Z" fill="#7E7C90"/>
</svg>
