<svg width="18" height="18" viewBox="0 0 18 18" fill="none" xmlns="http://www.w3.org/2000/svg">
<path fill-rule="evenodd" clip-rule="evenodd" d="M7.94999 4.6875V6.69C7.94999 7.17733 7.75639 7.64471 7.4118 7.98931C7.0672 8.33391 6.59982 8.5275 6.11249 8.5275C5.62515 8.5275 5.15778 8.33391 4.81318 7.98931C4.46858 7.64471 4.27499 7.17733 4.27499 6.69V4.6875C4.27499 4.20016 4.46858 3.73279 4.81318 3.38819C5.15778 3.04359 5.62515 2.85 6.11249 2.85C6.59982 2.85 7.0672 3.04359 7.4118 3.38819C7.75639 3.73279 7.94999 4.20016 7.94999 4.6875ZM3.85858 2.4336C4.45636 1.83582 5.26711 1.5 6.11249 1.5C6.95787 1.5 7.76862 1.83582 8.36639 2.4336C8.96416 3.03137 9.29999 3.84212 9.29999 4.6875V6.69C9.29999 7.10859 9.21754 7.52308 9.05735 7.9098C8.89717 8.29653 8.66238 8.64792 8.36639 8.9439C8.0704 9.23989 7.71902 9.47468 7.33229 9.63487C6.94557 9.79505 6.53108 9.8775 6.11249 9.8775C5.6939 9.8775 5.27941 9.79505 4.89268 9.63487C4.50596 9.47468 4.15457 9.23989 3.85858 8.9439C3.5626 8.64792 3.32781 8.29653 3.16762 7.9098C3.00744 7.52308 2.92499 7.10859 2.92499 6.69V4.6875C2.92499 3.84212 3.26081 3.03137 3.85858 2.4336ZM13.8 6.69V4.6875C13.8 3.84212 13.4641 3.03137 12.8664 2.4336C12.2686 1.83582 11.4578 1.5 10.6125 1.5H10.425C10.2459 1.5 10.0743 1.57112 9.94767 1.6977C9.82108 1.82429 9.74997 1.99598 9.74997 2.175C9.74997 2.35402 9.82108 2.52571 9.94767 2.6523C10.0743 2.77888 10.2459 2.85 10.425 2.85H10.6125C11.0998 2.85 11.5672 3.04359 11.9118 3.38819C12.2564 3.73279 12.45 4.20016 12.45 4.6875V6.69C12.447 7.14148 12.2779 7.57606 11.9749 7.91082C11.672 8.24559 11.2564 8.4571 10.8075 8.505C10.6284 8.505 10.4568 8.57612 10.3302 8.7027C10.2036 8.82929 10.1325 9.00098 10.1325 9.18C10.1325 9.35902 10.2036 9.53071 10.3302 9.6573C10.4568 9.78388 10.6284 9.855 10.8075 9.855H10.9425C11.7256 9.77349 12.4508 9.40505 12.9784 8.82067C13.506 8.23629 13.7986 7.47732 13.8 6.69ZM0.0524243 15.2625C0.907424 13.1625 2.87992 10.3875 6.29992 10.3875C9.71992 10.3875 11.7674 13.155 12.5549 15.285C12.595 15.3856 12.6092 15.4946 12.5961 15.6021C12.583 15.7096 12.543 15.812 12.4799 15.9C12.4185 15.9905 12.3357 16.0645 12.2389 16.1155C12.1422 16.1665 12.0343 16.193 11.9249 16.1925H0.674924C0.563829 16.1921 0.454521 16.1645 0.356495 16.1122C0.258468 16.0599 0.174686 15.9845 0.112424 15.8925C0.051699 15.8004 0.0144773 15.6948 0.00401728 15.585C-0.0064427 15.4751 0.0101779 15.3644 0.0524243 15.2625ZM1.73992 14.8425H10.8824C10.478 13.9536 9.83624 13.1935 9.02777 12.6457C8.2193 12.0979 7.27542 11.7836 6.29992 11.7375C4.13242 11.7375 2.63992 13.215 1.73992 14.8425ZM12.1141 10.7913C12.0648 10.8667 12.0311 10.9513 12.015 11.04C11.9836 11.2117 12.02 11.3889 12.1165 11.5343C12.213 11.6797 12.3621 11.7821 12.5325 11.82C13.3127 12.0323 14.0381 12.4102 14.6593 12.9278C15.2804 13.4455 15.7829 14.0909 16.1325 14.82H15.675C15.4959 14.82 15.3242 14.8911 15.1977 15.0177C15.0711 15.1443 15 15.316 15 15.495C15 15.674 15.0711 15.8457 15.1977 15.9723C15.3242 16.0989 15.4959 16.17 15.675 16.17H17.175C17.2843 16.1705 17.3922 16.144 17.489 16.093C17.5857 16.042 17.6685 15.968 17.73 15.8775C17.7931 15.7895 17.833 15.6871 17.8461 15.5796C17.8592 15.4721 17.8451 15.3631 17.805 15.2625C17.115 13.4025 15.4875 11.085 12.8175 10.5C12.7292 10.4815 12.6382 10.4809 12.5497 10.4982C12.4612 10.5155 12.377 10.5503 12.3022 10.6007C12.2274 10.651 12.1635 10.7158 12.1141 10.7913Z" fill="#7E7C90"/>
</svg>
