<svg width="18" height="18" viewBox="0 0 18 18" fill="none" xmlns="http://www.w3.org/2000/svg">
<path d="M2.28983 16.5002C2.16745 16.5067 2.04534 16.4832 1.93418 16.4316C1.82303 16.3799 1.72622 16.3019 1.65221 16.2042C1.57821 16.1065 1.52927 15.9922 1.50968 15.8712C1.49008 15.7502 1.50044 15.6263 1.53983 15.5102L2.86733 11.5277C2.47529 10.6109 2.27861 9.62236 2.28983 8.62525C2.28931 7.30179 2.65742 6.00435 3.35289 4.87835C4.04836 3.75236 5.04369 2.84232 6.22733 2.25025C7.21425 1.7481 8.30754 1.49086 9.41483 1.50025H9.78983C11.5451 1.58482 13.2067 2.31709 14.4534 3.55552C15.7001 4.79395 16.4435 6.4506 16.5398 8.20525V8.62525C16.541 9.7316 16.2842 10.823 15.7898 11.8127C15.203 12.9985 14.293 13.9942 13.1648 14.6852C12.0338 15.372 10.738 15.74 9.41483 15.7502C8.42238 15.7489 7.44125 15.5394 6.53483 15.1352L2.52983 16.5002C2.45019 16.5111 2.36946 16.5111 2.28983 16.5002ZM9.39983 3.00025C8.53253 3.00043 7.67728 3.20333 6.90232 3.59275C5.56766 4.25914 4.55236 5.42841 4.07977 6.84336C3.60718 8.25831 3.71602 9.80304 4.38233 11.1377C4.42774 11.2262 4.4551 11.3228 4.46283 11.422C4.47055 11.5211 4.45848 11.6208 4.42733 11.7152L3.47483 14.5652L6.32483 13.6127C6.41926 13.5816 6.51895 13.5695 6.6181 13.5772C6.71724 13.585 6.81386 13.6123 6.90232 13.6577C7.67746 14.0613 8.54107 14.2649 9.41483 14.2502C10.9067 14.2502 12.3374 13.6576 13.3923 12.6027C14.4472 11.5478 15.0398 10.1171 15.0398 8.62525V8.25025C14.952 6.879 14.3647 5.58749 13.389 4.62004C12.4132 3.6526 11.1168 3.07633 9.74483 3.00025H9.39983Z" fill="#7E7C90"/>
</svg>
