<svg width="18" height="17" viewBox="0 0 18 17" fill="none" xmlns="http://www.w3.org/2000/svg">
<path fill-rule="evenodd" clip-rule="evenodd" d="M16.3829 1.37329C17.3712 2.26986 17.3832 3.78125 16.4191 4.69282L13.0305 8.11098C12.8573 8.28573 12.6437 8.41518 12.4086 8.48792L10.1934 9.17334C9.64106 9.34424 9.03966 9.18247 8.64758 8.75752C8.25551 8.33257 8.14258 7.72011 8.35732 7.18328L9.10732 5.30827C9.18938 5.10312 9.31575 4.91863 9.4774 4.76799L13.1056 1.38689L13.1204 1.37329C14.0364 0.542236 15.4668 0.542236 16.3829 1.37329ZM15.375 2.48426C15.0307 2.17191 14.4725 2.17191 14.1282 2.48426L10.5 5.86536L9.75003 7.74036L11.9653 7.05494L15.375 3.61536C15.7193 3.30301 15.7193 2.7966 15.375 2.48426Z" fill="#7E7C90"/>
<path d="M1.53979 16.7406C1.41742 16.7471 1.29531 16.7235 1.18415 16.6719C1.073 16.6203 0.976185 16.5423 0.902181 16.4446C0.828177 16.3469 0.779239 16.2326 0.759646 16.1116C0.740054 15.9906 0.750406 15.8667 0.789795 15.7506L2.11729 11.7681C1.72526 10.8512 1.52858 9.86273 1.53979 8.86562C1.53928 7.54216 1.90739 6.24472 2.60286 5.11873C3.29833 3.99273 4.29366 3.08269 5.47729 2.49062C6.46422 1.98847 7.55751 1.73123 8.66479 1.74062H9.03979C9.03979 1.74062 9.75 1.74087 9.75 2.49062C9.75 3.24037 8.99479 3.24062 8.99479 3.24062H8.64979C7.7825 3.24081 6.92725 3.4437 6.15229 3.83312C4.81763 4.49951 3.80233 5.66878 3.32974 7.08373C2.85715 8.49868 2.96598 10.0434 3.63229 11.3781C3.67771 11.4666 3.70507 11.5632 3.7128 11.6623C3.72052 11.7615 3.70845 11.8612 3.67729 11.9556L2.72479 14.8056L5.57479 13.8531C5.66923 13.822 5.76892 13.8099 5.86806 13.8176C5.96721 13.8253 6.06382 13.8527 6.15229 13.8981C6.92743 14.3016 7.79104 14.5053 8.66479 14.4906C10.1566 14.4906 11.5874 13.898 12.6423 12.8431C13.6972 11.7882 14.2898 10.3575 14.2898 8.86562V8.49062C14.2898 8.49062 14.3296 7.74037 15.0398 7.74037C15.75 7.74037 15.7898 8.44562 15.7898 8.44562V8.86562C15.7909 9.97197 15.5341 11.0633 15.0398 12.0531C14.453 13.2388 13.543 14.2346 12.4148 14.9256C11.2837 15.6124 9.98797 15.9804 8.66479 15.9906C7.67235 15.9893 6.69122 15.7798 5.78479 15.3756L1.77979 16.7406C1.70016 16.7514 1.61943 16.7514 1.53979 16.7406Z" fill="#7E7C90"/>
</svg>
