<svg width="16" height="16" viewBox="0 0 16 16" fill="none" xmlns="http://www.w3.org/2000/svg">
<path d="M1.28979 15.5002C1.16742 15.5067 1.04531 15.4832 0.934153 15.4316C0.822999 15.3799 0.726185 15.3019 0.652181 15.2042C0.578177 15.1065 0.529239 14.9922 0.509646 14.8712C0.490054 14.7502 0.500406 14.6263 0.539795 14.5102L1.86729 10.5277C1.47526 9.61087 1.27858 8.62236 1.28979 7.62525C1.28928 6.30179 1.65739 5.00435 2.35286 3.87835C3.04833 2.75236 4.04366 1.84232 5.22729 1.25025C6.21422 0.748101 7.30751 0.490858 8.41479 0.500248H8.78979C10.545 0.584822 12.2066 1.31709 13.4534 2.55552C14.7001 3.79395 15.4435 5.4506 15.5398 7.20525V7.62525C15.5409 8.7316 15.2841 9.82298 14.7898 10.8127C14.203 11.9985 13.293 12.9942 12.1648 13.6852C11.0337 14.372 9.73797 14.74 8.41479 14.7502C7.42235 14.7489 6.44122 14.5394 5.53479 14.1352L1.52979 15.5002C1.45016 15.5111 1.36943 15.5111 1.28979 15.5002ZM8.39979 2.00025C7.5325 2.00043 6.67725 2.20333 5.90229 2.59275C4.56763 3.25914 3.55233 4.42841 3.07974 5.84336C2.60715 7.25831 2.71598 8.80304 3.38229 10.1377C3.42771 10.2262 3.45507 10.3228 3.4628 10.422C3.47052 10.5211 3.45845 10.6208 3.42729 10.7152L2.47479 13.5652L5.32479 12.6127C5.41923 12.5816 5.51892 12.5695 5.61806 12.5772C5.71721 12.585 5.81382 12.6123 5.90229 12.6577C6.67743 13.0613 7.54104 13.2649 8.41479 13.2502C9.90664 13.2502 11.3374 12.6576 12.3923 11.6027C13.4472 10.5478 14.0398 9.11709 14.0398 7.62525V7.25025C13.952 5.879 13.3647 4.58749 12.389 3.62004C11.4132 2.6526 10.1167 2.07633 8.74479 2.00025H8.39979Z" fill="#7E7C90"/>
</svg>
