<svg width="24" height="24" viewBox="0 0 24 24" fill="none" xmlns="http://www.w3.org/2000/svg">
<g clip-path="url(#clip0_4160_340721)">
<path d="M10 9.34003C10 9.89003 9.55 10.34 9 10.34C8.45 10.34 8 9.89003 8 9.34003V4.00003C8 3.01003 8.36 2.06003 9.03 1.32003C9.7 0.580029 10.61 0.120029 11.6 0.0200292C12.59 -0.0799708 13.57 0.190029 14.38 0.780029C15.18 1.37003 15.73 2.23003 15.93 3.20003C16.04 3.74003 15.69 4.27003 15.15 4.38003C14.61 4.49003 14.08 4.14003 13.97 3.60003C13.87 3.12003 13.59 2.69003 13.19 2.39003C12.79 2.10003 12.3 1.96003 11.8 2.01003C11.31 2.06003 10.85 2.29003 10.52 2.66003C10.18 3.03003 10 3.50003 10 4.00003V9.34003Z" fill="#211f30"/>
<path fill-rule="evenodd" clip-rule="evenodd" d="M15.38 8.08006C15 7.93006 14.58 8.01006 14.29 8.30006L9.17 13.4201C8.98 13.6101 8.88 13.8601 8.88 14.1301C8.88 14.4001 8.99001 14.6501 9.17 14.8401C9.73001 15.4001 10.44 15.7801 11.22 15.9301C11.48 15.9801 11.74 16.0101 12 16.0101C12.52 16.0101 13.04 15.9101 13.53 15.7101C14.26 15.4101 14.88 14.9001 15.32 14.2401C15.76 13.5801 16 12.8101 16 12.0201V9.02006C16 8.62006 15.76 8.25006 15.38 8.10006V8.08006ZM14 12.0001C14 12.4001 13.88 12.7801 13.66 13.1101C13.44 13.4401 13.13 13.6901 12.76 13.8501C12.39 14.0001 11.99 14.0401 11.61 13.9601C11.5817 13.9601 11.5483 13.95 11.5171 13.9406C11.5042 13.9368 11.4917 13.933 11.48 13.9301L14 11.4101V12.0001Z" fill="#211f30"/>
<path d="M17 23.0001C17 22.4478 16.5523 22.0001 16 22.0001H13.0099V19.9801C13.7099 19.8901 14.3999 19.7201 15.0699 19.4401C16.5499 18.8301 17.7999 17.8001 18.6799 16.4701C19.5699 15.1401 20.0299 13.5901 20.0099 11.9901V9.99011C20.0099 9.44011 19.5599 8.99011 19.0099 8.99011L18.9999 9.00011C18.4499 9.00011 17.9999 9.45011 17.9999 10.0001V12.0101C17.9999 13.2101 17.6599 14.3701 16.9999 15.3701C16.3399 16.3701 15.3999 17.1401 14.2899 17.6001C13.1799 18.0601 11.9799 18.1701 10.7999 17.9301C9.62995 17.6901 8.55995 17.1101 7.71995 16.2501C7.32995 15.8601 5.90995 17.2601 6.28995 17.6501C7.40995 18.7901 8.82995 19.5701 10.3999 19.8901C10.5999 19.9301 10.8099 19.9601 11.0099 19.9801V22.0001H8C7.44771 22.0001 7 22.4478 7 23.0001C7 23.5524 7.44771 24.0001 8 24.0001H16C16.5523 24.0001 17 23.5524 17 23.0001Z" fill="#211f30"/>
<path d="M6 12.0001V10.0001C6 9.45012 5.55 9.00012 5 9.00012C4.45 9.00012 4 9.45012 4 10.0001V12.0001C4 12.4701 4.04 12.9401 4.13 13.4101C4.22 13.8901 4.64 14.2301 5.11 14.2301C5.17 14.2301 5.23 14.2301 5.29 14.2101C5.83 14.1101 6.2 13.5901 6.1 13.0501C6.04 12.7001 6.01 12.3501 6.01 12.0001H6Z" fill="#211f30"/>
<path class="slash" d="M23 1L1 23" stroke="#E14963" stroke-width="2" stroke-linecap="round" stroke-linejoin="round"/>
</g>
<defs>
<clipPath id="clip0_4160_340721">
<rect width="24" height="24" fill="white"/>
</clipPath>
</defs>
</svg>
