<svg width="18" height="18" viewBox="0 0 18 18" fill="none" xmlns="http://www.w3.org/2000/svg">
<path fill-rule="evenodd" clip-rule="evenodd" d="M8.04688 1.22199C7.99018 1.16674 7.91811 1.1299 7.84011 1.11632L7.84586 1.11287C7.74247 1.0948 7.63614 1.11836 7.55006 1.1784C7.46398 1.23844 7.40514 1.33009 7.38639 1.43335L7.15665 2.67506L6.61792 5.68343H11.5963L11.7996 4.55084C10.8699 4.1979 9.88324 4.01918 8.88885 4.0236C8.64534 4.0236 8.40411 4.03509 8.16634 4.05462L8.53736 1.96289C8.55034 1.89548 8.54665 1.82592 8.52664 1.76026C8.50662 1.6946 8.47087 1.63482 8.42249 1.58612L8.04688 1.22199ZM14.3217 1.22174C14.2653 1.16674 14.1937 1.12993 14.1161 1.11606L14.1081 1.11951C14.0047 1.10175 13.8986 1.12543 13.8126 1.18542C13.7266 1.2454 13.6677 1.33687 13.6486 1.43999L12.9801 5.13756L10.9929 16.2337C11.6216 16.0676 12.2268 15.8225 12.794 15.5043L15.7461 16.475L15.7828 16.4864C15.8738 16.5098 15.969 16.5104 16.0603 16.4884C16.1515 16.4664 16.236 16.4223 16.3063 16.3601C16.3765 16.2979 16.4305 16.2194 16.4634 16.1314C16.4963 16.0435 16.5072 15.9489 16.495 15.8558L16.4881 15.8202L16.4709 15.7605L15.4647 12.7797L15.5164 12.674C15.8817 11.9224 16.0714 11.0975 16.0712 10.2618C16.0712 8.59851 15.3222 7.08686 14.1012 5.9692L14.4458 4.06815L14.818 1.96263C14.8302 1.89476 14.8256 1.82491 14.8046 1.75922C14.7836 1.69353 14.7467 1.63401 14.6974 1.58587L14.3217 1.22174ZM9.66687 16.4664L9.95864 14.8387H4.98144L4.87461 15.4314C6.09536 16.1402 7.48338 16.5098 8.89497 16.502C9.15533 16.5027 9.41264 16.4909 9.66687 16.4664ZM5.49593 4.76695L3.73501 14.5996C2.48526 13.4773 1.7168 11.9484 1.7168 10.2633C1.7168 7.88674 3.24568 5.82028 5.49593 4.76695ZM10.2563 13.1737L10.6285 11.0946H5.64899L5.27567 13.1794L5.28026 13.1737H10.2563ZM11.2984 7.35137L10.925 9.43047H5.94668L6.31885 7.35137H11.2984Z" fill="#7E7C90"/>
</svg>
