<svg width="36" height="36" viewBox="0 0 36 36" fill="none" xmlns="http://www.w3.org/2000/svg">
<path d="M10 24H6V30H10V24ZM20 16H16V30H20V16ZM30 6V30H26V6H30ZM26 4C25.4696 4 24.9609 4.21071 24.5858 4.58579C24.2107 4.96086 24 5.46957 24 6V30C24 30.5304 24.2107 31.0391 24.5858 31.4142C24.9609 31.7893 25.4696 32 26 32H30C30.5304 32 31.0391 31.7893 31.4142 31.4142C31.7893 31.0391 32 30.5304 32 30V6C32 5.46957 31.7893 4.96086 31.4142 4.58579C31.0391 4.21071 30.5304 4 30 4H26ZM14 16C14 15.4696 14.2107 14.9609 14.5858 14.5858C14.9609 14.2107 15.4696 14 16 14H20C20.5304 14 21.0391 14.2107 21.4142 14.5858C21.7893 14.9609 22 15.4696 22 16V30C22 30.5304 21.7893 31.0391 21.4142 31.4142C21.0391 31.7893 20.5304 32 20 32H16C15.4696 32 14.9609 31.7893 14.5858 31.4142C14.2107 31.0391 14 30.5304 14 30V16ZM4 24C4 23.4696 4.21071 22.9609 4.58579 22.5858C4.96086 22.2107 5.46957 22 6 22H10C10.5304 22 11.0391 22.2107 11.4142 22.5858C11.7893 22.9609 12 23.4696 12 24V30C12 30.5304 11.7893 31.0391 11.4142 31.4142C11.0391 31.7893 10.5304 32 10 32H6C5.46957 32 4.96086 31.7893 4.58579 31.4142C4.21071 31.0391 4 30.5304 4 30V24Z" fill="#7E7C90"/>
</svg>
