<?xml version="1.0" encoding="utf-8"?>
<!-- Generator: Adobe Illustrator 26.2.1, SVG Export Plug-In . SVG Version: 6.00 Build 0)  -->
<svg version="1.1" id="Layer_1" xmlns="http://www.w3.org/2000/svg" xmlns:xlink="http://www.w3.org/1999/xlink" x="0px" y="0px"
	 viewBox="0 0 36 36" style="enable-background:new 0 0 36 36;" xml:space="preserve">
<style type="text/css">
	.st0{fill:#211F30;}
	.st1{fill-rule:evenodd;clip-rule:evenodd;fill:#211F30;}
</style>
<path class="st0" d="M17.6,3c-2.1,0-3.8,1.7-3.8,3.8v2.5c0,2.1,1.7,3.8,3.8,3.8c2.1,0,3.8-1.7,3.8-3.8V6.8C21.4,4.7,19.7,3,17.6,3z"
	/>
<path class="st1" d="M14.9,13.1c0.8-0.4,1.8-0.7,2.7-0.7c0.9,0,2,0.3,3,0.6c1,0.4,2.1,0.8,2.8,1.2c0.2,0.1,0.4,0.3,0.5,0.4
	c-1.6,1.1-2.6,3-2.6,5.1v2.5c0,0.3,0,0.7,0.1,1c-0.2,0.1-0.5,0.2-0.8,0.2h-4.9c-0.3,0-0.6-0.1-0.9-0.2c0-0.3,0.1-0.6,0.1-0.9v-2.5
	c0-2.1-1.1-4-2.7-5.2c0.1-0.1,0.2-0.2,0.4-0.3C13.2,13.9,14,13.5,14.9,13.1z"/>
<path class="st0" d="M27.6,16c-2.1,0-3.9,1.7-3.9,3.9v2.4c0,2.1,1.7,3.9,3.9,3.9c2.1,0,3.9-1.7,3.9-3.9v-2.4
	C31.4,17.7,29.7,16,27.6,16z"/>
<path class="st0" d="M27.4,26.1c4.4,0,6.3,2.7,7.1,4.7C34.9,32,34,33,32.8,33H22.1c-1.2,0-2-1-1.7-2.1C21.2,28.9,23,26.1,27.4,26.1z
	"/>
<path class="st0" d="M32.8,32.2H22.1v1.5h10.7V32.2z M27.4,26.9c2,0,3.4,0.6,4.4,1.4c1,0.8,1.6,1.9,2,2.8l1.4-0.5
	c-0.4-1.1-1.2-2.4-2.4-3.4c-1.3-1.1-3-1.8-5.4-1.8V26.9z M21.2,31.2c0.3-0.9,0.9-2,1.9-2.8c0.9-0.8,2.3-1.5,4.4-1.5v-1.5
	c-2.4,0-4.1,0.8-5.4,1.8c-1.2,1.1-1.9,2.4-2.3,3.5L21.2,31.2z M22.1,32.2c-0.4,0-0.7-0.2-0.8-0.4c-0.2-0.2-0.2-0.4-0.1-0.7l-1.4-0.5
	c-0.3,0.8-0.1,1.6,0.4,2.2c0.5,0.6,1.2,0.9,2,0.9V32.2z M32.8,33.7c0.8,0,1.5-0.3,2-0.9c0.5-0.6,0.7-1.4,0.3-2.2l-1.4,0.5
	c0.1,0.3,0.1,0.5-0.1,0.7c-0.2,0.2-0.5,0.4-0.8,0.4V33.7z"/>
<path class="st0" d="M8.6,16c-2.1,0-3.8,1.7-3.8,3.8v2.5c0,2.1,1.7,3.8,3.8,3.8s3.8-1.7,3.8-3.8v-2.5C12.4,17.7,10.7,16,8.6,16z"/>
<path class="st0" d="M8.6,26.1c4.4,0,6.2,2.8,6.9,4.8C15.9,32,15,33,13.9,33H3.2c-1.2,0-2.1-1-1.6-2.1C2.3,28.9,4.2,26.1,8.6,26.1z"
	/>
<path class="st0" d="M1.5,30.9l-0.7-0.3L1.5,30.9z M13.9,32.2H3.2v1.5h10.7V32.2z M8.6,26.9c2,0,3.4,0.6,4.4,1.5
	c1,0.8,1.5,1.9,1.9,2.8l1.4-0.5c-0.4-1.1-1.1-2.4-2.3-3.5c-1.2-1.1-3-1.8-5.4-1.8V26.9z M2.2,31.2c0.4-0.9,1-2,2-2.8
	c1-0.8,2.4-1.4,4.4-1.4v-1.5c-2.4,0-4.1,0.7-5.4,1.8c-1.2,1-2,2.3-2.4,3.4L2.2,31.2z M3.2,32.2c-0.4,0-0.7-0.2-0.8-0.4
	c-0.2-0.2-0.2-0.4-0.1-0.7l-1.4-0.5c-0.3,0.8-0.1,1.6,0.3,2.2c0.5,0.6,1.2,0.9,2,0.9V32.2z M13.9,33.7c0.8,0,1.5-0.3,2-0.9
	c0.5-0.6,0.7-1.4,0.4-2.2l-1.4,0.5c0.1,0.3,0,0.5-0.1,0.7c-0.2,0.2-0.5,0.4-0.8,0.4V33.7z"/>
</svg>
