<?xml version="1.0" encoding="utf-8"?>
<!-- Generator: Adobe Illustrator 26.2.1, SVG Export Plug-In . SVG Version: 6.00 Build 0)  -->
<svg version="1.1" id="Layer_1" xmlns="http://www.w3.org/2000/svg" xmlns:xlink="http://www.w3.org/1999/xlink" x="0px" y="0px"
	 viewBox="0 0 36 36" style="enable-background:new 0 0 36 36;" xml:space="preserve">
<path d="M8.5,27C6,27,4,25,4,22.5v-3C4,17,6,15,8.5,15s4.5,2,4.5,4.5v3C13,25,11,27,8.5,27z M8.5,17C7.1,17,6,18.1,6,19.5v3
	C6,23.9,7.1,25,8.5,25s2.5-1.1,2.5-2.5v-3C11,18.1,9.9,17,8.5,17z"/>
<path d="M27.5,27C25,27,23,25,23,22.5v-3c0-2.5,2-4.5,4.5-4.5s4.5,2,4.5,4.5v3C32,25,30,27,27.5,27z M27.5,17
	c-1.4,0-2.5,1.1-2.5,2.5v3c0,1.4,1.1,2.5,2.5,2.5s2.5-1.1,2.5-2.5v-3C30,18.1,28.9,17,27.5,17z"/>
<path d="M17.5,14C15,14,13,12,13,9.5v-3C13,4,15,2,17.5,2S22,4,22,6.5v3C22,12,20,14,17.5,14z M17.5,4C16.1,4,15,5.1,15,6.5v3
	c0,1.4,1.1,2.5,2.5,2.5S20,10.9,20,9.5v-3C20,5.1,18.9,4,17.5,4z"/>
<path d="M32.8,32H22.2v2h10.6V32z M27.5,27c1.9,0,3.3,0.6,4.2,1.4c0.9,0.8,1.5,1.9,1.9,2.8l1.9-0.7C35,29.4,34.3,28,33,26.9
	c-1.3-1.1-3.1-1.9-5.5-1.9V27z M21.5,31.2c0.3-0.9,0.9-2,1.9-2.8c0.9-0.8,2.2-1.4,4.2-1.4v-2c-2.4,0-4.2,0.8-5.5,1.9
	c-1.3,1.1-2,2.5-2.4,3.6L21.5,31.2z M22.2,32c-0.3,0-0.5-0.1-0.7-0.3c-0.1-0.1-0.1-0.3-0.1-0.5l-1.9-0.7c-0.3,0.9-0.1,1.8,0.4,2.5
	c0.5,0.6,1.3,1,2.2,1V32z M32.8,34c0.9,0,1.7-0.4,2.2-1c0.5-0.7,0.7-1.6,0.4-2.5l-1.9,0.7c0.1,0.2,0,0.4-0.1,0.5
	c-0.1,0.1-0.4,0.3-0.7,0.3V34z"/>
<path d="M13.8,32H3.2v2h10.6V32z M8.5,27c1.9,0,3.3,0.6,4.2,1.4c0.9,0.8,1.5,1.9,1.9,2.8l1.9-0.7C16,29.4,15.3,28,14,26.9
	c-1.3-1.1-3.1-1.9-5.5-1.9V27z M2.5,31.2c0.3-0.9,0.9-2,1.9-2.8C5.2,27.6,6.6,27,8.5,27v-2c-2.4,0-4.2,0.8-5.5,1.9
	c-1.3,1.1-2,2.5-2.4,3.6L2.5,31.2z M3.2,32c-0.3,0-0.5-0.1-0.7-0.3c-0.1-0.1-0.1-0.3-0.1-0.5l-1.9-0.7C0.3,31.4,0.5,32.3,1,33
	c0.5,0.6,1.3,1,2.2,1V32z M13.8,34c0.9,0,1.7-0.4,2.2-1c0.5-0.7,0.7-1.6,0.4-2.5l-1.9,0.7c0.1,0.2,0,0.4-0.1,0.5
	c-0.1,0.1-0.4,0.3-0.7,0.3V34z"/>
<path d="M11.9,17.3c0.8-1.6,2.4-3.3,5.6-3.3v-2c-4.1,0-6.3,2.3-7.4,4.3L11.9,17.3z M17.5,14c1.8,0,3.1,0.5,4,1.3
	c0.9,0.7,1.5,1.7,1.9,2.6l1.8-0.8c-0.5-1.1-1.2-2.4-2.5-3.4c-1.3-1-3-1.7-5.3-1.7V14z"/>
</svg>
