<svg width="36" height="36" viewBox="0 0 36 36" fill="none" xmlns="http://www.w3.org/2000/svg">
<path fill-rule="evenodd" clip-rule="evenodd" d="M20.126 4C20.5701 2.27477 22.1362 1 24 1H28C30.2091 1 32 2.79086 32 5C32 7.20914 30.2091 9 28 9H24C22.1362 9 20.5701 7.72523 20.126 6H12.4998C10.5783 6 9.01848 7.54852 9.00016 9.46571C9.00054 9.47702 9.00073 9.48837 9.00073 9.49977C9.00073 10.0521 8.55302 10.4998 8.00073 10.4998C7.44847 10.4998 7.00077 10.0521 7.00073 9.49985H7C7 6.46237 9.46237 4 12.4998 4H20.126ZM15.5 18L22.0275 18C22.2762 20.25 24.1837 22 26.5 22C28.9853 22 31 19.9853 31 17.5C31 15.0147 28.9853 13 26.5 13C24.5407 13 22.8738 14.2522 22.2561 16H15.5C14.9477 16 14.5 16.4477 14.5 17C14.5 17.5523 14.9477 18 15.5 18ZM24 25.5C22.8954 25.5 22 26.3954 22 27.5V29H13C10.7909 29 9 27.2091 9 25V24.5352C9.00041 24.5235 9.00061 24.5118 9.00061 24.5C9.00061 23.9477 8.5529 23.5 8.00061 23.5C7.98217 23.5 7.96385 23.5005 7.94565 23.5015C7.41864 23.5297 7 23.966 7 24.5V25C7 28.3137 9.68629 31 13 31H22V32.5C22 33.6046 22.8954 34.5 24 34.5H29.5C30.6046 34.5 31.5 33.6046 31.5 32.5V27.5C31.5 26.3954 30.6046 25.5 29.5 25.5H24ZM11.0833 18.25C11.0278 18.3757 11.0113 18.5151 11.0358 18.6502C11.0603 18.7854 11.1247 18.9101 11.2208 19.0083L11.2458 19.0333C11.3233 19.1107 11.3847 19.2026 11.4267 19.3038C11.4686 19.405 11.4902 19.5134 11.4902 19.6229C11.4902 19.7324 11.4686 19.8409 11.4267 19.942C11.3847 20.0432 11.3233 20.1351 11.2458 20.2125C11.1684 20.29 11.0765 20.3514 10.9753 20.3934C10.8742 20.4353 10.7657 20.4569 10.6562 20.4569C10.5467 20.4569 10.4383 20.4353 10.3371 20.3934C10.2359 20.3514 10.144 20.29 10.0666 20.2125L10.0416 20.1875C9.94343 20.0914 9.8187 20.027 9.68354 20.0025C9.54837 19.978 9.40897 19.9945 9.28329 20.05C9.16005 20.1028 9.05495 20.1905 8.98092 20.3023C8.90689 20.4141 8.86716 20.5451 8.86663 20.6792V20.75C8.86663 20.971 8.77883 21.183 8.62255 21.3393C8.46627 21.4955 8.25431 21.5833 8.03329 21.5833C7.81228 21.5833 7.60032 21.4955 7.44404 21.3393C7.28776 21.183 7.19996 20.971 7.19996 20.75V20.7125C7.19673 20.5746 7.15209 20.4408 7.07184 20.3286C6.99159 20.2164 6.87943 20.131 6.74996 20.0833C6.62429 20.0279 6.48488 20.0113 6.34971 20.0358C6.21455 20.0603 6.08983 20.1248 5.99163 20.2208L5.96663 20.2458C5.88923 20.3233 5.79732 20.3848 5.69616 20.4267C5.59499 20.4687 5.48656 20.4902 5.37704 20.4902C5.26753 20.4902 5.15909 20.4687 5.05793 20.4267C4.95676 20.3848 4.86485 20.3233 4.78746 20.2458C4.70998 20.1684 4.64851 20.0765 4.60658 19.9754C4.56464 19.8742 4.54305 19.7658 4.54305 19.6562C4.54305 19.5467 4.56464 19.4383 4.60658 19.3371C4.64851 19.236 4.70998 19.1441 4.78746 19.0667L4.81246 19.0417C4.90852 18.9435 4.97295 18.8187 4.99746 18.6836C5.02197 18.5484 5.00542 18.409 4.94996 18.2833C4.89714 18.1601 4.80944 18.055 4.69765 17.981C4.58587 17.9069 4.45487 17.8672 4.32079 17.8667H4.24996C4.02895 17.8667 3.81698 17.7789 3.6607 17.6226C3.50442 17.4663 3.41663 17.2543 3.41663 17.0333C3.41663 16.8123 3.50442 16.6004 3.6607 16.4441C3.81698 16.2878 4.02895 16.2 4.24996 16.2H4.28746C4.42537 16.1968 4.55913 16.1521 4.67133 16.0719C4.78354 15.9916 4.86901 15.8795 4.91663 15.75C4.97209 15.6243 4.98864 15.4849 4.96413 15.3498C4.93962 15.2146 4.87518 15.0899 4.77913 14.9917L4.75413 14.9667C4.67665 14.8893 4.61518 14.7974 4.57324 14.6962C4.53131 14.595 4.50972 14.4866 4.50972 14.3771C4.50972 14.2676 4.53131 14.1591 4.57324 14.058C4.61518 13.9568 4.67665 13.8649 4.75413 13.7875C4.83152 13.71 4.92343 13.6486 5.02459 13.6066C5.12576 13.5647 5.2342 13.5431 5.34371 13.5431C5.45322 13.5431 5.56166 13.5647 5.66283 13.6066C5.76399 13.6486 5.8559 13.71 5.93329 13.7875L5.95829 13.8125C6.05649 13.9086 6.18122 13.973 6.31638 13.9975C6.45155 14.022 6.59095 14.0055 6.71663 13.95H6.74996C6.8732 13.8972 6.9783 13.8095 7.05233 13.6977C7.12636 13.5859 7.16609 13.4549 7.16663 13.3208V13.25C7.16663 13.029 7.25442 12.817 7.4107 12.6607C7.56698 12.5045 7.77895 12.4167 7.99996 12.4167C8.22097 12.4167 8.43293 12.5045 8.58921 12.6607C8.74549 12.817 8.83329 13.029 8.83329 13.25V13.2875C8.83383 13.4216 8.87356 13.5526 8.94759 13.6644C9.02162 13.7761 9.12672 13.8638 9.24996 13.9167C9.37563 13.9721 9.51504 13.9887 9.6502 13.9642C9.78537 13.9397 9.91009 13.8752 10.0083 13.7792L10.0333 13.7542C10.1107 13.6767 10.2026 13.6152 10.3038 13.5733C10.4049 13.5313 10.5134 13.5098 10.6229 13.5098C10.7324 13.5098 10.8408 13.5313 10.942 13.5733C11.0432 13.6152 11.1351 13.6767 11.2125 13.7542C11.2899 13.8316 11.3514 13.9235 11.3933 14.0246C11.4353 14.1258 11.4569 14.2342 11.4569 14.3438C11.4569 14.4533 11.4353 14.5617 11.3933 14.6629C11.3514 14.764 11.2899 14.8559 11.2125 14.9333L11.1875 14.9583C11.0914 15.0565 11.027 15.1813 11.0025 15.3164C10.9779 15.4516 10.9945 15.591 11.05 15.7167V15.75C11.1028 15.8732 11.1905 15.9783 11.3023 16.0524C11.4141 16.1264 11.545 16.1661 11.6791 16.1667H11.75C11.971 16.1667 12.1829 16.2545 12.3392 16.4107C12.4955 16.567 12.5833 16.779 12.5833 17C12.5833 17.221 12.4955 17.433 12.3392 17.5893C12.1829 17.7455 11.971 17.8333 11.75 17.8333H11.7125C11.5784 17.8339 11.4474 17.8736 11.3356 17.9476C11.2238 18.0217 11.1361 18.1268 11.0833 18.25Z" fill="#000000"/>
</svg>
