<svg width="36" height="36" viewBox="0 0 36 36" fill="none" xmlns="http://www.w3.org/2000/svg">
<path fill-rule="evenodd" clip-rule="evenodd" d="M9.24978 31.0957C11.8398 32.8263 14.885 33.75 18 33.75C22.1757 33.7452 26.179 32.0843 29.1317 29.1317C32.0843 26.179 33.7452 22.1757 33.75 18C33.75 14.885 32.8263 11.8398 31.0957 9.24978C29.365 6.6597 26.9052 4.64098 24.0273 3.4489C21.1493 2.25682 17.9825 1.94492 14.9273 2.55264C11.8721 3.16036 9.06575 4.6604 6.86307 6.86307C4.6604 9.06575 3.16036 11.8721 2.55264 14.9273C1.94492 17.9825 2.25682 21.1493 3.4489 24.0273C4.64098 26.9052 6.6597 29.365 9.24978 31.0957ZM10.4998 6.77517C12.7199 5.29177 15.33 4.50001 18 4.50001C21.5792 4.50418 25.0105 5.92783 27.5413 8.45867C30.0722 10.9895 31.4958 14.4209 31.5 18C31.5 20.6701 30.7082 23.2801 29.2248 25.5002C27.7414 27.7203 25.633 29.4506 23.1662 30.4724C20.6994 31.4942 17.985 31.7615 15.3663 31.2406C12.7475 30.7197 10.3421 29.434 8.45407 27.5459C6.56606 25.6579 5.28031 23.2525 4.75941 20.6337C4.23851 18.015 4.50585 15.3006 5.52763 12.8338C6.54942 10.367 8.27975 8.25857 10.4998 6.77517ZM25.009 10.1552C25.2123 10.2033 25.3981 10.307 25.5458 10.4548C25.6935 10.6024 25.7972 10.7883 25.8453 10.9915C25.8934 11.1948 25.884 11.4074 25.818 11.6056L22.443 21.7306C22.3877 21.8965 22.2946 22.0471 22.171 22.1707C22.0474 22.2943 21.8967 22.3875 21.7309 22.4428L11.6059 25.8178C11.4077 25.8839 11.195 25.8935 10.9916 25.8455C10.7882 25.7975 10.6023 25.6938 10.4545 25.546C10.3068 25.3983 10.2031 25.2123 10.1551 25.0089C10.1071 24.8056 10.1167 24.5929 10.1828 24.3946L13.5578 14.2696C13.6131 14.1038 13.7062 13.9531 13.8298 13.8295C13.9534 13.7059 14.1041 13.6128 14.2699 13.5575L24.3949 10.1825C24.5931 10.1166 24.8057 10.1071 25.009 10.1552ZM15.5153 15.5161L13.029 22.9726L20.4867 20.4875L15.5153 15.5161Z" fill="#000000"/>
</svg>
