<svg width="36" height="36" viewBox="0 0 36 36" fill="none" xmlns="http://www.w3.org/2000/svg">
<path fill-rule="evenodd" clip-rule="evenodd" d="M18 33C26.2843 33 33 26.2843 33 18C33 9.71573 26.2843 3 18 3C9.71573 3 3 9.71573 3 18C3 26.2843 9.71573 33 18 33ZM11.4295 25.355C11.239 25.3099 11.0647 25.2127 10.9263 25.0741C10.7878 24.9357 10.6906 24.7615 10.6455 24.5709C10.6004 24.3804 10.6093 24.181 10.6711 23.9952L13.8351 14.503C13.887 14.3475 13.9743 14.2063 14.0902 14.0904C14.206 13.9745 14.3473 13.8872 14.5028 13.8354L23.995 10.6713C24.1808 10.6094 24.3802 10.6004 24.5709 10.6454C24.7615 10.6903 24.9359 10.7876 25.0744 10.9261C25.2129 11.0646 25.3101 11.2389 25.3551 11.4296C25.4001 11.6203 25.3911 11.8197 25.3291 12.0055L22.1651 21.4977C22.1132 21.6532 22.0259 21.7944 21.91 21.9103C21.7942 22.0262 21.6529 22.1135 21.4975 22.1653L12.0053 25.3294C11.8195 25.3912 11.6201 25.4001 11.4295 25.355ZM20.3299 20.3291L22.6608 13.3386L15.6692 15.6684L20.3299 20.3291Z" fill="#000000"/>
</svg>
