<svg width="36" height="36" viewBox="0 0 36 36" fill="none" xmlns="http://www.w3.org/2000/svg">
<path d="M28.75 5.38C28.5286 5.28148 28.2835 5.24889 28.0441 5.28614C27.8046 5.32339 27.581 5.42889 27.4 5.59C27.4 5.59 26.31 6.5 23.25 6.5C21.6752 6.41543 20.1324 6.02125 18.71 5.34C16.9987 4.53057 15.1416 4.0748 13.25 4C9.19001 4 7.64001 5.35 7.37001 5.62C7.25235 5.73428 7.15894 5.87111 7.09536 6.02231C7.03179 6.17351 6.99936 6.33598 7.00001 6.5V30.25C7.00001 30.5815 7.13171 30.8995 7.36613 31.1339C7.60055 31.3683 7.91849 31.5 8.25001 31.5C8.58153 31.5 8.89947 31.3683 9.13389 31.1339C9.36831 30.8995 9.50001 30.5815 9.50001 30.25V22.18C10.6826 21.6731 11.9647 21.4406 13.25 21.5C14.8249 21.5846 16.3676 21.9788 17.79 22.66C19.5013 23.4694 21.3584 23.9252 23.25 24C27.31 24 28.86 22.65 29.13 22.38C29.2477 22.2657 29.3411 22.1289 29.4047 21.9777C29.4682 21.8265 29.5007 21.664 29.5 21.5V6.5C29.4976 6.26058 29.4253 6.02707 29.2921 5.82812C29.1589 5.62917 28.9705 5.47343 28.75 5.38ZM27 20.83C25.8162 21.3322 24.5345 21.5612 23.25 21.5C21.6752 21.4154 20.1324 21.0212 18.71 20.34C16.9987 19.5306 15.1416 19.0748 13.25 19C11.9828 18.9797 10.7194 19.1447 9.50001 19.49V7.17C10.6838 6.66783 11.9656 6.43883 13.25 6.5C14.8249 6.58457 16.3676 6.97875 17.79 7.66C19.5013 8.46943 21.3584 8.9252 23.25 9C24.5172 9.02033 25.7806 8.85525 27 8.51V20.83Z" fill="#7E7C90"/>
</svg>
