<svg width="36" height="36" viewBox="0 0 36 36" fill="none" xmlns="http://www.w3.org/2000/svg">
<path fill-rule="evenodd" clip-rule="evenodd" d="M13 3.8C10.9898 3.8 9.58643 4.13551 8.64813 4.51083C8.18004 4.69806 7.83292 4.89316 7.58831 5.05623C7.46623 5.13762 7.37035 5.21059 7.29824 5.26997C7.2622 5.29965 7.23216 5.32589 7.2078 5.34803C7.18955 5.36462 7.17158 5.38157 7.15407 5.39893L7.15278 5.40021C7.15106 5.40193 7.15152 5.40147 7.15152 5.40147C6.92648 5.62651 6.80005 5.93174 6.80005 6.25V21.25V30C6.80005 30.6627 7.33731 31.2 8.00005 31.2C8.66279 31.2 9.20005 30.6627 9.20005 30V21.8917C9.29376 21.8442 9.40637 21.7924 9.53947 21.7392C10.1637 21.4895 11.2603 21.2 13 21.2C14.6119 21.2 15.9702 21.7305 17.5544 22.3642L17.6217 22.3911C19.1466 23.0012 20.893 23.7 23 23.7C25.0103 23.7 26.4137 23.3645 27.352 22.9892C27.8201 22.8019 28.1672 22.6068 28.4118 22.4438C28.5339 22.3624 28.6298 22.2894 28.7019 22.23C28.7635 22.1792 28.8029 22.143 28.8434 22.1037L28.846 22.1011L28.8473 22.0998C28.849 22.0981 28.8486 22.0985 28.8486 22.0985C29.0736 21.8735 29.2001 21.5683 29.2001 21.25V6.25C29.2001 5.76464 28.9077 5.32708 28.4593 5.14134C28.0219 4.96019 27.5201 5.05338 27.1772 5.37652L27.1762 5.37739C27.1653 5.38637 27.1342 5.41105 27.0805 5.44685C26.9735 5.51816 26.7738 5.63556 26.4606 5.76083C25.8364 6.01051 24.7398 6.3 23 6.3C21.3882 6.3 20.0299 5.76951 18.4457 5.13583L18.3784 5.1089C16.8535 4.49876 15.1071 3.8 13 3.8Z" fill="#000000"/>
</svg>
