<svg width="36" height="36" viewBox="0 0 36 36" fill="none" xmlns="http://www.w3.org/2000/svg">
<path fill-rule="evenodd" clip-rule="evenodd" d="M29.4593 12.0884L32.8316 13.9542C32.9628 14.0318 33.0766 14.1355 33.1661 14.2589C33.2555 14.3823 33.3187 14.5228 33.3516 14.6717C33.8372 16.8632 33.8373 19.1344 33.3521 21.326C33.3219 21.4766 33.2595 21.619 33.1693 21.7434C33.0786 21.8686 32.9617 21.9727 32.8269 22.0484L32.826 22.0489L29.4703 23.9131C29.2785 24.2686 29.0731 24.6265 28.8445 24.9749L28.9135 28.8111C28.9153 28.9652 28.8839 29.1179 28.8213 29.2587C28.7591 29.3987 28.6675 29.5237 28.5528 29.6253C26.8994 31.1428 24.9358 32.2827 22.7981 32.9661L22.7816 32.9714L22.4929 33.0195L22.4743 33.0197C22.2741 33.0216 22.0777 32.9651 21.9093 32.857L18.6153 30.8861C18.2055 30.909 17.7948 30.909 17.385 30.8862L14.1018 32.8589C13.9682 32.9385 13.8186 32.9897 13.6642 33.0082C13.5097 33.0267 13.3531 33.0127 13.2044 32.9669L13.2019 32.9661C11.0667 32.283 9.10359 31.148 7.44624 29.6384C7.33114 29.5338 7.23956 29.406 7.17757 29.2634C7.11551 29.1207 7.08451 28.9664 7.08663 28.8108L7.08664 28.8098L7.15562 24.9747C6.93126 24.6319 6.72601 24.277 6.5408 23.9116L3.16853 22.0458C3.03731 21.9682 2.92347 21.8645 2.834 21.7411C2.74454 21.6177 2.6814 21.4772 2.64851 21.3284C2.16291 19.1368 2.16274 16.8656 2.64798 14.674C2.67821 14.5234 2.74054 14.381 2.83074 14.2566C2.92151 14.1314 3.03835 14.0273 3.1732 13.9517L3.17411 13.9511L6.52979 12.0869C6.72162 11.7314 6.92694 11.3736 7.15562 11.0251L7.08662 7.18889C7.08473 7.0348 7.11615 6.88213 7.17874 6.74132C7.24097 6.6013 7.33254 6.4763 7.44726 6.37476C9.1007 4.85726 11.0643 3.71731 13.202 3.0339L13.2053 3.03283C13.3517 2.98839 13.5058 2.97506 13.6577 2.99365C13.8095 3.01225 13.9558 3.06238 14.0872 3.14084L17.3848 5.11387C17.7945 5.09102 18.2053 5.09102 18.6151 5.11385L21.8983 3.14116C22.0319 3.06149 22.1815 3.01033 22.3359 2.9918C22.4904 2.97326 22.647 2.98735 22.7957 3.03314L22.7982 3.0339C24.9334 3.71698 26.8965 4.85197 28.5538 6.36164C28.6689 6.46618 28.7605 6.59397 28.8225 6.73657C28.8846 6.87929 28.9156 7.03358 28.9135 7.1892L28.9134 7.19026L28.8445 11.0253C29.0688 11.3681 29.2741 11.723 29.4593 12.0884ZM26.7439 28.3399L26.6755 24.6601C26.6806 24.4394 26.7483 24.2246 26.8704 24.0407C27.1663 23.5941 27.4334 23.129 27.67 22.6484C27.7665 22.4465 27.9254 22.281 28.1232 22.1765L31.3271 20.3904C31.6174 18.81 31.6174 17.19 31.3271 15.6096L28.1232 13.8235C27.9248 13.7187 27.7656 13.5526 27.6692 13.3499C27.5811 13.1645 27.4872 12.9818 27.388 12.8023C27.226 12.5093 27.0494 12.2245 26.8589 11.949L26.8513 11.938C26.7378 11.7526 26.6773 11.5395 26.6757 11.3221L26.6756 11.3159L26.7439 7.64737C25.5101 6.61648 24.1068 5.80756 22.5964 5.25664L19.4393 7.15633C19.2442 7.26572 19.0211 7.31518 18.798 7.29873C18.2627 7.25751 17.7241 7.25745 17.1888 7.29867L17.1869 7.29882C16.9681 7.31394 16.7497 7.26402 16.5592 7.15534L16.5544 7.15258L13.4034 5.25647C11.8892 5.80504 10.4848 6.61907 9.25617 7.66039L9.32438 11.3299C9.32829 11.5566 9.25916 11.7787 9.12726 11.963C8.83234 12.4084 8.56608 12.8722 8.3301 13.3515C8.23366 13.5535 8.07475 13.719 7.87691 13.8235L4.67294 15.6096C4.38265 17.19 4.38265 18.81 4.67294 20.3904L4.93924 20.5389L7.87688 22.1765C8.07524 22.2813 8.23448 22.4474 8.33085 22.6501C8.56288 23.1381 8.83387 23.6066 9.14119 24.051L9.14372 24.0547C9.26767 24.2412 9.33075 24.4616 9.32435 24.6854L9.32431 24.6869L9.25619 28.3526C10.4899 29.3835 11.8933 30.1925 13.4037 30.7434L16.5608 28.8437C16.7559 28.7343 16.979 28.6848 17.2021 28.7013C17.7374 28.7425 18.2759 28.7426 18.8113 28.7013L18.8205 28.7006H18.886C19.0784 28.7014 19.2685 28.7502 19.4373 28.8427L19.4458 28.8473L22.5969 30.7437C24.1123 30.1979 25.5171 29.3836 26.7439 28.3399ZM14 18C14 15.7909 15.7909 14 18 14C20.2091 14 22 15.7909 22 18C22 20.2091 20.2091 22 18 22C15.7909 22 14 20.2091 14 18ZM18 12C14.6863 12 12 14.6863 12 18C12 21.3137 14.6863 24 18 24C21.3137 24 24 21.3137 24 18C24 14.6863 21.3137 12 18 12Z" fill="#7E7C90"/>
</svg>
