<svg width="36" height="36" viewBox="0 0 36 36" fill="none" xmlns="http://www.w3.org/2000/svg">
<path fill-rule="evenodd" clip-rule="evenodd" d="M32.9476 14.5259C33.0177 14.6227 33.0673 14.7329 33.093 14.8496C33.5713 17.0078 33.5713 19.2445 33.093 21.4027C33.0698 21.5204 33.0213 21.6316 32.9509 21.7287C32.8805 21.8258 32.7898 21.9065 32.6852 21.9652L29.268 23.8636C29.0571 24.2574 28.8321 24.6511 28.579 25.0308L28.6493 28.9402C28.6508 29.0597 28.6264 29.1781 28.5779 29.2873C28.5293 29.3966 28.4577 29.494 28.368 29.573C26.7399 31.0678 24.8061 32.1906 22.7009 32.8636L22.4477 32.9058C22.2932 32.9073 22.1415 32.8633 22.0118 32.7793L18.6509 30.7683C18.2013 30.7964 17.7504 30.7964 17.3009 30.7683L13.954 32.7793C13.8492 32.8417 13.7325 32.8815 13.6114 32.896C13.4903 32.9106 13.3674 32.8995 13.2509 32.8636C11.1484 32.1911 9.21554 31.0735 7.58367 29.5871C7.49362 29.5053 7.42197 29.4054 7.37348 29.2939C7.325 29.1824 7.30077 29.0618 7.30242 28.9402L7.37274 25.0308C7.12383 24.6561 6.8984 24.2663 6.69774 23.8636L3.26649 21.9652C3.16359 21.9044 3.07429 21.8231 3.00413 21.7263C2.93398 21.6296 2.88447 21.5194 2.85868 21.4027C2.38044 19.2445 2.38044 17.0078 2.85868 14.8496C2.88195 14.7319 2.93046 14.6207 3.00087 14.5236C3.07127 14.4265 3.16189 14.3458 3.26649 14.2871L6.68368 12.3886C6.89461 11.9949 7.11961 11.6011 7.37274 11.2214L7.30242 7.31206C7.30096 7.19255 7.32533 7.07413 7.37387 6.96491C7.42241 6.85569 7.49398 6.75825 7.58367 6.67925C9.21184 5.18449 11.1456 4.06168 13.2509 3.38863C13.3653 3.3539 13.4856 3.34346 13.6043 3.35799C13.723 3.37252 13.8373 3.4117 13.9399 3.473L17.3009 5.48394C17.7504 5.45582 18.2013 5.45582 18.6509 5.48394L21.9977 3.473C22.1025 3.41053 22.2192 3.37074 22.3403 3.35621C22.4615 3.34168 22.5843 3.35272 22.7009 3.38863C24.8033 4.0612 26.7362 5.17873 28.368 6.66519C28.4581 6.74692 28.5297 6.84686 28.5782 6.95838C28.6267 7.06991 28.6509 7.19047 28.6493 7.31206L28.579 11.2214C28.8279 11.5962 29.0533 11.986 29.254 12.3886L32.6852 14.2871C32.7881 14.3479 32.8774 14.4292 32.9476 14.5259ZM17.9758 23.1261C20.7373 23.1261 22.9758 20.8875 22.9758 18.1261C22.9758 15.3647 20.7373 13.1261 17.9758 13.1261C15.2144 13.1261 12.9758 15.3647 12.9758 18.1261C12.9758 20.8875 15.2144 23.1261 17.9758 23.1261Z" fill="#000000"/>
</svg>
