<svg width="36" height="36" viewBox="0 0 36 36" fill="none" xmlns="http://www.w3.org/2000/svg">
<path fill-rule="evenodd" clip-rule="evenodd" d="M18 4C14.6863 4 12 6.68629 12 10V14C12 17.3137 14.6863 20 18 20C21.3137 20 24 17.3137 24 14V10C24 6.68629 21.3137 4 18 4ZM14 10C14 7.79086 15.7909 6 18 6C20.2091 6 22 7.79086 22 10V14C22 16.2091 20.2091 18 18 18C15.7909 18 14 16.2091 14 14V10ZM14.0608 24.7284C15.4118 24.0651 16.8521 23.7272 18.3012 23.7272C19.7502 23.7272 21.1905 24.0651 22.5416 24.7284C23.8935 25.3921 25.1339 26.3708 26.1864 27.6183C26.9483 28.5213 27.5999 29.5511 28.1205 30.6768H8.48191C9.00247 29.5511 9.65406 28.5213 10.4159 27.6183C11.4685 26.3708 12.7089 25.3921 14.0608 24.7284ZM18.3012 21.7272C16.5375 21.7272 14.7965 22.1392 13.1794 22.9331C11.5631 23.7266 10.1065 24.8836 8.88734 26.3286C7.6684 27.7733 6.70859 29.4796 6.056 31.3469C5.9491 31.6528 5.99702 31.9915 6.18456 32.2557C6.37209 32.5199 6.67601 32.6768 7.00001 32.6768H29.6024C29.9264 32.6768 30.2303 32.5199 30.4178 32.2557C30.6053 31.9915 30.6533 31.6528 30.5464 31.3469C29.8938 29.4796 28.934 27.7733 27.715 26.3286C26.4959 24.8836 25.0393 23.7266 23.423 22.9331C21.8059 22.1392 20.0649 21.7272 18.3012 21.7272Z" fill="#000000"/>
</svg>
