<svg width="18" height="18" viewBox="0 0 18 18" fill="none" xmlns="http://www.w3.org/2000/svg">
<path fill-rule="evenodd" clip-rule="evenodd" d="M17.1329 1.37329C18.1212 2.26986 18.1332 3.78125 17.1691 4.69282L13.7805 8.11098C13.6073 8.28573 13.3937 8.41518 13.1586 8.48792L10.9434 9.17334C10.3911 9.34424 9.78966 9.18247 9.39758 8.75752C9.00551 8.33257 8.89258 7.72011 9.10732 7.18328L9.85732 5.30827C9.93938 5.10312 10.0657 4.91863 10.2274 4.76799L13.8556 1.38689L13.8704 1.37329C14.7864 0.542236 16.2168 0.542236 17.1329 1.37329ZM16.125 2.48426C15.7807 2.17191 15.2225 2.17191 14.8782 2.48426L11.25 5.86536L10.5 7.74036L12.7153 7.05494L16.125 3.61536C16.4693 3.30301 16.4693 2.7966 16.125 2.48426Z" fill="#7E7C90"/>
<path d="M3 3C2.40326 3 1.83097 3.23705 1.40901 3.65901C0.987053 4.08097 0.75 4.65326 0.75 5.25V15.75C0.75 16.3467 0.987053 16.919 1.40901 17.341C1.83097 17.7629 2.40326 18 3 18H13.125C13.7217 18 14.294 17.7629 14.716 17.341C15.1379 16.919 15.375 16.3467 15.375 15.75V10.5C15.375 10.3011 15.296 10.1103 15.1553 9.96967C15.0147 9.82902 14.8239 9.75 14.625 9.75C14.4261 9.75 14.2353 9.82902 14.0947 9.96967C13.954 10.1103 13.875 10.3011 13.875 10.5V15.75C13.875 15.9489 13.796 16.1397 13.6553 16.2803C13.5147 16.421 13.3239 16.5 13.125 16.5H3C2.80109 16.5 2.61032 16.421 2.46967 16.2803C2.32902 16.1397 2.25 15.9489 2.25 15.75V5.25C2.25 5.05109 2.32902 4.86032 2.46967 4.71967C2.61032 4.57902 2.80109 4.5 3 4.5H8.25C8.44891 4.5 8.63968 4.42098 8.78033 4.28033C8.92098 4.13968 9 3.94891 9 3.75C9 3.55109 8.92098 3.36032 8.78033 3.21967C8.63968 3.07902 8.44891 3 8.25 3H3Z" fill="#7E7C90"/>
<path d="M3.75 14.25C3.75 13.8358 4.08579 13.5 4.5 13.5H11.625C12.0392 13.5 12.375 13.8358 12.375 14.25C12.375 14.6642 12.0392 15 11.625 15H4.5C4.08579 15 3.75 14.6642 3.75 14.25Z" fill="#7E7C90"/>
<path d="M4.5 10.125C4.08579 10.125 3.75 10.4608 3.75 10.875C3.75 11.2892 4.08579 11.625 4.5 11.625H11.625C12.0392 11.625 12.375 11.2892 12.375 10.875C12.375 10.4608 12.0392 10.125 11.625 10.125H4.5Z" fill="#7E7C90"/>
<path d="M3.75 7.5C3.75 7.08579 4.08579 6.75 4.5 6.75H6.75C7.16421 6.75 7.5 7.08579 7.5 7.5C7.5 7.91421 7.16421 8.25 6.75 8.25H4.5C4.08579 8.25 3.75 7.91421 3.75 7.5Z" fill="#7E7C90"/>
</svg>
