<svg width="18" height="18" viewBox="0 0 18 18" fill="none" xmlns="http://www.w3.org/2000/svg">
<path d="M10.5 6C10.9142 6 11.25 6.33579 11.25 6.75V11.25C11.25 11.6642 10.9142 12 10.5 12C10.0858 12 9.75 11.6642 9.75 11.25V6.75C9.75 6.33579 10.0858 6 10.5 6Z" fill="#7E7C90"/>
<path d="M8.25 6.75C8.25 6.33579 7.91421 6 7.5 6C7.08579 6 6.75 6.33579 6.75 6.75V11.25C6.75 11.6642 7.08579 12 7.5 12C7.91421 12 8.25 11.6642 8.25 11.25V6.75Z" fill="#7E7C90"/>
<path fill-rule="evenodd" clip-rule="evenodd" d="M0.75 9C0.75 4.44365 4.44365 0.75 9 0.75C13.5563 0.75 17.25 4.44365 17.25 9C17.25 13.5563 13.5563 17.25 9 17.25C4.44365 17.25 0.75 13.5563 0.75 9ZM9 2.25C5.27208 2.25 2.25 5.27208 2.25 9C2.25 12.7279 5.27208 15.75 9 15.75C12.7279 15.75 15.75 12.7279 15.75 9C15.75 5.27208 12.7279 2.25 9 2.25Z" fill="#7E7C90"/>
</svg>
