<svg width="18" height="15" viewBox="0 0 18 15" fill="none" xmlns="http://www.w3.org/2000/svg">
<path fill-rule="evenodd" clip-rule="evenodd" d="M3 3.4375C3 1.67709 4.42709 0.25 6.1875 0.25C7.94791 0.25 9.375 1.67709 9.375 3.4375V5.4375C9.375 7.19791 7.94791 8.625 6.1875 8.625C4.42709 8.625 3 7.19791 3 5.4375V3.4375ZM6.1875 1.625C5.18649 1.625 4.375 2.43648 4.375 3.4375V5.4375C4.375 6.43852 5.18649 7.25 6.1875 7.25C7.18852 7.25 8 6.43852 8 5.4375V3.4375C8 2.43648 7.18852 1.625 6.1875 1.625Z" fill="#7E7C90"/>
<path fill-rule="evenodd" clip-rule="evenodd" d="M3.69457 9.73573C4.52806 9.32655 5.42674 9.11359 6.33809 9.11359C7.24944 9.11359 8.14812 9.32655 8.98161 9.73573C9.81454 10.1446 10.5631 10.7399 11.1883 11.4809C11.8134 12.2217 12.3043 13.0951 12.6377 14.0491C12.7112 14.2594 12.6782 14.4922 12.5493 14.6739C12.4204 14.8555 12.2114 14.9634 11.9887 14.9634H0.687505C0.464758 14.9634 0.255814 14.8555 0.126882 14.6739C-0.00204984 14.4922 -0.0349904 14.2594 0.0384988 14.0491C0.371893 13.0951 0.862823 12.2217 1.48787 11.4809C2.11307 10.7399 2.86164 10.1446 3.69457 9.73573ZM6.33809 10.4886C5.64307 10.4886 4.95111 10.6506 4.30051 10.97C3.64935 11.2897 3.04944 11.7623 2.53877 12.3676C2.22983 12.7337 1.95771 13.1435 1.72863 13.5884H10.9476C10.7185 13.1435 10.4464 12.7337 10.1374 12.3676C9.62674 11.7623 9.02684 11.2897 8.37567 10.97C7.72507 10.6506 7.03312 10.4886 6.33809 10.4886Z" fill="#7E7C90"/>
<path d="M14.25 0.25C14.6642 0.25 15 0.585786 15 1V2.5H16.5C16.9142 2.5 17.25 2.83579 17.25 3.25C17.25 3.66421 16.9142 4 16.5 4H15V5.5C15 5.91421 14.6642 6.25 14.25 6.25C13.8358 6.25 13.5 5.91421 13.5 5.5V4H12C11.5858 4 11.25 3.66421 11.25 3.25C11.25 2.83579 11.5858 2.5 12 2.5H13.5V1C13.5 0.585786 13.8358 0.25 14.25 0.25Z" fill="#7E7C90"/>
</svg>
