<svg width="18" height="18" viewBox="0 0 18 18" fill="none" xmlns="http://www.w3.org/2000/svg">
<path fill-rule="evenodd" clip-rule="evenodd" d="M7.95002 4.6875V6.69C7.95002 7.17733 7.75642 7.64471 7.41183 7.98931C7.06723 8.33391 6.59985 8.5275 6.11252 8.5275C5.62518 8.5275 5.15781 8.33391 4.81321 7.98931C4.46861 7.64471 4.27502 7.17733 4.27502 6.69V4.6875C4.27502 4.20016 4.46861 3.73279 4.81321 3.38819C5.15781 3.04359 5.62518 2.85 6.11252 2.85C6.59985 2.85 7.06723 3.04359 7.41183 3.38819C7.75642 3.73279 7.95002 4.20016 7.95002 4.6875ZM3.85862 2.4336C4.45639 1.83582 5.26714 1.5 6.11252 1.5C6.9579 1.5 7.76865 1.83582 8.36642 2.4336C8.96419 3.03137 9.30002 3.84212 9.30002 4.6875V6.69C9.30002 7.10859 9.21757 7.52308 9.05738 7.9098C8.8972 8.29653 8.66241 8.64792 8.36642 8.9439C8.07043 9.23989 7.71905 9.47468 7.33232 9.63486C6.9456 9.79505 6.53111 9.8775 6.11252 9.8775C5.69393 9.8775 5.27944 9.79505 4.89271 9.63486C4.50599 9.47468 4.1546 9.23989 3.85862 8.9439C3.56263 8.64792 3.32784 8.29653 3.16765 7.9098C3.00747 7.52308 2.92502 7.10859 2.92502 6.69V4.6875C2.92502 3.84212 3.26084 3.03137 3.85862 2.4336ZM13.8 6.69V4.6875C13.8 3.84212 13.4642 3.03137 12.8664 2.4336C12.2686 1.83582 11.4579 1.5 10.6125 1.5H10.425C10.246 1.5 10.0743 1.57112 9.9477 1.6977C9.82112 1.82429 9.75 1.99598 9.75 2.175C9.75 2.35402 9.82112 2.52571 9.9477 2.6523C10.0743 2.77888 10.246 2.85 10.425 2.85H10.6125C11.0998 2.85 11.5672 3.04359 11.9118 3.38819C12.2564 3.73279 12.45 4.20016 12.45 4.6875V6.69C12.447 7.14148 12.2779 7.57606 11.975 7.91082C11.672 8.24559 11.2564 8.4571 10.8075 8.505C10.6285 8.505 10.4568 8.57612 10.3302 8.7027C10.2036 8.82929 10.1325 9.00098 10.1325 9.18C10.1325 9.35902 10.2036 9.53071 10.3302 9.6573C10.4568 9.78388 10.6285 9.855 10.8075 9.855H10.9425C11.7256 9.77349 12.4508 9.40505 12.9784 8.82067C13.506 8.23629 13.7987 7.47732 13.8 6.69ZM0.0524548 15.2625C0.907455 13.1625 2.87995 10.3875 6.29995 10.3875C9.71995 10.3875 11.7675 13.155 12.555 15.285C12.5951 15.3856 12.6092 15.4946 12.5961 15.6021C12.583 15.7096 12.5431 15.812 12.48 15.9C12.4185 15.9905 12.3357 16.0645 12.239 16.1155C12.1422 16.1665 12.0344 16.193 11.925 16.1925H0.674955C0.563859 16.1921 0.454552 16.1645 0.356525 16.1122C0.258499 16.0599 0.174717 15.9845 0.112455 15.8925C0.0517295 15.8004 0.0145078 15.6948 0.0040478 15.585C-0.00641219 15.4751 0.0102084 15.3644 0.0524548 15.2625ZM1.73995 14.8425H10.8825C10.478 13.9536 9.83627 13.1935 9.0278 12.6457C8.21933 12.0979 7.27545 11.7836 6.29995 11.7375C4.13245 11.7375 2.63995 13.215 1.73995 14.8425ZM12.1142 10.7913C12.0648 10.8667 12.0311 10.9513 12.015 11.04C11.9837 11.2117 12.0201 11.3889 12.1166 11.5343C12.2131 11.6797 12.3621 11.7821 12.5325 11.82C13.3127 12.0323 14.0381 12.4102 14.6593 12.9278C15.2805 13.4455 15.7829 14.0909 16.1325 14.82H15.675C15.496 14.82 15.3243 14.8911 15.1977 15.0177C15.0711 15.1443 15 15.316 15 15.495C15 15.674 15.0711 15.8457 15.1977 15.9723C15.3243 16.0989 15.496 16.17 15.675 16.17H17.175C17.2844 16.1705 17.3922 16.144 17.489 16.093C17.5858 16.042 17.6685 15.968 17.73 15.8775C17.7931 15.7895 17.8331 15.6871 17.8462 15.5796C17.8593 15.4721 17.8451 15.3631 17.805 15.2625C17.115 13.4025 15.4875 11.085 12.8175 10.5C12.7292 10.4815 12.6382 10.4809 12.5497 10.4982C12.4612 10.5155 12.3771 10.5503 12.3023 10.6007C12.2275 10.651 12.1635 10.7158 12.1142 10.7913Z" fill="#000000"/>
</svg>
