<svg width="13" height="15" viewBox="0 0 13 15" fill="none" xmlns="http://www.w3.org/2000/svg">
<path fill-rule="evenodd" clip-rule="evenodd" d="M6.1875 0.25C4.42709 0.25 3 1.67709 3 3.4375V5.4375C3 7.19791 4.42709 8.625 6.1875 8.625C7.94791 8.625 9.375 7.19791 9.375 5.4375V3.4375C9.375 1.67709 7.94791 0.25 6.1875 0.25ZM4.375 3.4375C4.375 2.43648 5.18649 1.625 6.1875 1.625C7.18852 1.625 8 2.43648 8 3.4375V5.4375C8 6.43852 7.18852 7.25 6.1875 7.25C5.18649 7.25 4.375 6.43852 4.375 5.4375V3.4375Z" fill="#211F30"/>
<path fill-rule="evenodd" clip-rule="evenodd" d="M6.33809 9.11359C5.42674 9.11359 4.52806 9.32655 3.69457 9.73573C2.86164 10.1446 2.11307 10.7399 1.48787 11.4809C0.862823 12.2217 0.371893 13.0951 0.0384988 14.0491C-0.0349904 14.2594 -0.00204984 14.4922 0.126882 14.6739C0.255814 14.8555 0.464758 14.9634 0.687505 14.9634H11.9887C12.2114 14.9634 12.4204 14.8555 12.5493 14.6739C12.6782 14.4922 12.7112 14.2594 12.6377 14.0491C12.3043 13.0951 11.8134 12.2217 11.1883 11.4809C10.5631 10.7399 9.81454 10.1446 8.98161 9.73573C8.14812 9.32655 7.24944 9.11359 6.33809 9.11359ZM4.30051 10.97C4.95111 10.6506 5.64307 10.4886 6.33809 10.4886C7.03312 10.4886 7.72507 10.6506 8.37567 10.97C9.02684 11.2897 9.62674 11.7623 10.1374 12.3676C10.4464 12.7337 10.7185 13.1435 10.9476 13.5884H1.72863C1.95771 13.1435 2.22983 12.7337 2.53877 12.3676C3.04944 11.7623 3.64935 11.2897 4.30051 10.97Z" fill="#211F30"/>
</svg>
