<svg width="24" height="24" viewBox="0 0 24 24" fill="none" xmlns="http://www.w3.org/2000/svg">
<g clip-path="url(#clip0_4160_341805)">
<path fill-rule="evenodd" clip-rule="evenodd" d="M21.8217 9.23591C21.782 9.27563 21.7398 9.3113 21.6955 9.34294L21.6993 9.34679L19.9186 11.0853C19.7289 11.2706 19.4733 11.3729 19.2081 11.3697C19.0004 11.3673 18.8001 11.3002 18.6341 11.1802L15.9467 13.804L15.4164 15.3335C15.3656 15.4802 15.2813 15.613 15.1702 15.7215L14.194 16.6745C14.1677 16.7087 14.139 16.7415 14.1077 16.7728C14.0705 16.81 14.0312 16.8436 13.9901 16.8737L13.9831 16.8805L13.9821 16.8795C13.5914 17.1593 13.0444 17.1238 12.6935 16.7728L10.5565 14.6359L4.26254 20.9299C4.11758 21.0748 3.93203 21.1727 3.7287 21.1988C3.35735 21.2464 2.76847 21.2954 2.62563 21.1525C2.48279 21.0097 2.53182 20.4208 2.57942 20.0495C2.60548 19.8461 2.70337 19.6606 2.84832 19.5156L9.1423 13.2217L6.67352 10.7529C6.283 10.3623 6.283 9.72918 6.67352 9.33866C6.68366 9.32853 6.69396 9.31865 6.70441 9.30904L6.69775 9.30225L7.86606 8.15787C7.97006 8.05599 8.09506 7.97805 8.23231 7.9295L9.83692 7.36185L12.405 4.84635C12.3083 4.70021 12.2507 4.52959 12.2406 4.35087C12.2244 4.06296 12.3333 3.78207 12.5393 3.58029L14.2917 1.86372C14.3147 1.83494 14.3402 1.8078 14.3669 1.78113C14.7574 1.39061 15.3906 1.39061 15.7811 1.78113L21.8217 7.8217C22.2122 8.21222 22.2122 8.84539 21.8217 9.23591ZM15.0713 3.89972L19.6874 8.51587L19.2266 8.96581C18.8396 8.68527 18.2955 8.71552 17.9419 9.06075L14.3806 12.5378C14.2695 12.6463 14.1852 12.7791 14.1343 12.9258L13.6041 14.4553L13.4018 14.6528L8.79583 10.0468L9.10768 9.74129L10.7123 9.17364C10.8495 9.12508 10.9745 9.04714 11.0785 8.94527L14.5835 5.51207C14.7895 5.31029 14.8983 5.0294 14.8821 4.74149C14.8721 4.56278 14.8144 4.39216 14.7178 4.24602L15.0713 3.89972Z" fill="#211F30"/>
</g>
<defs>
<clipPath id="clip0_4160_341805">
<rect width="24" height="24" fill="white"/>
</clipPath>
</defs>
</svg>
