<svg width="20" height="20" viewBox="0 0 20 20" fill="none" xmlns="http://www.w3.org/2000/svg">
<path d="M10.8333 4.16732C10.8333 3.70708 10.4602 3.33398 9.99992 3.33398C9.53968 3.33398 9.16658 3.70708 9.16658 4.16732V9.16732H4.16659C3.70635 9.16732 3.33325 9.54041 3.33325 10.0007C3.33325 10.4609 3.70635 10.834 4.16659 10.834H9.16658V15.834C9.16658 16.2942 9.53968 16.6673 9.99992 16.6673C10.4602 16.6673 10.8333 16.2942 10.8333 15.834V10.834H15.8333C16.2935 10.834 16.6666 10.4609 16.6666 10.0007C16.6666 9.54041 16.2935 9.16732 15.8333 9.16732H10.8333V4.16732Z" fill="white"/>
</svg>
