<svg width="40" height="40" viewBox="0 0 40 40" fill="none" xmlns="http://www.w3.org/2000/svg">
<path d="M0 20C0 8.95431 8.95431 0 20 0V0C31.0457 0 40 8.95431 40 20V20C40 31.0457 31.0457 40 20 40V40C8.95431 40 0 31.0457 0 20V20Z" fill="#E14963"/>
<path d="M20.9165 13.5834C20.9165 13.0772 20.5061 12.6667 19.9998 12.6667C19.4936 12.6667 19.0832 13.0772 19.0832 13.5834V19.0834H13.5832C13.0769 19.0834 12.6665 19.4938 12.6665 20.0001C12.6665 20.5063 13.0769 20.9167 13.5832 20.9167H19.0832V26.4167C19.0832 26.923 19.4936 27.3334 19.9998 27.3334C20.5061 27.3334 20.9165 26.923 20.9165 26.4167V20.9167H26.4165C26.9228 20.9167 27.3332 20.5063 27.3332 20.0001C27.3332 19.4938 26.9228 19.0834 26.4165 19.0834H20.9165V13.5834Z" fill="white"/>
</svg>
