<svg width="18" height="18" viewBox="0 0 18 18" fill="none" xmlns="http://www.w3.org/2000/svg">
<path fill-rule="evenodd" clip-rule="evenodd" d="M7.95402 1.58097C9.56421 1.35442 11.2044 1.65732 12.6275 2.44401C14.0506 3.2307 15.1794 4.45858 15.844 5.94262C16.5085 7.42667 16.6728 9.08649 16.312 10.672C15.9512 12.2575 15.0849 13.6828 13.8436 14.7332C12.6023 15.7835 11.0532 16.402 9.42988 16.4954C7.80652 16.5889 6.19677 16.1522 4.84317 15.2512C3.48957 14.3502 2.46545 13.0337 1.92512 11.5C1.78748 11.1094 1.9926 10.6811 2.38328 10.5434C2.77396 10.4058 3.20224 10.6109 3.33988 11.0016C3.77215 12.2285 4.59144 13.2817 5.67432 14.0025C6.7572 14.7233 8.04501 15.0727 9.34369 14.9979C10.6424 14.9232 11.8816 14.4284 12.8746 13.5881C13.8677 12.7478 14.5607 11.6076 14.8494 10.3392C15.138 9.07076 15.0066 7.7429 14.475 6.55566C13.9433 5.36842 13.0402 4.38613 11.9018 3.75677C10.7633 3.12742 9.45115 2.8851 8.163 3.06634C6.87485 3.24758 5.68049 3.84254 4.75988 4.7616C4.75453 4.76694 4.7491 4.7722 4.74358 4.77738L2.64342 6.75081L1.26358 8.04738C0.961725 8.33103 0.487081 8.31626 0.203437 8.0144C-0.0802062 7.71254 -0.0654396 7.2379 0.23642 6.95425L1.5 5.76692L3.70837 3.69182C4.85801 2.54767 6.34767 1.80697 7.95402 1.58097Z" fill="#7E7C90"/>
<path fill-rule="evenodd" clip-rule="evenodd" d="M0.75 2.25081C1.16421 2.25081 1.5 2.5866 1.5 3.00081V5.76692L2.64342 6.75081H5.25C5.66421 6.75081 6 7.0866 6 7.50081C6 7.91502 5.66421 8.25081 5.25 8.25081H0.75C0.335786 8.25081 0 7.91502 0 7.50081V3.00081C0 2.5866 0.335786 2.25081 0.75 2.25081Z" fill="#7E7C90"/>
</svg>
