<svg width="12" height="16" viewBox="0 0 12 16" fill="none" xmlns="http://www.w3.org/2000/svg">
<path fill-rule="evenodd" clip-rule="evenodd" d="M2.25 2C2.05109 2 1.86032 2.07902 1.71967 2.21967C1.57902 2.36032 1.5 2.55109 1.5 2.75V13.2926L5.56407 10.3897C5.82484 10.2034 6.17516 10.2034 6.43593 10.3897L10.5 13.2926V2.75C10.5 2.55109 10.421 2.36032 10.2803 2.21967C10.1397 2.07902 9.94891 2 9.75 2H2.25ZM0.65901 1.15901C1.08097 0.737053 1.65326 0.5 2.25 0.5H9.75C10.3467 0.5 10.919 0.737053 11.341 1.15901C11.7629 1.58097 12 2.15326 12 2.75V14.75C12 15.0309 11.843 15.2883 11.5932 15.4169C11.3434 15.5454 11.0427 15.5236 10.8141 15.3603L6 11.9217L1.18593 15.3603C0.957318 15.5236 0.656617 15.5454 0.406814 15.4169C0.157011 15.2883 0 15.0309 0 14.75V2.75C0 2.15326 0.237053 1.58097 0.65901 1.15901Z" fill="#7E7C90"/>
</svg>
