<svg width="18" height="18" viewBox="0 0 18 18" fill="none" xmlns="http://www.w3.org/2000/svg">
<path fill-rule="evenodd" clip-rule="evenodd" d="M15.75 0C16.105 0 16.3929 0.287817 16.3929 0.642857V1.60714H17.3571C17.7122 1.60714 18 1.89496 18 2.25C18 2.60504 17.7122 2.89286 17.3571 2.89286H16.3929V3.81197V3.85714C16.3929 4.21218 16.105 4.5 15.75 4.5C15.395 4.5 15.1071 4.21218 15.1071 3.85714V2.89286H14.1429C13.7878 2.89286 13.5 2.60504 13.5 2.25C13.5 1.89496 13.7878 1.60714 14.1429 1.60714H15.1071V0.642857C15.1071 0.287817 15.395 0 15.75 0ZM7.5 14.25H2.25C1.00736 14.25 0 13.2426 0 12V4.5C0 3.25736 1.00736 2.25 2.25 2.25H11.25C11.25 2.25 12 2.25 12 3C12 3.75 11.25 3.75 11.25 3.75H2.25C1.83579 3.75 1.5 4.08579 1.5 4.5V12C1.5 12.4142 1.83579 12.75 2.25 12.75H8.25H14.25C14.6642 12.75 15 12.4142 15 12V6.75C15 6.75 15 6 15.75 6C16.5 6 16.5 6.75 16.5 6.75V12C16.5 13.2426 15.4926 14.25 14.25 14.25H9V15.75H11.25C11.6642 15.75 12 16.0858 12 16.5C12 16.9142 11.6642 17.25 11.25 17.25H8.25H5.25C4.83579 17.25 4.5 16.9142 4.5 16.5C4.5 16.0858 4.83579 15.75 5.25 15.75H7.5V14.25Z" fill="#7E7C90"/>
<path fill-rule="evenodd" clip-rule="evenodd" d="M6.97809 6.21257C6.97809 5.44351 7.60153 4.82007 8.37059 4.82007C9.13965 4.82007 9.76309 5.44351 9.76309 6.21257V6.87924C9.76309 7.64829 9.13965 8.27174 8.37059 8.27174C7.60153 8.27174 6.97809 7.64829 6.97809 6.87924V6.21257Z" fill="#7E7C90"/>
<path d="M8.41139 9C8.05568 9 7.70651 9.08321 7.38479 9.24115C7.06352 9.39887 6.77831 9.62672 6.54243 9.90629C6.30667 10.1857 6.12362 10.5126 6 10.8663C5.94023 11.0373 5.96702 11.2267 6.07188 11.3744C6.17675 11.5222 6.34669 11.6099 6.52786 11.6099H10.2949C10.4761 11.6099 10.646 11.5222 10.7509 11.3744C10.8558 11.2267 10.8825 11.0373 10.8228 10.8663C10.6992 10.5126 10.5161 10.1857 10.2803 9.90629C10.0445 9.62672 9.75926 9.39887 9.43799 9.24115C9.11627 9.08321 8.76709 9 8.41139 9Z" fill="#7E7C90"/>
</svg>
