<svg width="24" height="24" viewBox="0 0 24 24" fill="none" xmlns="http://www.w3.org/2000/svg">
<path fill-rule="evenodd" clip-rule="evenodd" d="M12.4961 3.13176C12.1821 2.95231 11.7956 2.95642 11.4855 3.14251L1.4855 9.14251C1.1843 9.32323 1 9.64874 1 10C1 10.3513 1.1843 10.6768 1.4855 10.8575L4 12.3662V17L4.1323 17.4971C4.26461 17.9942 4.1329 17.4981 4.1329 17.4981L4.13748 17.506L4.14631 17.521C4.15324 17.5327 4.16226 17.5476 4.17342 17.5657C4.19572 17.6017 4.22658 17.6501 4.26627 17.709C4.34558 17.8268 4.46054 17.9873 4.61338 18.1761C4.91856 18.5531 5.3783 19.0472 6.01106 19.5394C7.28577 20.5308 9.24699 21.5 12 21.5C14.753 21.5 16.7142 20.5308 17.9889 19.5394C18.6217 19.0472 19.0814 18.5531 19.3866 18.1761C19.5395 17.9873 19.6544 17.8268 19.7337 17.709C19.7734 17.6501 19.8043 17.6017 19.8266 17.5657C19.8377 17.5476 19.8468 17.5327 19.8537 17.521L19.8625 17.506L19.8658 17.5004C19.8658 17.5004 20 17.0298 20 17V12.5803L21.5 11.7232V15.5C21.5 16.0523 21.9477 16.5 22.5 16.5C23.0523 16.5 23.5 16.0523 23.5 15.5V10C23.5 9.64114 23.3077 9.3098 22.9961 9.13176L12.4961 3.13176ZM18 13.7232L12.4961 16.8682C12.2214 17.0253 11.8911 17.0417 11.6051 16.9187C11.5702 16.9038 11.536 16.8867 11.5027 16.8676L6 13.7232V16.6988C6.0446 16.7605 6.10044 16.8344 6.16787 16.9177C6.39394 17.1969 6.7467 17.5778 7.23894 17.9606C8.21422 18.7192 9.75301 19.5 12 19.5C14.247 19.5 15.7858 18.7192 16.7611 17.9606C17.2533 17.5778 17.6061 17.1969 17.8321 16.9177C17.8996 16.8344 17.9554 16.7605 18 16.6988V13.7232ZM20.4844 10L12.0123 5.15879L3.94365 10L12.0123 14.8412L20.4844 10Z" fill="#7E7C90"/>
</svg>
