<svg width="96" height="96" viewBox="0 0 96 96" fill="none" xmlns="http://www.w3.org/2000/svg">
<path fill-rule="evenodd" clip-rule="evenodd" d="M44.6667 4.83716C22.2071 4.83716 4 23.0442 4 45.5038C4 67.9634 22.2071 86.1705 44.6667 86.1705C67.1263 86.1705 85.3333 67.9634 85.3333 45.5038C85.3333 23.0442 67.1263 4.83716 44.6667 4.83716ZM6.93647e-08 45.5038C3.10556e-08 20.8351 19.9979 0.837158 44.6667 0.837158C69.3354 0.837158 89.3333 20.8351 89.3333 45.5038C89.3333 57.1185 84.9002 67.6978 77.6337 75.642L94.5774 92.5856C95.3585 93.3667 95.3585 94.633 94.5774 95.4141C93.7964 96.1951 92.53 96.1951 91.749 95.4141L74.8053 78.4704C66.8611 85.7372 56.2816 90.1705 44.6667 90.1705C19.9979 90.1705 1.07674e-07 70.1725 6.93647e-08 45.5038ZM24.318 65.6129L24.3367 65.6154C24.5455 65.6438 24.7571 65.6446 24.966 65.6179L36.7386 61.5971L36.8104 61.6292C39.4364 62.8026 42.2788 63.4109 45.154 63.4148C48.9883 63.3848 52.7431 62.3162 56.0208 60.322C59.2892 58.3159 61.9255 55.4251 63.6256 51.9827C65.058 49.1088 65.8024 45.9391 65.7991 42.7266L65.7991 41.5006C65.5188 36.4078 63.3651 31.5998 59.754 28.0053C56.1428 24.4106 51.3305 22.2847 46.2467 22.0381H45.1544C41.9471 22.0108 38.7787 22.7575 35.92 24.215C32.4905 25.9341 29.6052 28.5771 27.5901 31.8466C25.5749 35.1161 24.5082 38.8835 24.5097 42.7264L24.5097 42.7287C24.4772 45.6242 25.0472 48.4947 26.1832 51.1572L26.2129 51.2269L22.3053 62.9743C22.2006 63.2837 22.1727 63.615 22.2248 63.9375C22.2769 64.26 22.4071 64.5647 22.6039 64.825C22.8007 65.0854 23.0581 65.2934 23.3536 65.4309C23.6492 65.5684 23.9738 65.6312 24.2991 65.6139L24.318 65.6129ZM45.1105 26.0356H46.131C50.1937 26.2614 54.0328 27.9718 56.9221 30.8425C59.8114 33.7132 61.5504 37.5455 61.8104 41.6143L61.8112 41.6271L61.8108 42.7264C61.8108 47.153 60.056 51.3983 56.9324 54.5285C53.8091 57.6583 49.5731 59.4168 45.156 59.4173C42.5672 59.4606 40.0086 58.8558 37.712 57.6578C37.4769 57.537 37.2202 57.4642 36.9568 57.4436C36.6933 57.423 36.4283 57.4552 36.1772 57.5382L27.46 60.4577L30.3732 51.7229C30.4559 51.4713 30.4881 51.2052 30.4676 50.9411C30.4471 50.6768 30.3743 50.4193 30.2535 50.1835L30.2525 50.1815C28.2795 46.2212 27.9573 41.6377 29.3566 37.4392C30.7559 33.2409 33.7621 29.7714 37.7142 27.7939C40.0092 26.6383 42.542 26.0362 45.1105 26.0356Z" fill="#989EDA"/>
</svg>
