<svg width="24" height="24" viewBox="0 0 24 24" fill="none" xmlns="http://www.w3.org/2000/svg">
<path fill-rule="evenodd" clip-rule="evenodd" d="M23.1378 12.0928C23.1406 12.0621 23.1421 12.0311 23.1421 12C23.1421 11.9663 23.1404 11.9328 23.1371 11.8998C23.1188 11.716 23.0508 11.5469 22.9467 11.4061C22.8832 11.3201 22.8058 11.244 22.7166 11.1814C22.6669 11.1465 22.6139 11.116 22.5582 11.0904L3.48403 1.90657C3.1146 1.7287 2.67402 1.79436 2.37252 2.07223C2.07101 2.3501 1.96968 2.78386 2.11686 3.16655L5.51433 12L2.11686 20.8334C1.96968 21.2161 2.07101 21.6498 2.37252 21.9277C2.67402 22.2056 3.1146 22.2712 3.48402 22.0934L22.5558 12.9106C22.6273 12.8781 22.6944 12.8374 22.7557 12.7896C22.9679 12.6245 23.1118 12.3757 23.1378 12.0928ZM17.7601 11L4.88902 4.8028L7.27255 11H17.7601ZM7.27253 13L17.76 13L4.88902 19.1971L7.27253 13Z" fill="#000000"/>
</svg>
