<svg width="18" height="16" viewBox="0 0 18 16" fill="none" xmlns="http://www.w3.org/2000/svg">
<path fill-rule="evenodd" clip-rule="evenodd" d="M2.25 2.5C2.25 2.08579 2.58579 1.75 3 1.75H15C15.4142 1.75 15.75 2.08579 15.75 2.5V10C15.75 10.4142 15.4142 10.75 15 10.75H9H3C2.58579 10.75 2.25 10.4142 2.25 10V2.5ZM9.75 12.25H15C16.2426 12.25 17.25 11.2426 17.25 10V2.5C17.25 1.25736 16.2426 0.25 15 0.25H3C1.75736 0.25 0.75 1.25736 0.75 2.5V10C0.75 11.2426 1.75736 12.25 3 12.25H8.25V13.75H6C5.58579 13.75 5.25 14.0858 5.25 14.5C5.25 14.9142 5.58579 15.25 6 15.25H9H12C12.4142 15.25 12.75 14.9142 12.75 14.5C12.75 14.0858 12.4142 13.75 12 13.75H9.75V12.25Z" fill="#7E7C90"/>
<path fill-rule="evenodd" clip-rule="evenodd" d="M7.6075 4.21257C7.6075 3.44351 8.23094 2.82007 9 2.82007C9.76906 2.82007 10.3925 3.44351 10.3925 4.21257V4.87924C10.3925 5.64829 9.76906 6.27174 9 6.27174C8.23094 6.27174 7.6075 5.64829 7.6075 4.87924V4.21257Z" fill="#7E7C90"/>
<path d="M9.0408 7C8.68509 7 8.33592 7.08321 8.0142 7.24115C7.69293 7.39887 7.40772 7.62672 7.17184 7.90629C6.93608 8.18571 6.75304 8.51256 6.62941 8.86629C6.56964 9.03732 6.59643 9.2267 6.7013 9.37444C6.80616 9.52217 6.9761 9.60994 7.15727 9.60994H10.9243C11.1055 9.60994 11.2754 9.52217 11.3803 9.37444C11.4852 9.2267 11.512 9.03732 11.4522 8.86629C11.3286 8.51257 11.1455 8.18571 10.9098 7.90629C10.6739 7.62672 10.3887 7.39887 10.0674 7.24115C9.74568 7.08321 9.3965 7 9.0408 7Z" fill="#7E7C90"/>
</svg>
