<svg width="24" height="24" viewBox="0 0 24 24" fill="none" xmlns="http://www.w3.org/2000/svg">
<path fill-rule="evenodd" clip-rule="evenodd" d="M15.1404 1.75674C15.0056 1.7133 14.8632 1.69985 14.7228 1.71749C14.5821 1.73516 14.447 1.78376 14.3269 1.85865L14.3261 1.85918L12.3146 3.12391C12.1048 3.11449 11.8947 3.11449 11.6848 3.12393L9.66391 1.85856C9.59087 1.81291 9.51243 1.77723 9.43058 1.75241L8.86127 1.75617L8.85705 1.75754L8.85493 1.75825C7.45405 2.22692 6.16823 3.00818 5.0861 4.04702C4.98349 4.1426 4.90238 4.2592 4.84744 4.38857C4.79183 4.51951 4.76411 4.66095 4.76577 4.80335L4.76579 4.80494L4.80823 7.27418C4.69074 7.46642 4.5833 7.66097 4.48288 7.853L2.41989 9.05237L2.41876 9.05303C2.29595 9.12517 2.19062 9.22368 2.10936 9.34097C2.02919 9.45668 1.97414 9.5882 1.9472 9.72656C1.63059 11.2247 1.63088 12.7771 1.94807 14.2751C1.97687 14.4114 2.03227 14.5407 2.11143 14.655C2.19058 14.7692 2.29201 14.8663 2.41016 14.9394L4.48699 16.142C4.58593 16.3404 4.69311 16.5343 4.80824 16.7231L4.7658 19.1924L4.76578 19.1936C4.76393 19.3364 4.79108 19.4783 4.84582 19.61C4.90045 19.7415 4.98155 19.8604 5.08448 19.9583C6.16925 20.9923 7.45527 21.7707 8.85485 22.2393L8.85808 22.2403L8.85966 22.2408C8.99442 22.2842 9.13673 22.2977 9.27717 22.28C9.41785 22.2624 9.55296 22.2138 9.673 22.1389L11.6853 20.8736C11.8951 20.883 12.1053 20.883 12.3151 20.8736L14.33 22.1352C14.4841 22.2375 14.6647 22.2918 14.8499 22.2899L14.8854 22.2895L15.1138 22.2497L15.145 22.2393C16.5459 21.7706 17.8317 20.9894 18.9138 19.9505C19.0164 19.8549 19.0975 19.7383 19.1525 19.609C19.2081 19.478 19.2358 19.3366 19.2342 19.1942L19.1917 16.7233C19.3092 16.5311 19.4166 16.3365 19.517 16.1445L21.58 14.9451L21.5812 14.9445C21.704 14.8724 21.8093 14.7738 21.8906 14.6566C21.9707 14.5408 22.0258 14.4093 22.0527 14.2709C22.3693 12.7729 22.369 11.2206 22.0519 9.72259C22.0231 9.58625 21.9677 9.45685 21.8885 9.34255C21.8093 9.22831 21.708 9.1311 21.5898 9.05804L19.5129 7.85553C19.414 7.65708 19.3068 7.4632 19.1917 7.27446L19.2341 4.80515L19.2341 4.80393C19.236 4.66113 19.2088 4.51923 19.1541 4.3875C19.0995 4.256 19.0181 4.13684 18.9151 4.03892C17.8304 3.00497 16.5447 2.22679 15.1451 1.75825L15.1404 1.75674ZM21.7685 14.2134L22.0522 14.2735L22.0527 14.2709L22.0533 14.268L21.7685 14.2134ZM18.7147 19.7397L18.9117 19.9525L18.9138 19.9505L18.9156 19.9488L18.7147 19.7397ZM7.89214 11.9988C7.89214 13.2534 8.41106 14.3879 9.24109 15.174C9.96843 15.8628 10.9347 16.284 11.9999 16.284C14.2809 16.284 16.1077 14.3529 16.1077 11.9988C16.1077 10.744 15.5887 9.60934 14.7585 8.82329C14.0312 8.13464 13.0651 7.71353 11.9999 7.71353C9.71899 7.71353 7.89214 9.64465 7.89214 11.9988ZM6.72862 18.7613L6.74123 18.0514L6.76951 16.4583L6.76955 16.4568C6.77487 16.2514 6.71957 16.0482 6.60954 15.8749L6.60502 15.8681C6.41954 15.5874 6.25572 15.2915 6.11516 14.9832L6.11148 14.9751C6.02564 14.7862 5.88294 14.6286 5.70212 14.5277L3.91019 13.4824L3.80003 13.4181L3.78343 13.4085C3.63405 12.4752 3.63405 11.5223 3.78343 10.5891L5.32035 9.69249L5.70213 9.46978C5.88195 9.36943 6.02406 9.21303 6.11005 9.02552C6.25427 8.71912 6.41684 8.42265 6.59677 8.1379C6.71309 7.96575 6.77303 7.76023 6.76959 7.5522L6.72859 5.24364C7.2307 4.81221 7.77835 4.44446 8.36002 4.1472C8.58329 4.0331 8.81157 3.92939 9.04421 3.83644L10.9255 5.02124L10.9346 5.02664C11.1062 5.1291 11.3042 5.17681 11.5035 5.16241L11.507 5.16212C11.8322 5.13592 12.1602 5.13603 12.4854 5.16224C12.5999 5.17107 12.7142 5.15979 12.8237 5.1296C12.9068 5.10666 12.9871 5.07279 13.0626 5.02854L14.9552 3.83676C15.7921 4.17291 16.5737 4.64505 17.2713 5.23619L17.2587 5.94556L17.2302 7.54282L17.2303 7.55416C17.2316 7.74873 17.2833 7.94053 17.3817 8.10866L17.3857 8.1155L17.3949 8.12945C17.5109 8.305 17.6184 8.48649 17.7171 8.67322C17.7776 8.78769 17.8347 8.90414 17.8884 9.02239C17.9743 9.21131 18.117 9.36889 18.2978 9.4698L20.2165 10.5891C20.3659 11.5223 20.3659 12.4752 20.2165 13.4085L18.2978 14.5277C18.118 14.6281 17.9759 14.7844 17.8899 14.9719C17.7446 15.2806 17.5807 15.5792 17.3992 15.8659C17.2929 16.0335 17.2344 16.228 17.23 16.4272L17.2713 18.7544C16.5775 19.3527 15.7954 19.8278 14.9562 20.1614L13.0745 18.9761L13.0588 18.967C12.9081 18.8806 12.7378 18.8347 12.5648 18.834H12.5103L12.4929 18.8354C12.1677 18.8616 11.8397 18.8615 11.5145 18.8353C11.313 18.8197 11.112 18.8665 10.9373 18.969L9.04471 20.1608C8.20784 19.8246 7.42618 19.3525 6.72862 18.7613ZM11.9999 14.3722C11.4169 14.3722 10.881 14.1375 10.4781 13.7501C10.0288 13.3182 9.74473 12.6965 9.74473 11.9988C9.74473 10.6754 10.7667 9.62527 11.9999 9.62527C12.5829 9.62527 13.1186 9.8599 13.5215 10.2471C13.971 10.6791 14.2551 11.3009 14.2551 11.9988C14.2551 13.3222 13.2332 14.3722 11.9999 14.3722Z" fill="#000000"/>
</svg>
