<svg width="14" height="14" viewBox="0 0 14 14" fill="none" xmlns="http://www.w3.org/2000/svg">
<g clip-path="url(#clip0_3645_9663)">
<path d="M7.0002 0.949951C5.80362 0.949951 4.63392 1.30478 3.639 1.96956C2.64408 2.63434 1.86864 3.57922 1.41073 4.68472C0.952817 5.79021 0.833006 7.00666 1.06645 8.18025C1.29989 9.35383 1.87609 10.4318 2.7222 11.2779C3.56831 12.1241 4.64632 12.7003 5.8199 12.9337C6.99349 13.1671 8.20994 13.0473 9.31544 12.5894C10.4209 12.1315 11.3658 11.3561 12.0306 10.3611C12.6954 9.36623 13.0502 8.19653 13.0502 6.99995C13.0502 5.39539 12.4128 3.85655 11.2782 2.72195C10.1436 1.58736 8.60476 0.949951 7.0002 0.949951ZM7.0002 11.9499C6.02118 11.9499 5.06415 11.6596 4.25013 11.1157C3.4361 10.5718 2.80165 9.79873 2.42699 8.89423C2.05234 7.98974 1.95431 6.99446 2.14531 6.03425C2.33631 5.07405 2.80775 4.19204 3.50002 3.49977C4.19229 2.8075 5.0743 2.33606 6.0345 2.14506C6.99471 1.95407 7.98999 2.05209 8.89448 2.42675C9.79898 2.8014 10.5721 3.43585 11.116 4.24988C11.6599 5.0639 11.9502 6.02093 11.9502 6.99995C11.9502 8.31277 11.4287 9.57182 10.5004 10.5001C9.57207 11.4284 8.31302 11.9499 7.0002 11.9499Z" fill="#000000"/>
<path d="M8.7602 7.76995C8.54392 8.03068 8.27576 8.24357 7.97276 8.39507C7.66976 8.54657 7.33856 8.63337 7.0002 8.64995C6.66205 8.63238 6.33118 8.54514 6.02832 8.39371C5.72546 8.24228 5.45715 8.02992 5.2402 7.76995C5.19686 7.71217 5.14257 7.66349 5.08042 7.62669C5.01827 7.58989 4.94948 7.56569 4.87798 7.55548C4.80648 7.54526 4.73367 7.54923 4.6637 7.56716C4.59373 7.58508 4.52798 7.61661 4.4702 7.65995C4.41242 7.70329 4.36374 7.75758 4.32694 7.81973C4.29014 7.88188 4.26594 7.95067 4.25573 8.02217C4.24551 8.09367 4.24948 8.16648 4.26741 8.23645C4.28533 8.30642 4.31686 8.37217 4.3602 8.42995C4.67796 8.82852 5.07874 9.15307 5.53466 9.38103C5.99058 9.60899 6.49069 9.73488 7.0002 9.74995C7.50971 9.73488 8.00982 9.60899 8.46574 9.38103C8.92166 9.15307 9.32244 8.82852 9.6402 8.42995C9.72772 8.31325 9.7653 8.16657 9.74467 8.02217C9.72404 7.87777 9.6469 7.74747 9.5302 7.65995C9.4135 7.57243 9.26682 7.53485 9.12242 7.55548C8.97801 7.57611 8.84772 7.65325 8.7602 7.76995Z" fill="#000000"/>
<path d="M8.6502 5.89995C8.79607 5.89995 8.93596 5.842 9.03911 5.73886C9.14225 5.63571 9.2002 5.49582 9.2002 5.34995C9.2002 5.20408 9.14225 5.06419 9.03911 4.96104C8.93596 4.8579 8.79607 4.79995 8.6502 4.79995C8.50433 4.79995 8.36444 4.8579 8.26129 4.96104C8.15815 5.06419 8.1002 5.20408 8.1002 5.34995C8.1002 5.49582 8.15815 5.63571 8.26129 5.73886C8.36444 5.842 8.50433 5.89995 8.6502 5.89995Z" fill="#000000"/>
<path d="M5.3502 5.89995C5.49607 5.89995 5.63596 5.842 5.73911 5.73886C5.84225 5.63571 5.9002 5.49582 5.9002 5.34995C5.9002 5.20408 5.84225 5.06419 5.73911 4.96104C5.63596 4.8579 5.49607 4.79995 5.3502 4.79995C5.20433 4.79995 5.06444 4.8579 4.96129 4.96104C4.85815 5.06419 4.8002 5.20408 4.8002 5.34995C4.8002 5.49582 4.85815 5.63571 4.96129 5.73886C5.06444 5.842 5.20433 5.89995 5.3502 5.89995Z" fill="#000000"/>
</g>
<defs>
<clipPath id="clip0_3645_9663">
<rect width="13.2" height="13.2" fill="white" transform="translate(0.400391 0.399902)"/>
</clipPath>
</defs>
</svg>
