<svg width="44" height="56" viewBox="0 0 44 56" fill="none" xmlns="http://www.w3.org/2000/svg">
<path fill-rule="evenodd" clip-rule="evenodd" d="M17.1061 21.1935C17.4437 20.6153 18.0441 20.2401 18.7117 20.1899L23.2093 19.8516L20.2055 16.4871C19.7596 15.9876 19.5877 15.3009 19.7458 14.6503L20.8112 10.2643L16.6852 12.0828C16.0717 12.3532 15.3644 12.3042 14.794 11.9519L10.9584 9.58277L11.4118 14.0703C11.4792 14.7372 11.214 15.3947 10.7026 15.8282L7.26227 18.7448L11.668 19.7004C12.3233 19.8426 12.8665 20.2981 13.1207 20.9186L14.8298 25.091L17.1061 21.1935ZM18.8644 22.2204L24.3905 21.8048C25.6526 21.7099 26.2581 20.209 25.4151 19.2648L21.7245 15.131L23.0333 9.74323C23.332 8.51353 22.0914 7.47487 20.9334 7.98523L15.864 10.2194L11.1508 7.30822C10.0738 6.643 8.70154 7.5016 8.82878 8.76106L9.38588 14.275L5.15859 17.8587C4.19302 18.6773 4.58534 20.2478 5.82245 20.5161L11.2364 21.6904L13.3363 26.8169C13.816 27.9879 15.4301 28.1009 16.0683 27.0081L18.8644 22.2204Z" fill="#88D6D9"/>
<path fill-rule="evenodd" clip-rule="evenodd" d="M32.6822 38.1601C32.9305 37.7077 33.3853 37.4063 33.8986 37.3539L37.3569 37.0009L34.9735 34.4704C34.6197 34.0947 34.4732 33.5692 34.5816 33.0646L35.3125 29.6636L32.1709 31.1493C31.7038 31.3702 31.1578 31.347 30.7111 31.0873L27.7073 29.3407L28.1488 32.7888C28.2144 33.3013 28.0236 33.8133 27.6385 34.1578L25.0477 36.4756L28.4618 37.1214C28.9695 37.2174 29.3974 37.5573 29.606 38.0301L31.0084 41.2097L32.6822 38.1601ZM34.058 38.9152L38.307 38.4815C39.2775 38.3825 39.7132 37.2137 39.0443 36.5035L36.116 33.3944L37.0138 29.2165C37.2187 28.2629 36.2415 27.4882 35.3598 27.9051L31.5 29.7306L27.8089 27.5844C26.9654 27.0939 25.9258 27.7836 26.0497 28.7514L26.5921 32.9881L23.4087 35.8361C22.6816 36.4866 23.0161 37.6885 23.9747 37.8698L28.1701 38.6634L29.8932 42.57C30.2868 43.4624 31.5327 43.5163 32.002 42.6613L34.058 38.9152Z" fill="#B6E6E8"/>
<path fill-rule="evenodd" clip-rule="evenodd" d="M15.6225 16.0841C16.3103 14.6907 18.2973 14.6907 18.9851 16.0841L21.9966 22.1851L28.7322 23.1696C30.2696 23.3943 30.8823 25.284 29.7693 26.3681L24.897 31.1137L26.0467 37.8174C26.3094 39.3492 24.7015 40.5172 23.326 39.7938L17.3038 36.6268L11.2817 39.7938C9.9061 40.5172 8.29819 39.3492 8.56091 37.8174L9.71066 31.1137L4.83832 26.3681C3.72533 25.284 4.33806 23.3943 5.87539 23.1696L12.611 22.1851L15.6225 16.0841Z" fill="#2CA5A9"/>
</svg>
