<svg width="24" height="24" viewBox="0 0 24 24" fill="none" xmlns="http://www.w3.org/2000/svg">
<path fill-rule="evenodd" clip-rule="evenodd" d="M15.4651 9.32521C14.8144 9.2301 14.252 8.82118 13.9609 8.23148L12.0001 4.25902L10.0392 8.23148C9.74813 8.82118 9.18576 9.2301 8.53505 9.32521L4.14847 9.96637L7.321 13.0564C7.79275 13.5159 8.00808 14.1782 7.89675 14.8272L7.14824 19.1914L11.0692 17.1295C11.6519 16.823 12.3482 16.823 12.931 17.1295L16.8519 19.1914L16.1034 14.8272C15.992 14.1782 16.2074 13.5159 16.6791 13.0564L19.8516 9.96637L15.4651 9.32521ZM15.7543 7.34623L13.3451 2.46546C12.7949 1.35071 11.2053 1.35071 10.655 2.46546L8.2458 7.34623L2.85732 8.13384C1.62745 8.3136 1.13727 9.82537 2.02767 10.6926L5.92554 14.4891L5.00574 19.852C4.79556 21.0775 6.08189 22.0119 7.18233 21.4332L12.0001 18.8996L16.8178 21.4332C17.9182 22.0119 19.2046 21.0775 18.9944 19.852L18.0746 14.4891L21.9725 10.6926C22.8628 9.82537 22.3727 8.3136 21.1428 8.13384L15.7543 7.34623Z" fill="#E14963"/>
</svg>
