<svg width="24" height="24" viewBox="0 0 24 24" fill="none" xmlns="http://www.w3.org/2000/svg">
<g clip-path="url(#clip0_2616_42028)">
<path fill-rule="evenodd" clip-rule="evenodd" d="M15.8599 3.23179C15.5871 3.45913 15.4553 3.81411 15.5137 4.1644L15.923 6.62041L10.5832 11.3793C10.3987 11.3231 10.2029 11.2929 10 11.2929C8.89543 11.2929 8 12.1884 8 13.2929C8 14.3975 8.89543 15.2929 10 15.2929C11.1046 15.2929 12 14.3975 12 13.2929C12 13.1376 11.9823 12.9864 11.9488 12.8413L17.3079 8.06513L19.8357 8.48641C20.1228 8.53427 20.4166 8.45461 20.6402 8.26823L23.6402 5.76823C23.9109 5.54272 24.0429 5.19146 23.9877 4.84354C23.9326 4.49562 23.6985 4.20236 23.3714 4.07153L21.2694 3.2307L20.4285 1.12862C20.3096 0.831399 20.0556 0.60906 19.7453 0.530551C19.435 0.452043 19.1058 0.526856 18.8599 0.73179L15.8599 3.23179ZM19.7121 6.43823L17.869 6.13106L17.5807 4.40118L19.0828 3.14944L19.5716 4.3714C19.6732 4.6255 19.8746 4.82685 20.1287 4.92849L21.0713 5.30556L19.7121 6.43823Z" fill="#32BCC1"/>
<path d="M7.88329 5.57805C9.65035 5.09323 11.5303 5.2297 13.2088 5.96465C13.7147 6.18617 14.3044 5.95563 14.5259 5.44972C14.7474 4.9438 14.5169 4.3541 14.011 4.13258C11.9129 3.21389 9.56293 3.0433 7.35411 3.64933C5.14529 4.25535 3.21146 5.60127 1.87592 7.46205C0.540388 9.32283 -0.115893 11.5857 0.0168045 13.8723C0.149502 16.1589 1.06313 18.3306 2.60495 20.0244C4.14676 21.7182 6.22331 22.8314 8.4874 23.1779C10.7515 23.5243 13.0659 23.0831 15.0437 21.9278C17.0215 20.7726 18.5427 18.9734 19.3531 16.8312C20.1635 14.6889 20.214 12.3333 19.496 10.1583C19.3229 9.63385 18.7574 9.34904 18.2329 9.52216C17.7085 9.69528 17.4237 10.2608 17.5968 10.7852C18.1712 12.5252 18.1308 14.4097 17.4825 16.1235C16.8342 17.8373 15.6172 19.2767 14.0349 20.2008C12.4527 21.125 10.6012 21.4781 8.78992 21.2009C6.97865 20.9237 5.31741 20.0332 4.08396 18.6781C2.85051 17.3231 2.1196 15.5857 2.01345 13.7564C1.90729 11.9271 2.43231 10.1169 3.50074 8.62823C4.56917 7.1396 6.11624 6.06287 7.88329 5.57805Z" fill="#32BCC1"/>
<path d="M8.31035 9.66733C9.07979 9.30874 9.94336 9.20424 10.7761 9.36895C11.3179 9.47611 11.844 9.12378 11.9511 8.58199C12.0583 8.0402 11.706 7.51412 11.1642 7.40696C9.91504 7.1599 8.61968 7.31664 7.46552 7.85452C6.31136 8.3924 5.35824 9.28352 4.74407 10.399C4.1299 11.5144 3.88652 12.7963 4.04914 14.0592C4.21176 15.3221 4.77195 16.5006 5.64867 17.424C6.52538 18.3475 7.67316 18.9681 8.92593 19.196C10.1787 19.424 11.4715 19.2474 12.6173 18.692C13.7631 18.1365 14.7025 17.2309 15.2996 16.1062C15.8966 14.9816 16.1204 13.6961 15.9385 12.4358C15.8596 11.8892 15.3525 11.51 14.8059 11.5889C14.2592 11.6678 13.8801 12.1749 13.959 12.7215C14.0803 13.5617 13.9311 14.4187 13.533 15.1685C13.135 15.9183 12.5088 16.522 11.7449 16.8923C10.981 17.2626 10.1191 17.3803 9.28396 17.2283C8.44877 17.0764 7.68359 16.6626 7.09911 16.047C6.51464 15.4314 6.14118 14.6457 6.03276 13.8038C5.92435 12.9618 6.0866 12.1072 6.49605 11.3636C6.9055 10.62 7.54091 10.0259 8.31035 9.66733Z" fill="#32BCC1"/>
</g>
<defs>
<clipPath id="clip0_2616_42028">
<rect width="24" height="24" fill="white"/>
</clipPath>
</defs>
</svg>
