<svg width="18" height="18" viewBox="0 0 18 18" fill="none" xmlns="http://www.w3.org/2000/svg">
<path fill-rule="evenodd" clip-rule="evenodd" d="M9.1875 2.25C7.42709 2.25 6 3.67709 6 5.4375V7.4375C6 9.19791 7.42709 10.625 9.1875 10.625C10.9479 10.625 12.375 9.19791 12.375 7.4375V5.4375C12.375 3.67709 10.9479 2.25 9.1875 2.25ZM7.375 5.4375C7.375 4.43648 8.18649 3.625 9.1875 3.625C10.1885 3.625 11 4.43648 11 5.4375V7.4375C11 8.43852 10.1885 9.25 9.1875 9.25C8.18649 9.25 7.375 8.43852 7.375 7.4375V5.4375Z" fill="#211F30"/>
<path fill-rule="evenodd" clip-rule="evenodd" d="M9.33809 11.1136C8.42674 11.1136 7.52806 11.3265 6.69457 11.7357C5.86164 12.1446 5.11307 12.7399 4.48787 13.4809C3.86282 14.2217 3.37189 15.0951 3.0385 16.0491C2.96501 16.2594 2.99795 16.4922 3.12688 16.6739C3.25581 16.8555 3.46476 16.9634 3.6875 16.9634H14.9887C15.2114 16.9634 15.4204 16.8555 15.5493 16.6739C15.6782 16.4922 15.7112 16.2594 15.6377 16.0491C15.3043 15.0951 14.8134 14.2217 14.1883 13.4809C13.5631 12.7399 12.8145 12.1446 11.9816 11.7357C11.1481 11.3265 10.2494 11.1136 9.33809 11.1136ZM7.30051 12.97C7.95111 12.6506 8.64307 12.4886 9.33809 12.4886C10.0331 12.4886 10.7251 12.6506 11.3757 12.97C12.0268 13.2897 12.6267 13.7623 13.1374 14.3676C13.4464 14.7337 13.7185 15.1435 13.9476 15.5884H4.72863C4.95771 15.1435 5.22983 14.7337 5.53877 14.3676C6.04944 13.7623 6.64935 13.2897 7.30051 12.97Z" fill="#211F30"/>
</svg>
