<svg width="25" height="21" viewBox="0 0 25 21" fill="none" xmlns="http://www.w3.org/2000/svg">
<path d="M19.5 0C20.0523 0 20.5 0.447715 20.5 1V3H22.5C23.0523 3 23.5 3.44772 23.5 4C23.5 4.55228 23.0523 5 22.5 5H20.5V7C20.5 7.55228 20.0523 8 19.5 8C18.9477 8 18.5 7.55228 18.5 7V5H16.5C15.9477 5 15.5 4.55228 15.5 4C15.5 3.44771 15.9477 3 16.5 3H18.5V1C18.5 0.447715 18.9477 0 19.5 0Z" fill="#F7F7FD"/>
<path d="M3.5 6C2.94772 6 2.5 6.44772 2.5 7V18C2.5 18.5523 2.94772 19 3.5 19H15.5C16.0523 19 16.5 18.5523 16.5 18V11.5C16.5 10.9477 16.9477 10.5 17.5 10.5C18.0523 10.5 18.5 10.9477 18.5 11.5V15.2793L22.4999 16.6126V9C22.4999 8.44772 22.9477 8 23.4999 8C24.0522 8 24.4999 8.44772 24.4999 9V17.3063C24.4999 18.3301 23.4969 19.0531 22.5256 18.7293L18.5 17.3874V18C18.5 19.6569 17.1569 21 15.5 21H3.5C1.84315 21 0.5 19.6569 0.5 18V7C0.5 5.34315 1.84315 4 3.5 4H12.5C13.0523 4 13.5 4.44772 13.5 5C13.5 5.55228 13.0523 6 12.5 6H3.5Z" fill="#F7F7FD"/>
</svg>
