<svg width="24" height="24" viewBox="0 0 24 24" fill="none" xmlns="http://www.w3.org/2000/svg">
<path fill-rule="evenodd" clip-rule="evenodd" d="M3 4C1.34315 4 0 5.34315 0 7V18C0 19.6569 1.34315 21 3 21H15C16.6569 21 18 19.6569 18 18V17.3874L22.0256 18.7293C22.9969 19.0531 23.9999 18.3301 23.9999 17.3063V6.809C23.9999 5.69393 22.8265 4.96869 21.8291 5.46736L18 7.38193V7C18 5.34315 16.6569 4 15 4H3ZM18 9.61799V15.2792L21.9999 16.6126V7.61802L18 9.61799ZM2 7C2 6.44772 2.44772 6 3 6H15C15.5523 6 16 6.44772 16 7V18C16 18.5523 15.5523 19 15 19H3C2.44772 19 2 18.5523 2 18V7Z" fill="#211F30"/>
</svg>
