<svg width="24" height="24" viewBox="0 0 24 24" fill="none" xmlns="http://www.w3.org/2000/svg">
<g clip-path="url(#clip0_4160_341846)">
<path fill-rule="evenodd" clip-rule="evenodd" d="M3 4C1.34315 4 0 5.34315 0 7V18C0 18.5523 0.447715 19 1 19C1.55228 19 2 18.5523 2 18V7C2 6.44772 2.44772 6 3 6H14C14.5523 6 15 5.55228 15 5C15 4.44772 14.5523 4 14 4H3ZM18 7.38199V7H16V18C16 18.5523 15.5523 19 15 19H4V21H15C16.6569 21 18 19.6569 18 18V17.3875L22.0256 18.7294C22.9969 19.0531 23.9999 18.3302 23.9999 17.3063V6.80906C23.9999 5.69399 22.8265 4.96875 21.8291 5.46742L18 7.38199ZM18 9.61805V15.2793L21.9999 16.6126V7.61808L18 9.61805Z" fill="#211f30"/>
<path class="slash" fill-rule="evenodd" clip-rule="evenodd" d="M23.7071 0.292893C23.3166 -0.0976311 22.6834 -0.0976311 22.2929 0.292893L0.292892 22.2929C-0.0976315 22.6834 -0.0976315 23.3166 0.292892 23.7071C0.683418 24.0976 1.31658 24.0976 1.70711 23.7071L23.7071 1.70711C24.0976 1.31658 24.0976 0.683417 23.7071 0.292893Z" fill="#E14963"/>
</g>
<defs>
<clipPath id="clip0_4160_341846">
<rect width="24" height="24" fill="white"/>
</clipPath>
</defs>
</svg>
