<svg width="18" height="18" viewBox="0 0 18 18" fill="none" xmlns="http://www.w3.org/2000/svg">
<path fill-rule="evenodd" clip-rule="evenodd" d="M1.62674 17.1667L1.61972 17.1658L1.61265 17.1661C1.49066 17.1726 1.36893 17.1491 1.25811 17.0975C1.14729 17.046 1.05075 16.968 0.976946 16.8703C0.903143 16.7727 0.854328 16.6584 0.834785 16.5375C0.815242 16.4166 0.825697 16.2923 0.864987 16.1763L2.33034 11.771L2.31919 11.7449C1.89318 10.7465 1.67945 9.67002 1.69164 8.5842L1.69164 8.58333C1.69108 7.14224 2.09107 5.72948 2.84676 4.50342C3.60245 3.27737 4.68441 2.28624 5.97049 1.64158C7.0425 1.095 8.23067 0.815 9.4334 0.825221H9.84299C11.7494 0.917719 13.554 1.71493 14.9083 3.06292C16.2624 4.41087 17.07 6.21388 17.1752 8.12369V8.58344C17.1764 9.78811 16.8972 10.9767 16.3601 12.0544C15.7225 13.3454 14.7339 14.4294 13.5083 15.1817C12.2792 15.9295 10.8711 16.3303 9.43323 16.3415C8.35503 16.34 7.28913 16.1119 6.30438 15.6719L6.27745 15.6599L1.86274 17.1677C1.78438 17.1777 1.70504 17.1774 1.62674 17.1667ZM9.7996 2.3243H9.41694C8.45376 2.32451 7.50394 2.5503 6.64332 2.98366C5.16129 3.7252 4.03395 5.02628 3.50922 6.60066C2.98447 8.17507 3.10531 9.89388 3.84516 11.379L3.84554 11.3798C3.89084 11.4682 3.91813 11.5648 3.92584 11.6639C3.93354 11.7629 3.92147 11.8627 3.89043 11.957L2.79799 15.2326L6.06695 14.1378C6.1611 14.1066 6.26047 14.0946 6.3593 14.1023C6.45806 14.11 6.55431 14.1373 6.64247 14.1826C7.5037 14.6319 8.46319 14.8587 9.43398 14.8424C11.0904 14.8423 12.6789 14.1828 13.8501 13.0091C15.0215 11.8353 15.6795 10.2433 15.6795 8.58336L15.6797 8.17109L15.6794 8.16631C15.5819 6.64052 14.9297 5.20341 13.8463 4.12688C12.7628 3.05035 11.3231 2.40896 9.7996 2.3243ZM6.09847 6.18446H6.99629V5.28492C6.99629 4.87081 7.33125 4.53538 7.74411 4.53538C8.15697 4.53538 8.49192 4.87082 8.49192 5.28492V6.18446H10.2876V5.28492C10.2876 4.87081 10.6225 4.53538 11.0354 4.53538C11.4482 4.53538 11.7832 4.87082 11.7832 5.28492V6.18446H12.681C13.0939 6.18446 13.4288 6.5199 13.4288 6.93401C13.4288 7.34811 13.0939 7.68355 12.681 7.68355H11.7832V9.48263H12.681C13.0939 9.48263 13.4288 9.81806 13.4288 10.2322C13.4288 10.6463 13.0939 10.9817 12.681 10.9817H11.7832V11.8813C11.7832 12.2954 11.4482 12.6308 11.0354 12.6308C10.6225 12.6308 10.2876 12.2954 10.2876 11.8813V10.9817H8.49192V11.8813C8.49192 12.2954 8.15697 12.6308 7.74411 12.6308C7.33125 12.6308 6.99629 12.2954 6.99629 11.8813V10.9817H6.09847C5.68561 10.9817 5.35065 10.6463 5.35065 10.2322C5.35065 9.81806 5.68561 9.48263 6.09847 9.48263H6.99629L6.99629 7.68355H6.09847C5.68561 7.68355 5.35065 7.34811 5.35065 6.93401C5.35065 6.5199 5.68561 6.18446 6.09847 6.18446ZM10.2876 9.48263V7.68355H8.49192V9.48263H10.2876Z" fill="#7E7C90"/>
</svg>
